<?xml version="1.0" encoding="utf-8"?>
<!-- Generator: Adobe Illustrator 21.0.0, SVG Export Plug-In . SVG Version: 6.00 Build 0)  -->
<svg version="1.1" id="Capa_1" xmlns="http://www.w3.org/2000/svg" xmlns:xlink="http://www.w3.org/1999/xlink" x="0px" y="0px"
	 viewBox="0 0 477 477" style="enable-background:new 0 0 477 477;" xml:space="preserve">
	 <style type="text/css">
	.st0{fill:#A1A1A1;}
	.st1{fill:#00506B;}
	.st2{fill:#00AD88;}
	.st3{fill:#3B3B3B;}
	.st4{fill:#757575;}
	.st5{fill:#FFFFFF;}
</style>
<g class="st2">
	<path  class="st2" d="M333.7,280.8c-2,1.6-2.3,4.6-0.7,6.6l2,2.5c1.7,1.9,4.6,2.2,6.5,0.6c2-1.6,2.3-4.6,0.7-6.6l-2-2.5
		C338.6,279.5,335.7,279.2,333.7,280.8z"/>
	<path class="st2" d="M212,116.2c-0.9,2.3,0.2,4.9,2.4,5.9l3.7,1.4c2.4,0.9,5.2-0.3,6.1-2.7c0.9-2.3-0.2-4.8-2.3-5.9l-3.7-1.4
		C215.7,112.6,212.9,113.8,212,116.2z"/>
	<path d="M360.9,306.5l-20.5-25.1c0,0-0.1-0.1-0.1-0.1l2,2.5c1.6,2,1.3,5-0.7,6.6c-2,1.6-4.9,1.4-6.5-0.6l12.9,15.8
		c-36.7,0.5-49-42.2-50.4-47.4c-0.3-1.1-0.6-2.2-1-3.3c0.2-0.2,5.8-4.7,6-4.9l32.4,39.7c0,0,0.1,0.1,0.1,0.1l-2-2.5
		c-1.6-2-1.3-5,0.7-6.6c2-1.6,4.9-1.4,6.5,0.6L308,241.8c0.8-3.6,0-7-2.5-10c15.2-2.9,21.3-20.8,12-31.5
		c-16.3-18.8-39.3-44.4-54.4-61.9c-6.5-7.5-14.8-13.3-24-16.8l-17.3-6.7c2.2,1.1,3.2,3.6,2.3,5.9c-0.9,2.4-3.7,3.6-6.1,2.7l-3.7-1.4
		c0.1,0.1,0.2,0.1,0.4,0.2l21,8.1c7.8,3,14.8,7.9,20.2,14.2c15.1,17.5,38.1,43.1,54.4,61.9c1.7,1.9,2.4,4.5,2,7.2
		c-1.4,8.8-12.7,11.6-17.5,6.6l-42.7-45.1c-6.7-6.9-15.3-11.4-24.5-12.9c-7.4-1.3-5.9-0.9-71.9,4.3c-3.1,0.2-5.3,2.7-5.4,5.6
		c-0.1,3,2,5.6,5,6.1c27.7,4.5,57.7,13.4,83.6,23.8c3.8,1.5,6.4,5.5,5.8,9.9l-0.3,2.7c-0.6,5-5.1,8.5-9.8,8.2
		c-6.9-0.4-52.6-2.8-59.9-3.2c-0.2,0-0.4,0-0.6,0l-52,3.8c-14.9,1.1-29.4-2.5-42.1-10.4c-8.1-5-15-6.7-23.4-7.9
		c0.2,3.2,0.5,6.5,0.9,9.7c6.6,1,11.6,2.5,17.5,6.2c14.4,9,30.9,13.1,47.8,11.9l37.9-2.8c-2.8,10.9,3.3,22.2,14.2,25.7
		c5.3,1.7,10.8,1.3,15.5-0.9c1.6,7.2,6.8,13.4,14.3,15.9c11.3,3.7,23.4-2.5,27-13.8l8.2-25.4c5.9-1.6,10.8-6.1,12.8-11.9l13.1,17.2
		c0.1,0.8,0.4,1.6,1,2.3l11.8,14.4l0,0c2.4,3,5.4,4.4,8.9,4.5c0.9,2.7,5.3,22.3,19.4,38.3c13.4,15.2,31.1,21.4,51,17.9
		C361.6,313.5,363.1,309.3,360.9,306.5z M191.5,242c-3,4.5-8.6,6.5-13.7,4.8c-6.3-2.1-9.8-8.8-7.7-15.2l0.7-2.3
		c4.8-0.4,0.5-0.4,25,0.9L191.5,242z M222.8,254c-2.1,6.3-8.8,9.8-15.2,7.7c-5.7-1.9-10.1-8-7.4-16.1l5.5-15l24.3,1.3L222.8,254z
		 M181.7,173.9l32.2-2.5c7.4,9.1,5.7,7,13.1,16.1C211.2,181.8,195.2,177.1,181.7,173.9z M253.2,204.6c-1.4-4.2-4.4-7.9-8.2-10.1
		c-7.8-9.6-11.6-14.2-18.8-23c14.3,2.5,15,5.9,55.9,49.1l-10.3,8.4L253.2,204.6z M286.4,247.9l-8.8-11.4l11.1-9
		c0.8,0.7,1.9,1.6,2.9,2.2c4.5,5.5,3.1,3.8,6.8,8.4c0,0,0,0,0,0c0.9,1.1,0.1,3.2-1.3,4.4c-3.8,3.1-2.4,2-6.2,5.1
		C289.4,248.7,287.3,249,286.4,247.9z"/>
	<path d="M76.4,118.1c8.3,0.4,17.9,0.1,29.2-1.7l54.6-8.8c7.4-1.2,15-0.4,22,2.3l32.2,12.4c-2.2-1.1-3.2-3.6-2.4-5.9
		c0.9-2.4,3.7-3.6,6.1-2.7l3.7,1.4c-0.1-0.1-0.2-0.1-0.4-0.2L185.6,101c-8.5-3.3-17.8-4.3-26.9-2.8l-54.6,8.8
		c-9.4,1.5-17.4,1.9-24.7,1.7c-0.1,0.4-0.3,0.8-0.4,1.3C78.1,112.7,77.2,115.4,76.4,118.1z"/>
</g>
<g  class="st2">
	<path d="M238.4,7C136.8,7,54.2,89.6,54.2,191.2c0,11.8,1.1,23.4,3.3,34.6l0.1,0.3c0,0.3,0.4,2.1,1.2,5.9
		c2.8,12.5,6.9,24.7,12.3,36.3l0.1,0.2c20.3,47.8,65.1,121.3,163.2,200.1c2.4,1.9,5.8,1.9,8.2,0c98.2-78.9,143-152.4,163.2-200.1
		l0.1-0.2c5.4-11.7,9.6-23.9,12.3-36.3c0.8-3.8,1.2-5.5,1.2-5.9l0-0.3c2.2-11.7,3.3-23.3,3.3-34.6C422.6,89.6,339.9,7,238.4,7z
		 M406.5,223.4c0,0.1,0,0.1,0,0.2v0.1l-0.1,0.7c-0.1,0.5-0.3,1.7-0.8,3.7v0.2l-0.2,0.8c-2.6,11.7-6.5,23.2-11.6,34l0,0.1
		c-0.1,0.2-0.1,0.3-0.2,0.5l0,0c-18.9,44.6-60.4,113.2-150.7,187.8l-4.5,3.7l-4.5-3.7c-90.3-74.6-131.8-143.2-150.7-187.8l-0.1-0.2
		c-0.1-0.2-0.1-0.3-0.2-0.4l0-0.1c-4.9-10.7-8.8-22.1-11.6-34l-0.2-0.9c-0.4-1.6-0.6-2.8-0.7-3.5l-0.2-1c0-0.1,0-0.3-0.1-0.4
		c-2-10.6-3.1-21.4-3.1-32.1c0-94.4,76.8-171.2,171.2-171.2s171.2,76.8,171.2,171.2C409.6,202.1,408.6,212.9,406.5,223.4z"/>
</g>
</svg>
