<?xml version="1.0" encoding="utf-8"?>
<!-- Generator: Adobe Illustrator 21.0.0, SVG Export Plug-In . SVG Version: 6.00 Build 0)  -->
<svg version="1.1" id="Capa_1" xmlns="http://www.w3.org/2000/svg" xmlns:xlink="http://www.w3.org/1999/xlink" x="0px" y="0px"
	 viewBox="0 0 477 477" style="enable-background:new 0 0 477 477;" xml:space="preserve">
	  <style type="text/css">
	.st0{fill:#A1A1A1;}
	.st1{fill:#00506B;}
	.st2{fill:#00AD88;}
	.st3{fill:#3B3B3B;}
	.st4{fill:#757575;}
	.st5{fill:#FFFFFF;}
</style>
<g class="st2">
	<path class="st2" d="M238.4,7C136.8,7,54.2,89.6,54.2,191.2c0,11.8,1.1,23.4,3.3,34.6l0.1,0.3c0,0.3,0.4,2.1,1.2,5.9
		c2.8,12.5,6.9,24.7,12.3,36.3l0.1,0.2c20.3,47.8,65.1,121.3,163.2,200.1c2.4,1.9,5.8,1.9,8.2,0c98.2-78.9,143-152.4,163.2-200.1
		l0.1-0.2c5.4-11.7,9.6-23.9,12.3-36.3c0.8-3.8,1.2-5.5,1.2-5.9l0-0.3c2.2-11.7,3.3-23.3,3.3-34.6C422.6,89.7,339.9,7,238.4,7z
		 M148.4,155h4.8c1.2,7.6,7.8,13.4,15.7,13.4h3.4c1.2,8.6,5.6,20.8,13.6,32.5c0.2,0.3,0.4,0.5,0.5,0.8c0,0,0,0.1,0.1,0.1
		c3.7,5.3,9,11.7,16.1,17.8l0,0c0,0,0,0,0,0v15.6c0,3.4-1.5,6.8-3.7,9.2c-2.9-1.1-6-1.3-9-0.5c-0.1,0-0.3,0.1-0.4,0.1l-17.9,5.4
		C146.4,217.9,147.3,170.6,148.4,155z M163.7,152.5v-8.1c0-0.7,0.1-1.3,0.4-1.9c0.8,0.4,1.7,0.6,2.6,0.6c0,0,2.3,0,5.2,0.7v13.9h-3
		C166,157.7,163.7,155.3,163.7,152.5z M313.9,85.7v47.2c-2.1,0.4-4.6,1-7.1,2.1c-0.3,0.1-0.5,0.2-0.8,0.3c-0.6,0.3-1.2,0.5-1.7,0.9
		V92.9c0-11.9-9.7-21.6-21.6-21.6h-14.8c-5.1,0-10.1,1.8-14,5l-1.5,1.2c-2.7,2.2-6,3.4-9.5,3.4s-6.8-1.2-9.5-3.4l-1.5-1.2
		c-4-3.2-8.9-5-14-5h-14.8c-11.9,0-21.6,9.7-21.6,21.6v43.2c-0.6-0.3-1.2-0.6-1.7-0.9c-0.2-0.1-0.5-0.2-0.8-0.3
		c-2.5-1.1-5-1.7-7.1-2.1V77.2c0-17.4,14.1-31.5,31.5-31.5h79.1c17.4,0,31.5,14.1,31.5,31.5L313.9,85.7
		C313.9,85.7,313.9,85.7,313.9,85.7z M317,168.4c7.9,0,14.5-5.8,15.7-13.4h4.8c1.1,15.6,2,62.9-23.1,94.4l-17.9-5.4c0,0,0,0,0,0
		c0,0,0,0,0,0c-3.1-0.9-6.4-0.8-9.4,0.4c-2.2-2.4-3.7-5.8-3.7-9.2v-15.6c8.8-8.1,14.5-15.3,18-20.6c1.6-2.5,3.1-5,4.4-7.5
		c0.5-1,0.7-1.5,0.7-1.5l0.1,0.1c4-8,6.3-15.6,7.2-21.6H317z M314,157.7v-13.9c2.9-0.7,5.1-0.7,5.2-0.7c0.9,0,1.8-0.2,2.6-0.6
		c0.2,0.6,0.4,1.2,0.4,1.9v8.1c0,2.9-2.3,5.2-5.2,5.2H314z M238.1,387.7c-27.1,0-49.1-22-49.1-49.1c0-25.6,19.6-46.6,44.6-48.9
		c3,0.2,6.1,0.3,9.3,0.3c0.7,0,1.4,0,2,0c23.9,3.3,42.3,23.8,42.3,48.6C287.2,365.7,265.2,387.7,238.1,387.7z M208.3,274.5
		c-0.2-0.5-0.4-1-0.6-1.5c-0.1-0.1-0.1-0.3-0.2-0.4c-0.4-0.9-0.7-1.7-1-2.6c-0.1-0.2-0.2-0.5-0.3-0.7c-0.1-0.3-0.3-0.6-0.4-1
		c-0.1-0.3-0.3-0.7-0.4-1c-0.1-0.1-0.1-0.3-0.2-0.4c0-0.1-0.1-0.2-0.1-0.3c-0.6-1.5-1.2-2.9-1.8-4.3c0,0,0,0,0,0
		c-0.3-0.7-0.6-1.4-0.9-2.1c-0.1-0.3-0.3-0.7-0.4-1l26,19.4C221,277.9,214.5,276.5,208.3,274.5C208.3,274.5,208.3,274.5,208.3,274.5
		z M298.2,149.3c0.9,0.4,1.9,0.6,2.9,0.6c0.7,0,1.4-0.1,2.1-0.3v14.1c0,7.8-5.4,23-15.4,35.8c-3.3,4.2-7.6,8.8-12.8,12.7
		c-0.2,0.1-0.3,0.2-0.5,0.4c-8.1,6-18.6,10.6-31.6,10.6s-23.4-4.6-31.6-10.6c-0.2-0.1-0.3-0.2-0.5-0.4c-5.3-4-9.5-8.5-12.8-12.7
		c-10-12.8-15.4-27.9-15.4-35.8v-14.1c1.6,0.5,3.4,0.4,5-0.3c2.8-1.2,4.6-3.9,4.6-6.9V92.9c0-6,4.9-10.9,10.9-10.9H218
		c2.6,0,5.2,0.9,7.3,2.6l1.5,1.2c4.6,3.7,10.4,5.8,16.3,5.8c5.9,0,11.7-2.1,16.3-5.8l1.5-1.2c2-1.7,4.6-2.6,7.3-2.6h14.8
		c6,0,10.9,4.9,10.9,10.9v49.5C293.6,145.4,295.4,148.1,298.2,149.3z M207.8,250.3c3.5-4.4,5.4-10.1,5.4-15.2v-8.6
		c8.3,4.4,18.1,7.4,29.7,7.4c11.6,0,21.4-3,29.7-7.4v8.6c0,5.1,2,10.8,5.4,15.2l-35.1,26.2L207.8,250.3z M180.1,351.7l-21,12.1
		c-0.8,0.5-1.5,0.1-1.8-0.1c-0.3-0.2-0.8-0.8-0.6-1.7l3-11.4l14.9,0c1.7,0,3.4-0.3,5-0.7C179.8,350.5,179.9,351.1,180.1,351.7z
		 M193.5,299.2l-47,0c2.9-1.5,6.2-2.3,9.5-2.3l39.6,0C195,297.7,194.2,298.4,193.5,299.2z M185.9,310c-1,1.8-1.9,3.7-2.7,5.6
		c-2.6-1.3-5.5-2.1-8.6-2.1h-55.1c3.4-2.3,7.4-3.5,11.6-3.5L185.9,310z M174.7,324.3c2,0,3.8,0.8,5.2,2c-0.8,4-1.3,8.1-1.3,12.3
		c0,0.1,0,0.1,0,0.2c-1.2,0.7-2.5,1.1-3.9,1.1l-47.6,0c-3.8-5.3-7.4-10.5-10.8-15.6H174.7z M148.6,350.7l-2.3,8.6
		c-0.5,1.7-0.6,3.5-0.3,5.2c-3.8-4.6-7.4-9.2-10.9-13.7L148.6,350.7z M164.5,373.2l19-11c2.9,6.7,7,12.7,12,17.9l-23.6,13.6
		c-6.2-6.6-12.1-13.1-17.6-19.5C157.6,375.4,161.3,375,164.5,373.2z M283.8,259.3c-0.1,0.3-0.3,0.7-0.4,1c-0.3,0.6-0.5,1.3-0.8,2
		c0,0.1-0.1,0.2-0.1,0.3c-0.3,0.7-0.6,1.3-0.9,2.1c0,0,0,0.1-0.1,0.1c-0.3,0.6-0.5,1.2-0.8,1.9c0,0.1-0.1,0.2-0.1,0.4
		c-0.1,0.1-0.1,0.3-0.2,0.4c-0.1,0.3-0.2,0.6-0.4,0.9c-0.1,0.4-0.3,0.7-0.4,1.1c0,0.1-0.1,0.2-0.1,0.4c-0.4,0.9-0.8,1.9-1.1,2.8
		c-0.1,0.2-0.1,0.3-0.2,0.5c-0.2,0.5-0.4,1-0.6,1.5c0,0,0,0,0,0.1c-6.1,2-12.7,3.4-19.7,4.2L283.8,259.3z M306.2,258.1
		c-4.4,4-9.3,7.5-14.6,10.4c2.9-6.9,4.6-10.9,5.7-13.1L306.2,258.1z M194.3,268.5c-5.3-2.9-10.2-6.4-14.6-10.4l8.9-2.7
		C189.7,257.6,191.4,261.6,194.3,268.5z M168.3,261.5c8.9,9.3,19.5,16.4,31.7,21.2c0,0,0,0,0,0.1l0.1,0c3.3,1.3,6.7,2.4,10.2,3.3
		c-0.1,0-0.1,0.1-0.2,0.1l-54,0c-10.2,0-19.7,4.9-25.7,13.1c-9.3,0.3-17.4,4.2-23.2,10.8c-0.8-1.4-1.7-2.8-2.5-4.1l2.9-16.6
		c1.1-6.2,5.4-11.1,11.4-13l40.4-12.2L168.3,261.5z M179.6,401.8c3.7-2.2,8-4.6,13-7.6c3.6-2.1,7.5-4.3,11.6-6.7
		c8.7,6,19,9.8,30.1,10.5v53.8l-0.4-0.3C213.4,434.5,195.4,417.9,179.6,401.8z M244.3,450.3v-52.5c29.9-3.1,53.3-28.5,53.3-59.2
		c0-21.6-11.6-40.6-28.9-51c19.7-3.9,36.1-12.7,48.8-26.1l8.9,2.7l40.4,12.2c6,1.8,10.4,6.8,11.4,13l0.8,4.4
		C355.9,336.1,315.4,391.3,244.3,450.3z M406.5,223.5c0,0.1,0,0.1,0,0.2v0.1l-0.1,0.7c-0.1,0.5-0.3,1.7-0.8,3.7v0.2l-0.2,0.8
		c-2.6,11.7-6.5,23.2-11.6,34l0,0.1c-0.1,0.2-0.1,0.3-0.2,0.5l0,0c-2.1,5.1-4.6,10.4-7.3,16.1c-3.3-6.5-9.1-11.5-16.3-13.6
		l-43.7-13.2c-0.5-0.1-0.9-0.3-1.2-0.4c12.1-16.6,19.8-38.8,22.4-64.7c2.2-22,0.1-38.8,0-39.5c-0.2-1.5-1.1-2.8-2.3-3.6
		c-1.1-1-2.5-1.6-4-1.6h-8.2c-0.4-5.4-3.6-10.2-8.2-12.7V83.2c0,0,0,0,0,0v-5.9c0-23.3-18.9-42.2-42.2-42.2h-79.1
		c-23.3,0-42.2,18.9-42.2,42.2v53.2c-4.6,2.6-7.8,7.4-8.2,12.7h-8.2c-1.6,0-3,0.6-4,1.6c-1.2,0.8-2.1,2.1-2.3,3.6
		c-0.1,0.7-2.2,17.5,0,39.5c2.6,25.9,10.3,48,22.4,64.7c-0.4,0.1-0.8,0.2-1.2,0.4L116,266.1c-9.9,3-17.2,11.2-18.9,21.4l-0.6,3.7
		c-5.3-9.9-9.6-19.1-13.2-27.4l-0.1-0.2c-0.1-0.2-0.1-0.3-0.2-0.4l0-0.1c-4.9-10.7-8.8-22.1-11.6-34l-0.2-0.9
		c-0.4-1.6-0.6-2.8-0.7-3.5l-0.2-1c0-0.1,0-0.3-0.1-0.4c-2-10.6-3.1-21.4-3.1-32.1c0-94.4,76.8-171.2,171.2-171.2
		s171.2,76.8,171.2,171.2C409.6,202.1,408.6,213,406.5,223.5z"/>
	<path class="st2" d="M238.1,302.4c-19.9,0-36.2,16.2-36.2,36.2c0,19.9,16.2,36.2,36.2,36.2s36.2-16.2,36.2-36.2
		C274.3,318.7,258.1,302.4,238.1,302.4z M238.1,360.8c-12.2,0-22.2-9.9-22.2-22.2c0-12.2,9.9-22.2,22.2-22.2s22.2,9.9,22.2,22.2
		C260.3,350.8,250.3,360.8,238.1,360.8z"/>
</g>
</svg>
