<?xml version="1.0" encoding="utf-8"?>
<!-- Generator: Adobe Illustrator 21.0.0, SVG Export Plug-In . SVG Version: 6.00 Build 0)  -->
<svg version="1.1" id="Layer_1" xmlns="http://www.w3.org/2000/svg" xmlns:xlink="http://www.w3.org/1999/xlink" x="0px" y="0px"
	 viewBox="0 0 512 512" style="enable-background:new 0 0 512 512;" xml:space="preserve">
<style type="text/css">
	.st0{fill:url(#SVGID_1_);}
</style>
<linearGradient id="SVGID_1_" gradientUnits="userSpaceOnUse" x1="256.6082" y1="512.6083" x2="256.6082" y2="2.0952">
	<stop  offset="0" style="stop-color:#00506B"/>
	<stop  offset="1" style="stop-color:#00AD88"/>
</linearGradient>
<path class="st0" d="M503.3,315.2l-34.9-10.5c-5.3-17.3-19.1-31.2-36.8-36.4v-5.8c0.3-0.2,0.5-0.4,0.8-0.7c0.4-0.3,0.8-0.7,1.2-1h9
	c13.2,0,26-5.1,35.2-14.6c7-7.3,11.5-16.2,13-25.9c0.6-1.1,0.9-2.4,0.8-3.7l-0.2-4.8c0-0.7,0-1.4-0.1-2.1l-0.1-1.5l-4.5-91.7
	c0-0.1,0-0.3,0-0.4c-5.8-52.6-50.1-92.3-103.1-92.3h-4.3c-0.9,0-1.7,0.2-2.5,0.4c-0.8-0.3-1.6-0.4-2.5-0.4h-4.3
	c-53,0-97.4,39.7-103.1,92.3c0,0.1,0,0.3,0,0.4l-1.4,27.7c-2-3.7-5.1-6.9-8.8-8.9V69.2c0,0,0,0,0,0v-8.2c0-32.5-26.3-58.9-58.9-58.9
	H87.3c-32.5,0-58.9,26.3-58.9,58.9v74.2C21.6,139,17,146.4,17,154.5v11.4c0,12.2,9.9,22.2,22.2,22.2h4.7c2,13.9,9.7,34.1,24.2,52.6
	c1.6,2.1,3.4,4.2,5.4,6.4c-25.9,8.2-44.8,31.5-47.1,59l-18.6,5.6c-3.8,1.2-6.5,4.7-6.5,8.7v32.6v106.1v38.7v3.2
	c0,6.5,5.3,11.8,11.8,11.8h3.3h161.6h0h168.6h150.4h3.3c6.5,0,11.8-5.3,11.8-11.8v-3.3V326.8C512,321.5,508.5,316.7,503.3,315.2z
	 M479.7,390.1c0,9.1-7.4,16.5-16.5,16.5c-9.1,0-16.5-7.4-16.5-16.5c0-9.1,7.4-16.5,16.5-16.5C472.3,373.6,479.7,381,479.7,390.1z
	 M449,298.8c-3.9-0.8-7.9-0.2-11.3,1.6c-3.5-3.1-6.1-8.5-6.1-13.4v-2.7C438.7,287.4,444.7,292.5,449,298.8z M476.2,210.6
	c0.6,9.2-2.6,18-8.9,24.7c-5.1,5.5-11.7,8.9-19,10c8.3-10.2,16.4-23.8,18.7-39.2c3.1-0.2,6.1-1,8.7-2.3L476.2,210.6z M281.5,117.4
	c5.1-45,43-78.9,88.4-78.9h4.3c0.9,0,1.7-0.2,2.5-0.4c0.8,0.3,1.6,0.4,2.5,0.4h4.3c45.4,0,83.3,33.9,88.4,78.9l1.3,27.6
	c-2.2-0.5-5.5-0.9-7.3-0.9h-0.4c-2.2-3.4-5.9-5.7-10.2-6.1c-78.1-7-100.6-30.3-117-47.4c-3.4-3.5-9-3.8-16.6-0.8
	c-13.3,5.2-35.8,22.1-36.3,52.2c0,0,0,0.1,0,0.1v1.9c-1.4,0.1-3.8,0.5-5.2,0.9L281.5,117.4z M279.5,166.7c0-0.4,0-0.7,0.1-1
	c0-0.1,0-0.2,0.1-0.3c0.7-3.5,3.8-6.2,7.5-6.2h5.7c4.2,0,7.5-3.4,7.5-7.5v-9.3c0.5-25.5,22.1-37.4,29-39.2
	c22.1,22.5,49.2,43,123.4,49.8c0.6,3.5,3.7,6.2,7.4,6.2h5.7c3.7,0,6.8,2.7,7.5,6.2c0,0.1,0,0.2,0.1,0.3c0,0.3,0.1,0.7,0.1,1v16.8
	c0,4.2-3.4,7.6-7.6,7.6h-5.7c-4.1,0-7.4,3.3-7.5,7.4c-0.4,16.6-11.6,36-30.1,51.9c-13.9,12-24.6,19.9-46,20.1
	c-21.4-0.3-32.1-8.1-46-20.1c-18.5-15.9-29.7-35.3-30.1-51.9c-0.1-4.1-3.4-7.4-7.5-7.4h-5.7c-4.2,0-7.6-3.4-7.6-7.6V166.7z
	 M428.4,312.3l-5.8,11.5h-92.2l-5.8-11.5c7.1-5.9,11.9-15.6,11.9-25.3v-13c9.8,6.3,22.2,11.2,40,11.4h0.2c17.8-0.2,30.1-5.1,40-11.4
	v13C416.5,296.7,421.3,306.4,428.4,312.3z M277.2,203.8c2.7,1.3,5.6,2.1,8.7,2.3c2.3,15.4,10.4,29,18.7,39.2
	c-7.2-1.1-13.8-4.6-19-10c-5.6-5.9-8.7-13.5-8.9-21.5L277.2,203.8z M263.6,179.1l-0.5,9.9l-1.3,20.5c-0.1,2-0.1,4.1,0,6.1l0,0.8
	c0,0.9,0.1,1.8,0.4,2.7c1.3,9.8,5.6,19,12.6,26.4c9.2,9.8,21.6,15.2,35,15.2h9.7c0.4,0.4,0.8,0.7,1.2,1c0.3,0.2,0.5,0.4,0.8,0.7v7
	c-15.7,5.8-27.6,18.5-32.8,33.9l-19.3,5.8l-10.7-3.2c-1.3-14.9-7.4-28.9-17.5-40.1c-8.1-8.9-18.3-15.4-29.6-18.9
	c1.9-2.1,3.7-4.3,5.4-6.4c14.5-18.4,22.2-38.7,24.2-52.6h4.7C253.1,188.1,259.5,184.6,263.6,179.1z M321.4,286.2v0.9
	c0,4.9-2.6,10.3-6.1,13.4c-2.3-1.2-4.8-1.9-7.4-2C311.4,293.4,316,289.2,321.4,286.2z M151.3,373.4h-17.7l-8.4-9.7l17.2-7.3
	l17.2,7.3L151.3,373.4z M155.5,426.6c-5,13-9.4,24.8-12.9,33.9c-0.2-0.4-0.5-0.9-0.8-1.3c-3.4-8.9-7.7-20.2-12.4-32.7l7-38.2h12.1
	L155.5,426.6z M110,353.9C110,353.9,109.9,353.9,110,353.9l-7.4,3.2c-0.4-1.1-0.8-2.1-1.2-3.1c0,0,0-0.1,0-0.1
	c-0.4-1-0.8-1.9-1.1-2.8c-0.1-0.2-0.1-0.3-0.2-0.5c-0.4-0.9-0.7-1.8-1.1-2.7c0-0.1,0-0.1-0.1-0.2c-1.1-2.8-2.2-5.5-3.2-8
	c-0.1-0.2-0.1-0.4-0.2-0.6c-0.3-0.7-0.6-1.5-0.9-2.2c-0.1-0.3-0.2-0.5-0.3-0.8c-0.3-0.7-0.6-1.4-0.8-2.1c-0.1-0.2-0.2-0.4-0.2-0.6
	c-0.5-1.2-1-2.4-1.5-3.6c-0.1-0.3-0.3-0.6-0.4-0.9c-0.2-0.5-0.4-0.9-0.5-1.3c-0.2-0.5-0.4-1-0.6-1.4c-0.1-0.2-0.1-0.4-0.2-0.5
	c-0.1-0.1-0.1-0.3-0.2-0.4c-0.9-2.1-1.7-4.1-2.5-5.9c0,0,0,0,0,0c-0.4-1-0.8-2-1.2-2.9c-0.2-0.5-0.4-0.9-0.6-1.4l42.1,31.5
	L110,353.9z M122.2,383.1l-3,16.7c-1.5-3.8-3-7.7-4.5-11.5c-2.3-6-4.6-11.7-6.7-17.2l2.8-1.2L122.2,383.1z M191.5,302.3l-49,36.6
	l-49-36.6c4.9-6.2,7.6-14.1,7.6-21.2v-12.1c11.5,6.2,25.3,10.4,41.4,10.4c16.1,0,29.9-4.2,41.4-10.4v12.1
	C183.9,288.2,186.6,296.1,191.5,302.3z M157.4,346.4l42.1-31.5c-0.2,0.5-0.4,0.9-0.6,1.4c-0.4,0.9-0.8,1.8-1.1,2.7
	c-0.1,0.1-0.1,0.2-0.2,0.4c-0.4,0.9-0.8,1.9-1.2,2.9c0,0.1-0.1,0.1-0.1,0.2c-0.4,0.9-0.7,1.7-1.1,2.6c-0.1,0.2-0.1,0.3-0.2,0.5
	c-0.1,0.2-0.2,0.4-0.3,0.6c-0.2,0.4-0.3,0.8-0.5,1.2c-0.2,0.5-0.4,1-0.6,1.5c-0.1,0.2-0.1,0.3-0.2,0.5c-0.5,1.3-1.1,2.6-1.6,3.9
	c-0.1,0.2-0.2,0.4-0.3,0.6c-0.3,0.7-0.5,1.3-0.8,2c0,0,0,0,0,0c-5.9,5-10.1,11.7-12,19.4l-3.7-1.6c0,0-0.1,0-0.1,0L157.4,346.4z
	 M198.8,281.1v-21.8c22.4,3.3,39.8,20.2,44.1,41.9l-25.9-7.8c0,0,0,0,0,0c0,0,0,0,0,0c-4.3-1.3-9-1.1-13.1,0.5
	C200.9,290.7,198.8,285.8,198.8,281.1z M218.3,309.4l25.2,7.6l-32.8,9.9C214.5,317.8,216.8,312.5,218.3,309.4z M241.6,153.7
	c4-1,7.2-1,7.2-1c1.3,0,2.5-0.3,3.7-0.9c0.3,0.8,0.5,1.7,0.5,2.6v11.4c0,4-3.2,7.2-7.2,7.2h-4.2V153.7z M43.3,173.1h-4.2
	c-4,0-7.2-3.2-7.2-7.2v-11.4c0-0.9,0.2-1.8,0.5-2.6c1.1,0.6,2.4,0.9,3.7,0.9c0.1,0,3.2,0,7.2,1V173.1z M56.8,143
	c-0.8-0.4-1.6-0.8-2.4-1.2c-0.3-0.2-0.7-0.3-1.1-0.5c-3.6-1.5-7-2.4-9.9-2.9V60.9C43.4,36.7,63.1,17,87.3,17h110.3
	c24.2,0,43.9,19.7,43.9,43.9v11.8c0,0,0,0,0,0v65.8c-2.9,0.5-6.4,1.4-9.9,2.9c-0.4,0.1-0.7,0.3-1.1,0.5c-0.8,0.4-1.6,0.8-2.4,1.2
	V82.8c0-16.6-13.5-30.2-30.2-30.2h-20.6c-7.1,0-14.1,2.5-19.6,7l-2,1.7c-3.7,3-8.4,4.7-13.2,4.7c-4.8,0-9.5-1.7-13.2-4.7l-2-1.7
	c-5.5-4.5-12.5-7-19.6-7H87c-16.6,0-30.2,13.5-30.2,30.2V143z M58.3,181.5v-19.6c2.3,0.7,4.7,0.6,7-0.4c3.9-1.6,6.5-5.4,6.5-9.7v-69
	c0-8.4,6.8-15.2,15.2-15.2h20.6c3.7,0,7.3,1.3,10.1,3.6l2,1.7c6.4,5.2,14.4,8.1,22.7,8.1c8.2,0,16.3-2.9,22.7-8.1l2-1.7
	c2.8-2.3,6.4-3.6,10.1-3.6h20.6c8.4,0,15.2,6.8,15.2,15.2v69c0,4.2,2.5,8.1,6.5,9.7c1.3,0.5,2.7,0.8,4,0.8c1,0,2-0.1,3-0.4v19.6
	c0,10.9-7.5,32.1-21.5,49.9c-4.6,5.9-10.6,12.2-17.9,17.8c-0.2,0.2-0.5,0.3-0.7,0.5c-11.4,8.4-26,14.8-44.1,14.8
	s-32.7-6.4-44.1-14.8c-0.2-0.2-0.4-0.3-0.7-0.5c-7.3-5.5-13.3-11.9-17.9-17.8C65.8,213.6,58.3,192.4,58.3,181.5z M86.1,259.4v21.8
	c0,4.7-2.1,9.5-5.1,12.8c-4-1.5-8.4-1.8-12.6-0.6c-0.2,0-0.4,0.1-0.5,0.1l-25.8,7.8C46.4,279.8,63.9,262.7,86.1,259.4z M16.3,326.4
	c0-1,0.7-1.9,1.7-2.2l8.1-2.4v14.8c-3.4,0.6-6.7,1.7-9.7,3.2V326.4z M160.3,463.1l-4.1,23.8c-0.6,3.7-0.3,7.4,0.9,10.8H19.4
	c-1.7,0-3.1-1.4-3.1-3.1v-34h1.6c4,0,7.5-3,7.7-7c0.3-4.4-3.2-8-7.5-8h-1.9v-87.8c4.2-4.3,10.1-7,16.5-7l1.2,0c0.1,0,0.1,0,0.2,0
	c9.2,0,17.4,5.2,20.9,13.4c1,2.3,1.6,4.7,1.7,7.2l5.4,69.9c0.1,1.1-0.3,2.2-1.1,3.1c-0.8,0.8-1.8,1.3-3,1.3h-9.1c-4,0-7.5,3-7.7,7
	c-0.3,4.4,3.2,8,7.5,8h9.3c5.3,0,10.4-2.2,13.9-6.1c3.6-3.9,5.4-9.1,5-14.4l-5.4-69.9c-0.3-4.1-1.3-8.1-2.9-11.8
	c-4.9-11.6-15.5-19.7-27.9-21.9v-19.2l25.7-7.8c2.3,4.9,7,15.6,16.1,38.5c9.3,23.1,20.7,52.8,31.8,81.7c0.1,0.2,0.2,0.5,0.3,0.7
	c7.3,19.2,14.4,38,20.5,54.2c1,2.5,3.1,4.5,5.8,4.9c3.6,0.6,7-1.4,8.3-4.7c3.7-10,7.9-20.9,12.2-32.3l-1.4,8.1
	C160.1,461.4,160.1,462.2,160.3,463.1z M165.8,399.7l-3-16.7l11.4-13.3l1.9,0.8l-0.8,4.7c-1.6,4.1-3.3,8.4-5,12.9
	C168.8,392,167.3,395.9,165.8,399.7z M368.9,497.6h-1.2h-20H239.8l10.2-59.6l1.7-9.8c0.3-1.8-0.1-3.6-0.9-5.1
	c-1.1-1.8-2.9-3.2-5.2-3.6c-1.8-0.3-3.6,0.1-5.1,0.9c-1.9,1.1-3.2,2.9-3.6,5.2l-1.5,8.9l-10.8,63.1h-46.6c-2.8,0-4.6-1.6-5.3-2.5
	c-0.8-0.9-2-2.9-1.5-5.7l7.7-44.8c0.1-0.8,0.1-1.5,0-2.3l11.2-63.4l3.1-18.2c1.1-6.3,4.7-11.7,10-14.9c1.6-1,3.4-1.9,5.4-2.4
	l35.6-10.7l15-4.5l10.6-3.2l16.3-4.9c0,0.3,0,0.5,0,0.8v9.1v9.7c-11.4,2.8-20.5,11.8-22.8,22.9c-0.2,1-0.4,1.9-0.5,2.9l-1,12.5
	l-3.4,42.6c-0.1,0.5-0.1,1.1-0.1,1.6c0,3.9,1.5,7.6,4.1,10.5c1,1.1,2.1,2,3.3,2.7c2.5,1.6,5.5,2.5,8.5,2.5h8.1
	c4.2,0,7.6-3.4,7.6-7.6c0-4.1-3.3-7.5-7.3-7.6c-0.1,0-0.2,0-0.3,0h-8.1c-0.1,0-0.3,0-0.4-0.2c-0.2-0.2-0.2-0.4-0.2-0.5l1.5-18.7
	l0.3-4.1l2.3-28.5l0.3-3.9c0.8-7.1,8-13.1,15.7-13.1c7.8,0,15,6,15.7,13.1l4.4,55l0,0.2c0,0.1,0,0.3-0.2,0.5
	c-0.2,0.2-0.4,0.2-0.4,0.2h-8.1c-4.2,0-7.6,3.4-7.6,7.6s3.4,7.6,7.6,7.6h8.1c4.5,0,8.8-1.9,11.8-5.2c3-3.3,4.4-7.7,4-12.1l-4.4-55
	l0-0.2c-1.3-12.5-10.9-22.8-23.3-25.9v-5.1v-13.7c0-0.6,0-1.3,0.1-1.9c0.1-1.2,0.2-2.4,0.3-3.6l5.6-1.7c0.6-0.2,1.3,0.1,1.6,0.7
	c0,0,0,0,0,0l4.1,8.1l10.4,20.6l8.5,16.8l22.9,45.2l1.2,2.3c1.2,2.4,2.9,4.6,4.8,6.4c2.4,2.2,5.2,3.9,8.3,5V497.6z M383.3,401.3
	c-0.1,0.1-0.1,0.2-0.1,0.2c-0.1,0.1-0.2,0.3-0.3,0.4c-0.4,0.5-0.8,0.9-1.2,1.3c-0.1,0.1-0.2,0.1-0.3,0.2c-1.4,1-3,1.6-4.9,1.6
	c-3.1,0-5.8-1.7-7.3-4.5L346,354.7l-8-15.9h1.6H415l-30.3,59.9l-0.9,1.9C383.6,400.8,383.4,401.1,383.3,401.3z M496.9,494.5
	c0,1.7-1.4,3.1-3.1,3.1H384.1v-78.8c1.1-0.4,2.1-0.8,3.2-1.4c4.2-2.2,7.7-5.7,9.9-10.1l47.1-93.1c0.3-0.6,1-0.9,1.6-0.7l9.4,2.8
	c0.2,1.4,0.2,2.9,0.2,4.3v38.6c-14.4,3.6-25,17.1-24.1,32.8c1,15.7,13.6,28.5,29.3,29.7c18.5,1.3,34.1-13.4,34.1-31.7
	c0-14.9-10.3-27.4-24.1-30.8v-38.2l24.1,7.3c1.2,0.3,1.9,1.4,1.9,2.6V494.5z"/>
</svg>
