<?xml version="1.0" ?><svg id="Layer_1" style="enable-background:new 0 0 512 512;" version="1.1" viewBox="0 0 512 512" xml:space="preserve" xmlns="http://www.w3.org/2000/svg" xmlns:xlink="http://www.w3.org/1999/xlink"><style type="text/css">
	.st0{fill:#FFFFFF;}
	.st1{fill:#224084;}
	.st2{fill:#BD1F34;}
	.st3{fill:#010101;}
	.st4{clip-path:url(#XMLID_3_);fill:#224084;}
	.st5{clip-path:url(#XMLID_384_);fill:#224084;}
	.st6{clip-path:url(#XMLID_385_);fill:#224084;}
	.st7{clip-path:url(#XMLID_386_);fill:#224084;}
	.st8{clip-path:url(#XMLID_387_);fill:#224084;}
	.st9{clip-path:url(#XMLID_388_);fill:#224084;}
	.st10{clip-path:url(#XMLID_389_);fill:#224084;}
	.st11{fill:#F6CD2A;}
	.st12{fill:#272116;}
	.st13{fill:#999396;}
	.st14{fill:#367D64;}
	.st15{fill:#26411C;}
	.st16{fill:#26431D;}
	.st17{fill:none;}
	.st18{fill:#C01F3F;}
	.st19{clip-path:url(#XMLID_390_);fill:#BD1F34;}
	.st20{clip-path:url(#XMLID_391_);fill:#BD1F34;}
	.st21{clip-path:url(#XMLID_392_);fill:#BD1F34;}
	.st22{clip-path:url(#XMLID_393_);fill:#BD1F34;}
	.st23{clip-path:url(#XMLID_394_);fill:#BD1F34;}
</style><g id="XMLID_1_"><rect class="st0" height="298.7" id="XMLID_383_" width="512" y="106.7"/><rect class="st1" height="114.7" id="XMLID_382_" width="219.4" y="106.7"/><rect class="st2" height="115.2" id="XMLID_381_" width="219.4" y="290.1"/><rect class="st1" height="115.2" id="XMLID_380_" width="219.4" x="292.6" y="290.1"/><rect class="st2" height="114.7" id="XMLID_379_" width="219.4" x="292.6" y="106.7"/><g><path class="st3" d="M291.2,233.7c-0.1-2.4-1.5-3.2-1.6-3.2c0.3-0.4,2,0.5,2.1,3.2L291.2,233.7L291.2,233.7z" id="XMLID_378_"/></g><g><path class="st3" d="M290.4,233.9c-0.1-2.4-1.5-3.2-1.5-3.2c0.3-0.4,1.9,0.5,2.1,3.2L290.4,233.9L290.4,233.9z" id="XMLID_377_"/></g><g><path class="st3" d="M289.5,234c-0.1-2.4-1.5-3.2-1.6-3.2c0.3-0.4,1.9,0.5,2.1,3.2L289.5,234L289.5,234z" id="XMLID_376_"/></g><g><path class="st3" d="M288.8,234.3c-0.1-2.4-1.5-3.2-1.6-3.2c0.3-0.4,1.9,0.5,2.1,3.2L288.8,234.3L288.8,234.3z" id="XMLID_375_"/></g><g><path class="st3" d="M287.9,234.6c-0.1-2.4-1.5-3.2-1.6-3.2c0.3-0.4,1.9,0.5,2.1,3.2L287.9,234.6L287.9,234.6z" id="XMLID_374_"/></g><g><path class="st3" d="M287.1,235c-0.1-2.4-1.5-3.2-1.6-3.2c0.3-0.4,2,0.5,2.1,3.2L287.1,235L287.1,235z" id="XMLID_373_"/></g><g><g><defs><rect height="13.1" id="XMLID_371_" width="11.8" x="278.5" y="218.7"/></defs><clipPath id="XMLID_3_"><use style="overflow:visible;" xlink:href="#XMLID_371_"/></clipPath><path class="st4" d="M290.3,230.4c-2.9-7.8-4.1-8.9-4.6-9.5c-0.5-0.6-5.7-2.2-5.7-2.2l-1.5,3.3     c0,0,4.4,2.2,5.4,4.2c0.9,2,1.6,5.7,1.6,5.7s2-0.8,2.6-1.1C288.8,230.4,290.3,230.6,290.3,230.4L290.3,230.4z" id="XMLID_372_"/></g></g><g><path class="st3" d="M285.3,232.1l-0.1-0.3c0,0-0.7-3.7-1.6-5.6c-0.9-1.9-5.2-4-5.3-4.1l1.3-3.6c1.2,0.1,5.6,1.6,6.2,2.2    c0.7,0.7,1.9,2.1,4.7,9.6c0,0.4-0.3,0.4-0.9,0.4c-0.4,0-1,0-1.4,0.1c-0.7,0.2-2.6,1.1-2.6,1.1L285.3,232.1L285.3,232.1z     M278.8,222c0.5,0,4.4,2,5.3,4c0.8,1.7,1.4,4.5,1.6,5.4c0.6-0.2,1.8-0.8,2.4-1c0.4-0.2,1-0.2,1.5-0.2c-2.3-7.2-3.5-8.5-4-9.1    c-0.4-0.4-3.2-1.5-5.7-2.3L278.8,222C278.7,222,278.7,222,278.8,222L278.8,222z"/></g><g><g><defs><rect height="8.4" id="XMLID_367_" width="13.2" x="274.8" y="216.4"/></defs><clipPath id="XMLID_384_"><use style="overflow:visible;" xlink:href="#XMLID_367_"/></clipPath><path class="st5" d="M288,224.8c-4.6-1.9-6.1-0.9-7.7-1.3c-1.6-0.4-5.1-1.3-5.5-2.2c-0.3-0.8,3-4.9,3-4.9     l2.3,2.4c1.5,1.6,5.2,0.2,6.4,2.9L288,224.8z" id="XMLID_368_"/></g></g><g><path class="st3" d="M288,225.2c0,0-0.1,0-0.1,0c-2.6-1.1-4.1-1.2-5.3-1.2l-0.6,0c-0.9,0-1.3,0-1.7-0.1c-3.7-0.9-5.4-1.6-5.7-2.3    c-0.4-0.9,2-4,3-5.3l2.8,2.4c0.6,0.6,1.5,0.7,2.5,0.8c1.5,0.2,3.2,0.4,4,2.2l1.4,3c0.1,0.1,0,0.3-0.1,0.4    C288.1,225.1,288.1,225.2,288,225.2L288,225.2z M282.5,223.3c1.1,0,2.6,0.1,4.8,1l-1.1-2.3c-0.7-1.4-2-1.6-3.5-1.8    c-1.1-0.1-2.2-0.3-2.9-1l-2.3-2.4c-1,1.8-2.6,4.1-2.5,4.6c0.1,0.3,0.9,0.9,5.3,2c0.4,0.1,0.7,0.1,1,0.1L282.5,223.3L282.5,223.3z"/></g><g><path class="st3" d="M282.5,223.5c-0.9,0-2.3-0.7-4.2-1.5c-0.8-0.4-1.6-0.7-1.9-0.8c-1.1-0.3-1.5,0.2-1.5,0.2    c-0.4-0.3,0.2-1.2,1.7-0.7c0.4,0.1,1.1,0.4,2,0.9c1.3,0.6,3.9,1.8,4.2,1.4l0.4,0.3C283.1,223.4,282.8,223.5,282.5,223.5    L282.5,223.5z" id="XMLID_364_"/></g><g><g><defs><rect height="9.7" id="XMLID_362_" width="23.4" x="260.9" y="213.5"/></defs><clipPath id="XMLID_385_"><use style="overflow:visible;" xlink:href="#XMLID_362_"/></clipPath><path class="st6" d="M262.2,213.7c0.3,0,6.9-0.7,12.7,0.4c5.9,1,9.4,3.2,9.4,4.5c0.1,2.6-1.2,4.7-1.4,4.6     c-0.2-0.1,0-1.2-1.5-1.6c-1.5-0.4-8.2-2.6-10-2.7c-1.8-0.1-7,0.2-7.8,0.1c-0.8-0.1-2.7-0.5-2.7-1.4     C260.9,216.7,262.1,213.8,262.2,213.7L262.2,213.7z" id="XMLID_363_"/></g></g><g><path class="st3" d="M282.8,223.4l-0.2-0.4c-0.1-0.3-0.2-0.9-1.2-1.2l-1.4-0.4c-2.5-0.8-7.1-2.2-8.5-2.2l-1,0c-1,0-2.3,0-3.6,0.1    c-1,0-2,0-2.6,0l-0.6,0c-0.1,0-3-0.3-3-1.7c0-1,1.3-4,1.3-4c1.3-0.2,3-0.3,5.3-0.3c2.9,0,5.5,0.2,7.7,0.6c6,1,9.6,3.2,9.6,4.7    c0.1,2.3-0.9,4.3-1.3,4.7L282.8,223.4L282.8,223.4z M270.5,218.6l1,0c1.5,0.1,6.1,1.5,8.7,2.3l1.4,0.4c1,0.3,1.4,0.9,1.5,1.3    c0.4-0.6,1.1-2.2,1-4.1c0-1.1-3.3-3.2-9.2-4.3c-2.2-0.4-4.7-0.6-7.6-0.6c-2.2,0-4,0.1-4.7,0.2c-0.3,0.1-1.4,2.9-1.4,3.7    c0,0.6,1.5,1.1,2.5,1.2c1.2,0,2.2,0,3.2,0C268.1,218.7,269.5,218.6,270.5,218.6L270.5,218.6z"/></g><g><path class="st3" d="M265.3,218.3c-0.1,0-0.2,0-0.3,0c-0.6,0-1-0.2-1.4-0.4c-0.4-0.2-0.8-0.4-1.3-0.3    c-0.8,0.1-0.9,0.5-0.9,0.6c-0.5-0.1-0.3-0.9,0.8-1.1c0.6-0.1,1.1,0.2,1.6,0.4c0.4,0.2,0.7,0.3,1.2,0.4l0.7,0.1l-0.1-0.5l0.4-0.1    l0.1,0.1l-0.3,0.7C265.8,218.2,265.6,218.3,265.3,218.3L265.3,218.3z" id="XMLID_359_"/></g><g><path class="st3" d="M220.9,233.6l-0.5,0c0.1-2.7,1.8-3.6,1.8-3.6C222.4,230.4,221,231.2,220.9,233.6L220.9,233.6    z" id="XMLID_358_"/></g><g><path class="st3" d="M221.7,233.8l-0.5,0c0.1-2.7,1.8-3.6,1.8-3.6C223.2,230.6,221.8,231.4,221.7,233.8    L221.7,233.8z" id="XMLID_357_"/></g><g><path class="st3" d="M222.5,233.9l-0.5,0c0.1-2.7,1.8-3.6,1.8-3.6C224,230.7,222.6,231.5,222.5,233.9L222.5,233.9    z" id="XMLID_356_"/></g><g><path class="st3" d="M223.3,234.2l-0.5,0c0.1-2.7,1.8-3.6,1.8-3.6C224.8,231,223.4,231.8,223.3,234.2L223.3,234.2    z" id="XMLID_355_"/></g><g><path class="st3" d="M224.2,234.5l-0.5,0c0.1-2.7,1.8-3.6,1.8-3.6C225.7,231.3,224.3,232.1,224.2,234.5    L224.2,234.5z" id="XMLID_354_"/></g><g><path class="st3" d="M225,234.9l-0.5,0c0.1-2.7,1.8-3.6,1.8-3.6C226.5,231.7,225.1,232.5,225,234.9L225,234.9z" id="XMLID_353_"/></g><g><g><defs><rect height="13.1" id="XMLID_351_" width="11.8" x="221.8" y="218.5"/></defs><clipPath id="XMLID_386_"><use style="overflow:visible;" xlink:href="#XMLID_351_"/></clipPath><path class="st7" d="M221.8,230.3c2.9-7.8,4.1-8.9,4.6-9.5c0.5-0.6,5.7-2.3,5.7-2.3l1.5,3.3c0,0-4.4,2.2-5.4,4.2     c-0.9,2-1.6,5.7-1.6,5.7s-2-0.8-2.6-1.1C223.3,230.3,221.8,230.5,221.8,230.3L221.8,230.3z" id="XMLID_352_"/></g></g><g><path class="st3" d="M226.8,232l-0.3-0.1c0,0-2-0.8-2.6-1.1c-0.3-0.1-0.9-0.1-1.4-0.1c-0.6,0-0.9,0-0.9-0.3c2.8-7.6,4-8.9,4.6-9.6    c0.6-0.7,5-2.1,5.9-2.4l1.8,3.4c-0.2,0.4-4.5,2.5-5.4,4.4c-0.9,1.9-1.6,5.6-1.6,5.6L226.8,232L226.8,232z M223.3,230.2    c0.3,0,0.5,0,0.7,0.1c0.5,0.2,1.8,0.7,2.4,1c0.2-0.9,0.8-3.7,1.6-5.4c1-2.1,5.3-4.2,5.5-4.3l-1.6-2.9c-2.2,0.9-5,2-5.3,2.3    c-0.6,0.7-1.8,2-4.6,9.4C222.6,230.3,223,230.2,223.3,230.2L223.3,230.2z"/></g><g><g><defs><rect height="8.4" id="XMLID_347_" width="13.2" x="224.1" y="216.3"/></defs><clipPath id="XMLID_387_"><use style="overflow:visible;" xlink:href="#XMLID_347_"/></clipPath><path class="st8" d="M224.1,224.7c4.6-1.9,6.1-0.9,7.7-1.3c1.6-0.4,5.1-1.3,5.5-2.2c0.3-0.8-3-4.9-3-4.9     l-2.3,2.4c-1.5,1.6-5.2,0.2-6.4,2.9L224.1,224.7z" id="XMLID_348_"/></g></g><g><path class="st3" d="M224.1,225c-0.1,0-0.2,0-0.2-0.1c-0.1-0.1-0.1-0.2-0.1-0.4l1.4-3c0.8-1.8,2.5-2,4-2.2c1-0.1,2-0.3,2.5-0.8    l2.3-2.4c1.5,1.3,3.9,4.4,3.5,5.3c-0.3,0.7-1.9,1.4-5.7,2.4c-0.4,0.1-0.8,0.1-1.2,0.1l-1.2,0c-1.2,0-2.7,0.1-5.3,1.2    C224.2,225,224.1,225,224.1,225L224.1,225z M234,216.5l-1.9,2.5c-0.7,0.8-1.8,0.9-2.9,1c-1.4,0.2-2.8,0.4-3.5,1.8l-1.1,2.3    c2.2-0.8,3.7-1,4.8-1l0.6,0c0.8,0,1.2,0,1.5-0.1c4.1-1.1,5.1-1.7,5.3-2C237.1,220.7,235.6,218.4,234,216.5L234,216.5z"/></g><g><path class="st3" d="M229.6,223.4c-0.3,0-0.6-0.1-0.7-0.3l0.4-0.3c0.3,0.5,3-0.8,4.2-1.4c0.9-0.4,1.6-0.8,2-0.9    c1.5-0.4,2,0.4,2.1,0.4c-0.3,0.2-0.6,0-1.2,0c-0.2,0-0.4,0-0.7,0.1c-0.4,0.1-1.1,0.4-1.9,0.8C231.9,222.7,230.4,223.4,229.6,223.4    L229.6,223.4z" id="XMLID_344_"/></g><g><g><defs><rect height="9.7" id="XMLID_342_" width="23.4" x="227.8" y="213.3"/></defs><clipPath id="XMLID_388_"><use style="overflow:visible;" xlink:href="#XMLID_342_"/></clipPath><path class="st9" d="M249.9,213.5c-0.3,0-6.9-0.7-12.7,0.4c-5.9,1-9.4,3.2-9.4,4.5c-0.1,2.6,1.2,4.7,1.4,4.6     c0.2-0.1,0-1.2,1.5-1.6c1.5-0.4,8.2-2.6,10-2.7c1.8-0.1,7,0.2,7.8,0.1c0.8-0.1,2.7-0.5,2.7-1.4     C251.1,216.5,249.9,213.7,249.9,213.5L249.9,213.5z" id="XMLID_343_"/></g></g><g><path class="st3" d="M229.1,223.3l-0.3-0.1c-0.4-0.4-1.4-2.4-1.3-4.7c0.1-1.5,3.7-3.7,9.6-4.7c2.2-0.4,4.8-0.6,7.6-0.6    c2.2,0,4,0.1,4.8,0.2c0.6,0.3,1.9,3.2,1.9,4.2c0,1.3-2.8,1.7-3,1.7l-0.6,0c-0.6,0-1.6,0-2.6,0c-1.2,0-2.6-0.1-3.6-0.1l-1,0    c-1.4,0.1-6.3,1.6-8.7,2.3l-1.3,0.4c-1,0.3-1.1,0.8-1.2,1.2L229.1,223.3L229.1,223.3z M244.8,213.6c-2.8,0-5.4,0.2-7.5,0.6    c-5.9,1-9.2,3.1-9.2,4.3c-0.1,1.9,0.6,3.5,1,4.1c0.2-0.5,0.5-1.1,1.5-1.3l1.3-0.4c2.6-0.8,7.3-2.2,8.8-2.3l1,0c1,0,2.3,0,3.6,0.1    c1,0,2,0,2.6,0c1.6-0.1,3.1-0.6,3.1-1.2c0-0.8-1.1-3.6-1.3-3.8C248.8,213.7,247,213.6,244.8,213.6L244.8,213.6z"/></g><g><path class="st3" d="M246.8,218.2c-0.8,0-0.9-0.6-0.9-0.8l0.5-0.3l0,0.2c0,0.3,0.1,0.4,0.7,0.4    c0.5,0,0.9-0.2,1.2-0.4c0.5-0.2,0.9-0.5,1.5-0.4c1.1,0.1,1.3,0.9,1.3,0.9c-0.5,0.1-0.6-0.4-1.4-0.4c-0.5,0-0.9,0.1-1.3,0.3    c-0.4,0.2-0.8,0.4-1.4,0.4C247,218.1,246.9,218.2,246.8,218.2L246.8,218.2z" id="XMLID_339_"/></g><g><g><defs><rect height="7.7" id="XMLID_337_" width="22" x="245.1" y="209.6"/></defs><clipPath id="XMLID_389_"><use style="overflow:visible;" xlink:href="#XMLID_337_"/></clipPath><path class="st10" d="M255.8,209.6c-8.1,0.1-10.3,1.3-10.7,2.7c-0.4,1.3,0.9,5,0.9,5s1.4-2.6,9.8-2.5     c8.5,0.1,10.1,2.3,10.1,2.3s1.1-3.7,1-4.9C267,211,263.5,209.6,255.8,209.6L255.8,209.6z" id="XMLID_338_"/></g></g><g><path class="st3" d="M246,217.9l-0.2-0.5c-0.1-0.2-1.3-3.8-0.9-5.2c0.3-1.3,1.9-2.7,10.9-2.9c6.9,0,11.4,1.1,11.5,2.8    c0.1,1.3-1,4.9-1,5c0,0,0,0,0,0c-0.5,0-2.3-2.1-10.4-2.1c0,0,0,0,0,0c-8.2,0-9.6,2.3-9.6,2.4L246,217.9L246,217.9z M255.5,214.5    c7.9,0.1,10.2,1.9,10.6,2.3c-0.1-0.6,0.7-3.6,0.6-4.6c-0.1-0.9-3-2.3-10.8-2.3c-6.8,0.1-10.2,0.9-10.6,2.5    c-0.2,0.9,0.4,3.2,0.8,4.4C246.9,216,249.2,214.5,255.5,214.5L255.5,214.5z"/></g><polygon class="st11" id="XMLID_334_" points="267.1,217.7 267.4,214.3 267.8,214.4 267.5,217.3 268.7,217.4 268.7,217.8  "/><polygon class="st11" id="XMLID_333_" points="269.1,217.9 269.5,214.5 269.8,214.5 269.5,217.9  "/><polygon class="st11" id="XMLID_332_" points="272.3,218.1 272.8,214.7 274.6,215 274.6,215.4 273.1,215.2 272.9,216.2    274.3,216.4 274.2,216.8 272.9,216.6 272.7,217.8 274.2,218 274.1,218.4  "/><polygon class="st11" id="XMLID_331_" points="277.5,219.3 278.5,216.5 277.8,216.3 277.9,215.9 279.8,216.5 279.6,216.9    278.9,216.6 277.8,219.4  "/><path class="st11" d="M270.4,217.6l0.6,0.1c0.1,0,0.2,0,0.2,0c0.1,0,0.1,0,0.2-0.1c0,0,0.1-0.1,0.1-0.2c0-0.1,0.1-0.2,0.1-0.3   c0-0.1,0-0.2,0-0.3c0-0.1-0.1-0.2-0.2-0.2c-0.1,0-0.2-0.1-0.4-0.1l-0.6,0L270.4,217.6z M270.6,216l0.5,0c0.1,0,0.3,0,0.3,0   c0.1,0,0.2-0.1,0.2-0.2c0.1-0.1,0.1-0.2,0.1-0.3c0-0.1,0-0.2,0-0.3c0-0.1-0.1-0.2-0.1-0.2c-0.1,0-0.2-0.1-0.4-0.1l-0.5,0L270.6,216   z M270,218l0.3-3.4l0.9,0.1c0.2,0,0.3,0.1,0.5,0.1c0.1,0.1,0.2,0.2,0.2,0.3c0,0.2,0.1,0.3,0.1,0.5c0,0.1-0.1,0.3-0.1,0.4   c-0.1,0.1-0.2,0.2-0.3,0.3c0.1,0.1,0.3,0.2,0.3,0.3c0.1,0.2,0.1,0.3,0.1,0.5c0,0.2-0.1,0.3-0.1,0.4c-0.1,0.1-0.1,0.2-0.2,0.3   c-0.1,0.1-0.2,0.1-0.3,0.1c-0.1,0-0.2,0-0.4,0L270,218z"/><path class="st11" d="M275.5,216.7l0.7,0.2c0.1,0,0.3,0,0.4,0c0.1,0,0.2-0.1,0.2-0.1c0.1-0.1,0.1-0.2,0.2-0.3c0-0.2,0-0.3,0-0.4   c-0.1-0.1-0.2-0.2-0.4-0.3l-0.8-0.2L275.5,216.7z M274.6,218.5l0.9-3.3l1.1,0.3c0.2,0.1,0.4,0.1,0.5,0.2c0.1,0.1,0.2,0.2,0.2,0.4   c0,0.2,0,0.3,0,0.5c-0.1,0.2-0.2,0.4-0.3,0.5c-0.2,0.1-0.4,0.2-0.6,0.2c0.1,0.1,0.1,0.2,0.1,0.2c0.1,0.1,0.1,0.3,0.1,0.5l0.2,1   l-0.4-0.1l-0.1-0.8c0-0.2-0.1-0.4-0.1-0.5c0-0.1-0.1-0.2-0.1-0.3c0-0.1-0.1-0.1-0.1-0.1c0,0-0.1,0-0.2-0.1l-0.4-0.1l-0.4,1.4   L274.6,218.5z"/><path class="st11" d="M281.4,220.5l0.5,0.2c0.2,0.1,0.3,0.1,0.4,0.1c0.1,0,0.2,0,0.3-0.1c0.1-0.1,0.2-0.2,0.3-0.3   c0.1-0.2,0.2-0.3,0.3-0.6c0.1-0.3,0.2-0.6,0.2-0.8c0-0.2-0.1-0.4-0.2-0.5c-0.1-0.1-0.2-0.1-0.4-0.2l-0.5-0.2L281.4,220.5z    M281,220.8l1.2-3.2l0.8,0.3c0.2,0.1,0.3,0.1,0.4,0.2c0.1,0.1,0.2,0.2,0.3,0.3c0.1,0.2,0.1,0.4,0.1,0.6c0,0.2-0.1,0.5-0.2,0.8   c-0.1,0.2-0.2,0.5-0.3,0.6c-0.1,0.2-0.2,0.3-0.3,0.4c-0.1,0.1-0.2,0.2-0.3,0.2c-0.1,0-0.2,0.1-0.3,0.1c-0.1,0-0.3,0-0.4-0.1   L281,220.8z"/><path class="st11" d="M279.7,218.7l0.8,0.3l0.1-1c0-0.3,0-0.5,0.1-0.7c-0.1,0.2-0.2,0.4-0.3,0.6L279.7,218.7z M278.5,219.7l2.1-2.9   l0.3,0.1l-0.2,3.5l-0.3-0.1l0.1-1.1l-1-0.3l-0.6,0.9L278.5,219.7z"/><polygon class="st11" id="XMLID_321_" points="255,214.1 255,211.1 254,211.1 254,210.7 256.3,210.7 256.3,211.1 255.3,211.1    255.3,214.1  "/><polygon class="st11" id="XMLID_320_" points="259.6,214.1 259.8,210.7 260.1,210.8 260,214.1  "/><path class="st11" d="M249.3,212.8l0.7-0.1c0.2,0,0.4-0.1,0.5-0.2c0.1-0.1,0.1-0.3,0.1-0.5c0-0.1-0.1-0.3-0.2-0.3   c-0.1-0.1-0.2-0.1-0.3-0.2c-0.1,0-0.2,0-0.3,0l-0.7,0.1L249.3,212.8z M249.3,214.6l-0.6-3.3l1-0.2c0.2,0,0.3,0,0.4,0   c0.1,0,0.3,0,0.4,0.1c0.1,0.1,0.2,0.2,0.3,0.3c0.1,0.1,0.1,0.3,0.2,0.4c0,0.3,0,0.5-0.1,0.8c-0.1,0.2-0.4,0.4-0.8,0.4l-0.7,0.1   l0.3,1.4L249.3,214.6z"/><path class="st11" d="M252.1,212.7l0.9-0.1l-0.4-0.9c-0.1-0.3-0.2-0.5-0.3-0.7c0,0.2-0.1,0.4-0.1,0.7L252.1,212.7z M251.4,214.1   l0.8-3.5l0.4,0l1.4,3.3l-0.4,0l-0.4-1l-1.2,0.1l-0.2,1L251.4,214.1z"/><path class="st11" d="M257,212.2h0.8c0.2,0,0.3,0,0.4-0.1c0.1,0,0.2-0.1,0.2-0.2c0-0.1,0.1-0.2,0.1-0.3c0-0.2,0-0.3-0.1-0.4   c-0.1-0.1-0.2-0.2-0.5-0.2H257V212.2z M256.6,214.1v-3.4h1.2c0.3,0,0.4,0,0.6,0.1c0.1,0.1,0.2,0.2,0.3,0.3c0.1,0.2,0.1,0.3,0.1,0.5   c0,0.2-0.1,0.4-0.2,0.6c-0.1,0.2-0.3,0.3-0.6,0.3c0.1,0.1,0.2,0.1,0.2,0.2c0.1,0.1,0.2,0.3,0.3,0.5l0.5,0.9h-0.5l-0.4-0.7   c-0.1-0.2-0.2-0.4-0.3-0.5c-0.1-0.1-0.1-0.2-0.2-0.2c-0.1,0-0.1-0.1-0.2-0.1c0,0-0.1,0-0.2,0H257v1.5H256.6z"/><path class="st11" d="M261.8,213l0.9,0.2l-0.1-1c0-0.3-0.1-0.5-0.1-0.7c-0.1,0.2-0.2,0.4-0.3,0.6L261.8,213z M260.7,214.2l1.7-3.1   l0.4,0.1l0.5,3.5l-0.4-0.1l-0.1-1.1l-1.2-0.2l-0.5,1L260.7,214.2z"/><rect class="st11" height="0.4" id="XMLID_311_" transform="matrix(0.1488 0.9889 -0.9889 0.1488 415.3114 -48.1994)" width="3.4" x="234" y="217"/><path class="st11" d="M239.6,217l0.4-0.1c0,0.2,0.1,0.3,0.1,0.4c0.1,0.1,0.2,0.2,0.3,0.2c0.1,0.1,0.3,0.1,0.4,0.1   c0.1,0,0.3,0,0.4-0.1c0.1-0.1,0.2-0.1,0.2-0.2c0-0.1,0.1-0.2,0.1-0.3c0-0.1,0-0.2-0.1-0.3c-0.1-0.1-0.2-0.1-0.3-0.2   c-0.1,0-0.3-0.1-0.5-0.1c-0.3-0.1-0.5-0.1-0.6-0.2c-0.1-0.1-0.3-0.2-0.3-0.3c-0.1-0.1-0.1-0.3-0.1-0.4c0-0.2,0-0.3,0.1-0.5   c0.1-0.2,0.2-0.3,0.3-0.4c0.1-0.1,0.3-0.1,0.5-0.2c0.2,0,0.4,0,0.6,0.1c0.2,0.1,0.3,0.2,0.4,0.3c0.1,0.1,0.2,0.3,0.2,0.5l-0.4,0.1   c0-0.2-0.1-0.4-0.2-0.5c-0.1-0.1-0.3-0.1-0.5-0.1c-0.2,0-0.4,0.1-0.5,0.2c-0.1,0.1-0.1,0.2-0.1,0.4c0,0.1,0.1,0.2,0.1,0.3   c0.1,0.1,0.3,0.1,0.6,0.2c0.3,0.1,0.5,0.1,0.6,0.2c0.2,0.1,0.3,0.2,0.4,0.3c0.1,0.1,0.1,0.3,0.2,0.5c0,0.2,0,0.3-0.1,0.5   c-0.1,0.2-0.2,0.3-0.3,0.4c-0.2,0.1-0.3,0.2-0.5,0.2c-0.3,0-0.5,0-0.6-0.1c-0.2-0.1-0.3-0.2-0.4-0.4   C239.7,217.4,239.7,217.2,239.6,217L239.6,217z" id="XMLID_310_"/><path class="st11" d="M236.4,216.8c-0.1-0.6,0-1,0.2-1.4c0.2-0.3,0.5-0.6,0.9-0.6c0.3,0,0.5,0,0.7,0.1c0.2,0.1,0.4,0.3,0.6,0.6   c0.1,0.2,0.3,0.5,0.3,0.9c0,0.3,0,0.7,0,0.9c-0.1,0.3-0.2,0.5-0.4,0.7c-0.2,0.2-0.4,0.3-0.7,0.3c-0.3,0-0.5,0-0.7-0.1   c-0.2-0.1-0.4-0.3-0.6-0.6C236.5,217.4,236.4,217.1,236.4,216.8L236.4,216.8z M236.8,216.8c0.1,0.4,0.2,0.7,0.4,0.9   c0.2,0.2,0.5,0.3,0.7,0.2c0.3,0,0.5-0.2,0.6-0.4c0.1-0.3,0.2-0.6,0.1-1c0-0.3-0.1-0.5-0.2-0.7c-0.1-0.2-0.2-0.3-0.4-0.4   c-0.2-0.1-0.3-0.1-0.5-0.1c-0.3,0-0.5,0.2-0.6,0.4C236.7,215.9,236.7,216.3,236.8,216.8L236.8,216.8z"/><path class="st11" d="M233.3,219.2l0.6-0.2c0.2-0.1,0.3-0.1,0.4-0.2c0.1-0.1,0.1-0.2,0.2-0.2c0.1-0.1,0.1-0.3,0.1-0.5   c0-0.2,0-0.4-0.1-0.6c-0.1-0.3-0.2-0.6-0.4-0.7c-0.1-0.2-0.3-0.2-0.5-0.3c-0.1,0-0.3,0-0.5,0.1l-0.6,0.2L233.3,219.2z M233,219.7   l-1.1-3.2l0.9-0.3c0.2-0.1,0.4-0.1,0.5-0.1c0.2,0,0.3,0,0.5,0.1c0.2,0.1,0.3,0.3,0.5,0.5c0.1,0.2,0.3,0.4,0.4,0.7   c0.1,0.2,0.1,0.5,0.1,0.7c0,0.2,0,0.4,0,0.5c0,0.1-0.1,0.3-0.2,0.4c-0.1,0.1-0.2,0.2-0.3,0.3c-0.1,0.1-0.3,0.1-0.4,0.2L233,219.7z"/><path class="st0" d="M232.5,225.5l4.3,4.2v33.5c0,2.6,2.9,5.6,5.7,5.6h7.2c4.3,0,6.5,3.5,6.5,3.5s2.1-3.6,6.4-3.5   l7.8,0.1c2.3,0,5.1-2.9,5.1-5.7v-33.5l4.3-4.2H232.5z" id="XMLID_305_"/><g><path class="st3" d="M256.2,272.8l-0.2-0.4c0,0-2.1-3.4-6.2-3.4h-7.2c-2.9,0-6-3-6-5.8v-33.5l-4.2-4l47.5-0.4l-4.1,4.6l0.1,33.4    c0,1.4-0.6,2.8-1.8,4.1c-1.1,1.2-2.4,1.9-3.6,1.9l0,0l-7.8-0.1h0c-4.1,0-6.2,3.3-6.2,3.4L256.2,272.8L256.2,272.8z M279.6,225.3    l-47.1,0.4l4.5,3.8l0.1,33.7c0,2.6,2.8,5.3,5.5,5.3h7.2c3.7,0,5.8,2.4,6.5,3.3c0.6-0.9,2.7-3.3,6.3-3.3l7.9,0.1l0,0    c1,0,2.2-0.6,3.2-1.7c1-1.1,1.6-2.5,1.6-3.7v-33.5L279.6,225.3L279.6,225.3z"/></g><polygon class="st2" id="XMLID_302_" points="259.7,225.5 259.7,245 275.5,245 275.5,229.6 279.8,225.5  "/><g><path class="st3" d="M275.7,245.2h-15.9l-0.2-19.7l20.2-0.2l-4.2,4.5L275.7,245.2L275.7,245.2z M279.7,225.3l-20,0.3l0.2,19.4    l15.4-0.2v-15.2L279.7,225.3L279.7,225.3z"/></g><polygon class="st1" id="XMLID_299_" points="232.5,225.5 252.6,225.5 252.6,245 236.8,245 236.8,229.6  "/><g><path class="st3" d="M252.7,245.2h-15.9l-0.2-15.5l-4.3-4.1l20.2-0.3L252.7,245.2L252.7,245.2z M252.4,225.5l-19.9,0.2l4.4,3.9    l0,15.5l15.4-0.2V225.5L252.4,225.5z"/></g><path class="st2" d="M236.8,252h15.8v17.5l-1.4-0.7h-8.6c-2.9,0-5.7-2.8-5.7-5.6V252z" id="XMLID_296_"/><g><path class="st3" d="M252.7,269.7l-1.7-0.8l-8.5,0c-3,0-5.9-2.8-5.9-5.8V252l15.9-0.2L252.7,269.7L252.7,269.7z M252.4,252    l-15.6,0.2l0.2,11c0,2.7,2.8,5.4,5.6,5.4h8.6l1.3,0.6V252L252.4,252z"/></g><path class="st1" d="M275.5,252h-15.8v17.5l1.4-0.7h8.6c2.9,0,5.7-2.8,5.7-5.6V252z" id="XMLID_293_"/><g><path class="st3" d="M259.6,269.7V252l15.9-0.2l0.2,11.3c0,2.9-2.9,5.8-5.9,5.8h-8.6L259.6,269.7L259.6,269.7z M275.3,252    l-15.6,0.2l0.2,17.1l1.2-0.6l8.7,0c2.8,0,5.6-2.7,5.6-5.4V252L275.3,252z"/></g><g><path class="st3" d="M256.2,272.8l-0.2-0.4c0,0-2.1-3.4-6.2-3.4h-7.2c-2.9,0-6-3-6-5.8v-33.5l-4.2-4l47.5-0.4l-4.1,4.6l0.1,33.4    c0,1.4-0.6,2.8-1.8,4.1c-1.1,1.2-2.4,1.9-3.6,1.9l0,0l-7.8-0.1h0c-4.1,0-6.2,3.3-6.2,3.4L256.2,272.8L256.2,272.8z M279.6,225.3    l-47.1,0.4l4.5,3.8l0.1,33.7c0,2.6,2.8,5.3,5.5,5.3h7.2c3.7,0,5.8,2.4,6.5,3.3c0.6-0.9,2.7-3.3,6.3-3.3l7.9,0.1l0,0    c1,0,2.2-0.6,3.2-1.7c1-1.1,1.6-2.5,1.6-3.7v-33.5L279.6,225.3L279.6,225.3z"/></g><polygon class="st11" id="XMLID_288_" points="255.4,236.6 255.4,242.2 256.9,242.2 256.9,236.6 258.3,236.6 258.3,235.2    256.9,235.2 256.9,233.8 255.4,233.8 255.4,235.2 254,235.2 254,236.6  "/><g><path class="st3" d="M257.1,242.5h-1.7l-0.3-5.8l-1.2,0.3l-0.3-1.7l1.7-0.3l-0.3-1.1l1.7-0.3l0.3,1.7l1.2-0.3l0.3,1.7l-1.7,0.3    L257.1,242.5L257.1,242.5z M255.4,236.4l0.3,5.8l0.9-0.2v-5.4l1.7-0.3l-0.3-1.1l-1.2,0.3l-0.3-1.7l-1.2,0.3l0.3,1.1l-1.7,0.3    l0.3,1.1L255.4,236.4L255.4,236.4z"/></g><g><polygon class="st12" id="XMLID_285_" points="256.6,243.9 245.2,228.8 246,228.2 257.4,243.3 256.6,243.9   "/></g><polygon class="st11" id="XMLID_284_" points="245.1,228.8 243.9,226.3 246.2,228.2  "/><path class="st2" d="M251.6,239.7c-0.1,0.2-1.5,5.8-1.5,5.8s4.5,0.7,4.4,0.4c-0.1-0.3-0.6-3.8-0.9-4.1   C253.5,241.6,251.7,240.1,251.6,239.7L251.6,239.7z" id="XMLID_283_"/><path class="st0" d="M247.8,235.9l-0.8,7.6c0,0,5.1,4.5,5,3.9c-0.1-0.6-0.4-7.7-0.4-7.7L247.8,235.9z" id="XMLID_282_"/><path class="st1" d="M243.5,231.3l-0.3,8.3c0,0,4.5,3.7,4.5,3.3c0-0.3,0.4-6.8,0.4-6.8L243.5,231.3z" id="XMLID_281_"/><g><polygon class="st3" id="XMLID_280_" points="243.4,238.3 243.2,231.2 243.7,231.2 243.4,238.3   "/></g><g><polygon class="st12" id="XMLID_279_" points="256,244.4 242.6,231 243.3,230.3 256.7,243.7 256,244.4   "/></g><polygon class="st11" id="XMLID_278_" points="242.5,231 241,228.6 243.5,230.2  "/><path class="st0" d="M241.1,233.8v21c0,4.2,4.3,7.2,7.2,7c2.9-0.2,7.2-1.4,7.2-1.4V245L241.1,233.8z" id="XMLID_277_"/><g><path class="st3" d="M248,262c-2.8,0-7.1-2.9-7.1-7.2v-21l14.8,11l0.1,15.6c-0.2,0.3-4.5,1.4-7.4,1.6L248,262L248,262z M240.9,234    l0.4,20.8c0,4.1,4,6.7,6.6,6.7v0.3l0.3-0.3c2.8-0.2,7.1-1.4,7.1-1.4l-0.2-15.1L240.9,234L240.9,234z"/></g><path class="st2" d="M241.1,250.6v4.2c0,4.2,4.3,7.2,7.2,7c2.9-0.2,7.2-1.4,7.2-1.4c-2.9-1.4-10,2.8-10-8.4   C244,252,242.5,252,241.1,250.6L241.1,250.6z" id="XMLID_274_"/><path class="st1" d="M245.6,237.1l-0.2,12.1c-1.5-0.2-2.9-0.8-4.3-1.4v-14L245.6,237.1z" id="XMLID_273_"/><path class="st2" d="M249.5,240.6v9.3c0,0,1-0.2,2.7,0.5c1.7,0.7,3.3,1.3,3.3,1.3V245L249.5,240.6z" id="XMLID_272_"/><path class="st1" d="M255.1,254.8c0,0-3.2-1.6-3.9-1.7c-0.8-0.1-1.8,0.1-1.8,0.1s-0.2,1.4-0.1,2.3   c0.1,0.8,1.4,1.3,1.8,1.3c0.4,0,4-0.4,4-0.4V254.8z" id="XMLID_271_"/><g><path class="st3" d="M248,262c-2.8,0-7.1-2.9-7.1-7.2v-21l14.8,11l0.1,15.6c-0.2,0.3-4.5,1.4-7.4,1.6L248,262L248,262z M240.9,234    l0.4,20.8c0,4.1,4,6.7,6.6,6.7v0.3l0.3-0.3c2.8-0.2,7.1-1.4,7.1-1.4l-0.2-15.1L240.9,234L240.9,234z"/></g><g><polygon class="st12" id="XMLID_268_" points="255.3,245.4 240.4,233.5 241,232.8 255.9,244.6 255.3,245.4   "/></g><polygon class="st11" id="XMLID_267_" points="240.3,233.6 238.5,231.4 241.2,232.7  "/><g><polygon class="st12" id="XMLID_266_" points="255.9,243.6 255.1,243 266.5,228 267.3,228.5 255.9,243.6   "/></g><polygon class="st11" id="XMLID_265_" points="267.4,228.6 268.6,226 266.3,227.9  "/><path class="st2" d="M261,239.5c0.1,0.2,1.5,5.8,1.5,5.8s-4.5,0.7-4.4,0.4c0.1-0.3,0.6-3.8,0.9-4.1   C259.1,241.3,260.9,239.8,261,239.5L261,239.5z" id="XMLID_264_"/><path class="st0" d="M264.7,235.6l0.8,7.6c0,0-5.1,4.5-5,3.9c0.1-0.6,0.4-7.7,0.4-7.7L264.7,235.6z" id="XMLID_263_"/><path class="st1" d="M269,231.1l0.3,8.3c0,0-4.5,3.7-4.5,3.3c0-0.3-0.4-6.8-0.4-6.8L269,231.1z" id="XMLID_262_"/><g><polygon class="st3" id="XMLID_261_" points="269.6,238.1 268.8,231 269.3,231 269.6,238.1   "/></g><g><polygon class="st12" id="XMLID_260_" points="256.5,244.1 255.8,243.5 269.2,230 269.9,230.7 256.5,244.1   "/></g><polygon class="st11" id="XMLID_259_" points="270,230.7 271.6,228.4 269,229.9  "/><path class="st0" d="M271.4,233.6v21c0,4.2-4.3,7.2-7.2,7c-2.9-0.2-7.2-1.4-7.2-1.4v-15.4L271.4,233.6z" id="XMLID_258_"/><g><path class="st3" d="M264.6,261.8l-0.3,0c-2.9-0.2-7.2-1.4-7.2-1.4l-0.2-15.6l14.4-11.4l0.4,21.2    C271.7,258.9,267.4,261.8,264.6,261.8L264.6,261.8z M257.4,260.1c0.5,0,4.3,1,6.9,1.2l0.3,0.3v-0.3c2.6,0,6.6-2.7,6.6-6.7v-21    L257.3,245L257.4,260.1C257.4,260.1,257.4,260.1,257.4,260.1L257.4,260.1z"/></g><path class="st2" d="M271.4,250.4v4.2c0,4.2-4.3,7.2-7.2,7c-2.9-0.2-7.2-1.4-7.2-1.4c2.9-1.4,10,2.8,10-8.4   C268.6,251.8,270,251.8,271.4,250.4L271.4,250.4z" id="XMLID_255_"/><path class="st1" d="M267,236.9l0.2,12.1c1.5-0.2,2.9-0.8,4.3-1.4v-14L267,236.9z" id="XMLID_254_"/><path class="st2" d="M263,240.3v9.3c0,0-1-0.2-2.7,0.5c-1.7,0.7-3.3,1.3-3.3,1.3v-6.8L263,240.3z" id="XMLID_253_"/><path class="st1" d="M257.4,254.6c0,0,3.2-1.6,3.9-1.7c0.8-0.1,1.8,0.1,1.8,0.1s0.2,1.4,0.1,2.2   c-0.1,0.8-1.4,1.3-1.8,1.3c-0.4,0-4-0.4-4-0.4V254.6z" id="XMLID_252_"/><g><path class="st3" d="M264.6,261.8l-0.3,0c-2.9-0.2-7.2-1.4-7.2-1.4l-0.2-15.6l14.4-11.4l0.4,21.2    C271.7,258.9,267.4,261.8,264.6,261.8L264.6,261.8z M257.4,260.1c0.5,0,4.3,1,6.9,1.2l0.3,0.3v-0.3c2.6,0,6.6-2.7,6.6-6.7v-21    L257.3,245L257.4,260.1C257.4,260.1,257.4,260.1,257.4,260.1L257.4,260.1z"/></g><g><polygon class="st12" id="XMLID_249_" points="257.2,245.1 256.6,244.4 271.5,232.5 272.1,233.3 257.2,245.1   "/></g><polygon class="st11" id="XMLID_248_" points="272.2,233.3 274,231.1 271.3,232.4  "/><path class="st2" d="M258.7,259.6c0.3,0.4,1.5,1.9,1.9,1.6c0.3-0.4-0.8-3.2-1.2-4.7c-0.4-1.5-1.3-3.2-1.3-5.5   c-0.1-2.3-1.5,0.3-1.5,0.3L258.7,259.6z" id="XMLID_247_"/><g><path class="st3" d="M260.4,261.5c-0.4,0-1-0.6-1.8-1.6l-2.3-8.6c0.2-0.6,0.8-1.5,1.4-1.5c0.6,0,0.6,0.9,0.6,1.2    c0,1.6,0.5,2.9,0.9,4c0.2,0.5,0.3,1,0.4,1.4c0.1,0.5,0.3,1,0.5,1.6c0.7,2.1,0.9,3,0.6,3.3L260.4,261.5L260.4,261.5z M257.6,250.2    c-0.1,0-0.6,0.5-0.9,1.1l2.1,8.2c0.9,1.1,1.3,1.3,1.4,1.4c0-0.4-0.4-1.9-0.7-2.8c-0.2-0.6-0.4-1.2-0.5-1.7    c-0.1-0.4-0.3-0.9-0.4-1.4c-0.4-1.2-0.9-2.5-0.9-4.2C257.7,250.3,257.6,250.2,257.6,250.2L257.6,250.2z"/></g><path class="st2" d="M257.4,264.2l2.7,0.1c0,0-0.9-3.6-1.1-5.7c-0.3-2.1-2.6-8.5-2.6-8.5L257.4,264.2z" id="XMLID_244_"/><g><path class="st3" d="M260.5,264.6l-3.1-0.1l-1.2-14.3c0.6,0.2,2.8,6.3,3.1,8.4c0.3,2.1,1.1,5.7,1.1,5.7L260.5,264.6L260.5,264.6z     M256.2,250.2l1.5,14l2.2-0.1c-0.2-0.9-0.9-3.7-1.1-5.5C258.5,256.5,256.3,250.2,256.2,250.2L256.2,250.2z"/></g><path class="st0" d="M255.5,249.5c-0.1,0.1-3.9,6.1-3.9,9.2c0,3.1,1.8,5,2.4,6c0.6,1,2.2,4.2,2.2,4.2   s1.9-3.5,2.1-4.9c0.2-1.4-0.7-7.2-0.5-9.4c0.3-2.2,2-7.5,2-7.5L255.5,249.5z" id="XMLID_241_"/><g><path class="st3" d="M256.1,269.4l-0.2-0.5c0,0-1.5-3.1-2.1-4.1l-0.4-0.5c-0.8-1.1-2.1-2.9-2.1-5.6c0-2.5,2.4-6.8,3.8-9.2l4.5-2.7    c0.4,0.4-1.3,5.6-1.6,7.8c-0.1,1.2,0.1,3.5,0.3,5.5c0.2,1.7,0.3,3.2,0.2,3.9c-0.2,1.4-2,4.8-2.1,4.9L256.1,269.4L256.1,269.4z     M259.5,247l-3.9,2.7c-2.4,4-3.8,7.2-3.8,9c0,2.5,1.2,4.2,2,5.3l0.4,0.6c0.5,0.8,1.5,2.8,2,3.7c0.5-1,1.6-3.3,1.8-4.3    c0.1-0.6-0.1-2.1-0.2-3.7c-0.2-2.1-0.4-4.4-0.3-5.7C257.8,252.3,259.4,247.2,259.5,247L259.5,247z"/></g><path class="st1" d="M255.5,249.5c-0.1,0.1-3.9,6.1-3.9,9.2c0,3.1,1.8,5,2.4,6c-0.1-2-0.3-3.8-0.2-6.4   c0.3-6.6,4.6-10.5,4.6-10.5L255.5,249.5z" id="XMLID_238_"/><path class="st2" d="M257,247.7c0,1.1-1.5,4.5-1.5,7.6c0,1.6,0.6,5.2,0.8,8.2c0.2,3-0.1,5.3-0.1,5.3   s1.9-3.5,2.1-4.9c0.2-1.4-0.7-7.2-0.5-9.4c0.3-2.2,2-7.5,2-7.5L257,247.7z" id="XMLID_237_"/><g><path class="st3" d="M256.1,269.4l-0.2-0.5c0,0-1.5-3.1-2.1-4.1l-0.4-0.5c-0.8-1.1-2.1-2.9-2.1-5.6c0-2.5,2.4-6.8,3.8-9.2l4.5-2.7    c0.4,0.4-1.3,5.6-1.6,7.8c-0.1,1.2,0.1,3.5,0.3,5.5c0.2,1.7,0.3,3.2,0.2,3.9c-0.2,1.4-2,4.8-2.1,4.9L256.1,269.4L256.1,269.4z     M259.5,247l-3.9,2.7c-2.4,4-3.8,7.2-3.8,9c0,2.5,1.2,4.2,2,5.3l0.4,0.6c0.5,0.8,1.5,2.8,2,3.7c0.5-1,1.6-3.3,1.8-4.3    c0.1-0.6-0.1-2.1-0.2-3.7c-0.2-2.1-0.4-4.4-0.3-5.7C257.8,252.3,259.4,247.2,259.5,247L259.5,247z"/></g><path class="st2" d="M254.9,248.1c-0.9,0.7-0.3,2.5-0.3,2.5s0.6-0.7,1.9-0.7c1.2,0.1,2,1.9,2,1.9s0.8-0.6,0.9-1.7   C259.5,248.8,256.9,247.5,254.9,248.1L254.9,248.1z" id="XMLID_234_"/><g><path class="st3" d="M258.4,252.2l-0.1-0.3c0,0-0.7-1.7-1.8-1.7c0,0,0,0,0,0c-1.1,0-1.6,0.6-1.6,0.6c-0.5-0.2-1.1-2-0.1-2.9    c1.9-0.6,3.6,0.1,4.5,1.1c0.3,0.3,0.5,0.7,0.4,1.1c-0.1,1.3-1,1.9-1,1.9L258.4,252.2L258.4,252.2z M256.3,249.6    c1.1,0.1,1.9,1.1,2.2,1.7c0.2-0.2,0.5-0.7,0.6-1.3c0-0.3-0.1-0.5-0.3-0.7c-0.6-0.7-2.4-1.4-3.9-1c-0.5,0.4-0.3,1.4-0.2,1.9    C254.9,250,255.5,249.6,256.3,249.6L256.3,249.6z"/></g><path class="st3" d="M252.2,243.3l2.5,6.4c0,0,1.1-0.5,1.8-0.7c0.7-0.3,1.6-0.1,1.6-0.1s1.2-0.6,1.7-0.8   c0.6-0.2,1.8-0.2,1.8-0.2l0.2-0.3c0,0-8.7-5-9.5-4.7L252.2,243.3z" id="XMLID_231_"/><g><path class="st3" d="M254.5,250.1l-2.6-6.7l0.3-0.8c0,0,0,0,0,0c1.3,0,8.8,4.2,9.7,4.7l0.2,0.1l-0.3,0.5c-0.2,0.1-1.3,0.1-1.9,0.3    c-0.5,0.2-1.7,0.8-1.7,0.8l-0.8,0c-0.3,0-0.6,0-0.9,0.1c-0.7,0.2-1.8,0.7-1.8,0.7L254.5,250.1L254.5,250.1z M252.3,243.2l2.5,6.3    c0.4-0.2,1.1-0.5,1.6-0.6c0.5-0.2,1.5-0.1,1.7-0.1c0-0.1,1.1-0.6,1.6-0.8c0.7-0.2,1.8-0.2,1.9-0.2    C258.4,246,253.1,243.2,252.3,243.2L252.3,243.2z"/></g><path class="st0" d="M252.3,242.8l2.5,6.4c0,0,1.1-0.5,1.8-0.7c0.7-0.3,1.6-0.1,1.6-0.1s1.2-0.6,1.7-0.8   c0.6-0.2,1.8-0.2,1.8-0.2l-2.5-7c0,0-1,0.1-1.8,0.4c-0.6,0.2-1.5,1.1-1.5,1.1c-0.5,0-1.2-0.1-2,0.1   C253.3,242.1,252.6,242.5,252.3,242.8L252.3,242.8z" id="XMLID_228_"/><g><path class="st3" d="M254.7,249.5l-2.6-6.7c0.5-0.7,1.3-1.1,1.8-1.3c0.4-0.1,0.8-0.2,1.3-0.2l0.7,0c0,0,0.9-0.8,1.5-1    c0.8-0.3,1.8-0.4,1.8-0.4l2.8,7.2c-0.2,0.3-1.4,0.4-2,0.5c-0.5,0.2-1.7,0.8-1.7,0.8l-0.8,0c-0.3,0-0.6,0-0.9,0.1    c-0.7,0.2-1.8,0.7-1.8,0.7L254.7,249.5L254.7,249.5z M259,240.4c-0.1,0.1-0.8,0.2-1.5,0.4c-0.5,0.2-1.4,1-1.4,1l-1,0    c-0.4,0-0.8,0-1.1,0.2c-0.7,0.3-1.3,0.6-1.5,0.9l2.4,5.9c0.4-0.2,1.1-0.5,1.6-0.6c0.5-0.2,1.5-0.1,1.7-0.1c0-0.1,1.1-0.6,1.6-0.8    c0.7-0.2,1.8-0.2,1.9-0.2L259,240.4L259,240.4z"/></g><g><polygon class="st13" id="XMLID_225_" points="258.5,248.3 255.8,241.8 256.1,241.7 258.5,248.3   "/></g><g><path class="st13" d="M252.8,243.3l-0.2-0.3c0.9-0.7,2.4-1.1,3.6-1C255,242.3,253.6,242.7,252.8,243.3    L252.8,243.3z" id="XMLID_224_"/></g><g><path class="st13" d="M253.1,244.1l-0.2-0.3c0.9-0.7,2.4-1.1,3.6-1C255.3,243.1,253.9,243.4,253.1,244.1    L253.1,244.1z" id="XMLID_223_"/></g><g><path class="st13" d="M253.3,245l-0.2-0.3c0.9-0.7,2.3-1.1,3.6-1C255.5,243.9,254.1,244.3,253.3,245L253.3,245z" id="XMLID_222_"/></g><g><path class="st13" d="M253.6,245.9l-0.2-0.3c0.9-0.7,2.4-1.1,3.6-1C255.8,244.8,254.4,245.2,253.6,245.9    L253.6,245.9z" id="XMLID_221_"/></g><g><path class="st13" d="M254.1,246.8l-0.2-0.3c0.9-0.7,2.4-1.1,3.6-1C256.3,245.7,254.9,246.1,254.1,246.8    L254.1,246.8z" id="XMLID_220_"/></g><g><path class="st13" d="M254.3,247.6l-0.2-0.3c0.9-0.7,2.4-1.1,3.6-1C256.5,246.6,255.1,247,254.3,247.6    L254.3,247.6z" id="XMLID_219_"/></g><g><path class="st13" d="M254.7,248.5l-0.2-0.3c0.9-0.7,2.4-1.1,3.6-1C256.9,247.4,255.5,247.8,254.7,248.5    L254.7,248.5z" id="XMLID_218_"/></g><g><path class="st13" d="M256.4,242.4l-0.2-0.2c0.8-0.8,2.1-1.4,3.3-1.4C258.3,241.1,257.1,241.6,256.4,242.4    L256.4,242.4z" id="XMLID_217_"/></g><g><path class="st13" d="M256.6,243.4l-0.2-0.2c0.8-0.8,2.1-1.4,3.3-1.4C258.5,242.1,257.3,242.6,256.6,243.4    L256.6,243.4z" id="XMLID_216_"/></g><g><path class="st13" d="M256.8,244.1l-0.2-0.2c0.7-0.8,2.1-1.4,3.3-1.4C258.8,242.8,257.5,243.3,256.8,244.1    L256.8,244.1z" id="XMLID_215_"/></g><g><path class="st13" d="M257.2,245l-0.2-0.2c0.8-0.8,2.1-1.4,3.3-1.4C259.2,243.7,257.9,244.2,257.2,245L257.2,245z    " id="XMLID_214_"/></g><g><path class="st13" d="M257.4,245.9l-0.2-0.2c0.8-0.8,2.1-1.4,3.3-1.4C259.4,244.6,258.1,245.1,257.4,245.9    L257.4,245.9z" id="XMLID_213_"/></g><g><path class="st13" d="M257.8,246.7l-0.2-0.2c0.7-0.8,2.1-1.4,3.3-1.4C259.8,245.4,258.5,245.9,257.8,246.7    L257.8,246.7z" id="XMLID_212_"/></g><g><path class="st13" d="M258.2,247.5l-0.2-0.2c0.7-0.8,2.1-1.4,3.3-1.4C260.1,246.2,258.9,246.7,258.2,247.5    L258.2,247.5z" id="XMLID_211_"/></g><g><path class="st3" d="M254.7,249.5l-2.6-6.7c0.5-0.7,1.3-1.1,1.8-1.3c0.4-0.1,0.8-0.2,1.3-0.2l0.7,0c0,0,0.9-0.8,1.5-1    c0.8-0.3,1.8-0.4,1.8-0.4l2.8,7.2c-0.2,0.3-1.4,0.4-2,0.5c-0.5,0.2-1.7,0.8-1.7,0.8l-0.8,0c-0.3,0-0.6,0-0.9,0.1    c-0.7,0.2-1.8,0.7-1.8,0.7L254.7,249.5L254.7,249.5z M259,240.4c-0.1,0.1-0.8,0.2-1.5,0.4c-0.5,0.2-1.4,1-1.4,1l-1,0    c-0.4,0-0.8,0-1.1,0.2c-0.7,0.3-1.3,0.6-1.5,0.9l2.4,5.9c0.4-0.2,1.1-0.5,1.6-0.6c0.5-0.2,1.5-0.1,1.7-0.1c0-0.1,1.1-0.6,1.6-0.8    c0.7-0.2,1.8-0.2,1.9-0.2L259,240.4L259,240.4z"/></g><path class="st14" d="M247.8,287.1c0.3-0.2,3.9-2.3,5.8-4c1.9-1.7,3.6-3.8,5.7-5.8c2.1-2,3.1-1.5,4.1-3.8   c1-2.3,0.5-3.3,0.5-5.6c0.7,0,1,0.7,1.4,1.6c0.2,0.4,1.1-2.8,1.1-1.9c0,1.1,0,3.5,0,3.3c0.3-0.5,1.8-3.8,1.8-3.8s-0.7,4.5-0.5,4   c0.2-0.5,1.9-2.8,1.9-2.8v2.8c0,0,1.2-2,1.5-3.5c0.3-0.2,1,2,1.4,1.5c0.3-0.5,0.7-3.5,1.2-3.2c0.5,0.3,0.9,1.8,0.9,1.8   s-0.3-9.7,0.2-9.5c0.5,0.2,1.7,0.5,1.7,0.5v-3.7c0,0,1.4,4.3,1.5,4.8c0.2,0.5-0.2-3.5-0.5-4.5c-0.3-1-0.7-3-0.7-3s1.8,2.5,2.1,3   c0-0.5-1.4-4.8-1.7-4.8c-0.3,0-1.9,1.8-1.6,1.7c0.3-0.2,1.2-3.8,1.7-3.8s1.5,2.7,1.3,2.4l-1-5.7l1.4,2.5c0,0,0.3-1.5,0-2.3   c-0.3-0.8-0.5-2.2-0.5-2.2s1,1.3,0.9,1c-0.2-0.3,0-3,0-3s0.7,1.6,0.9,1.9c0.2,0.3,0.8,1.3,0.8,1.3v-1.2l0.9,0.7   c0,0-1.9-4.1-2.8-4.2c-0.9-0.2-2,1.3-2,1.3s1.5-2.7,2-2.7h0.7l-0.5-2.8c0,0,3.4,4.7,3.2,4c-0.2-0.7-1.5-3.8-1.7-5   c-0.2-1.2-0.7-3.2-0.7-3.2s1.2,1.7,1.5,2.2c0.3,0.5,1.4,2.5,1.4,2.2c0-0.3-0.2-4.2-0.2-4.2l1.7,3.7l1.5-4.3l0.9,4.2   c0,0,0.7-2,0.9-2.8c0.2-0.8,0.7-0.8,0.7-0.8s-0.2,3.5-0.2,3.8c0,0.3-0.3,2.2-0.3,2.2s1.5-3.2,1.9-3.8c0.3-0.7,1.7-1.2,1.7-1.2   s-0.7,1.5-0.9,2c-0.2,0.5-2,4.3-1.7,4.3c0.3,0,1.7-2,2.6-2c0.9,0,2.4,2.2,2.1,2.3c-0.3,0.2-1.7-0.7-2.2-0.7c-0.5,0-4.6,4.5-3.9,4.3   c0.7-0.2,3.1-2.7,3.1-2.7s-0.9,2-0.5,1.9c0.3-0.2,2.9-1.7,2.9-1.7s-3.8,3.3-3.2,3.3s2.6-1,2.6-1l-2.6,3.2c0,0,2.1-1.4,2.8-1.4   c0.7,0,2.1,0.5,2.1,0.5s-2.6,0.2-2.9,0.3c-0.3,0.2-2.9,3.8-2.2,3.5c0.7-0.3,2-1.8,2-1.8l-0.9,2.2l3.6-2.2l-5,5.2   c0,0,3.4-2.7,3.9-2.5c0.5,0.2,2.9,2.8,2.9,2.8s-3.1-1.5-3.4-1.5c-0.3,0-5,5.8-4.3,5.5c0.7-0.3,3.1-1.7,3.8-1.7c0.7,0,1.9,3,1.5,3   c-0.3,0-1.9-0.8-2.2-0.8c-0.3,0-4.3,2.3-4.3,2.3s2.9-0.5,3.8-0.7c0.9-0.2,2.6,0,3.2-0.3c0.7-0.3,2.6-1,2.6-1s-2,1.3-3,2.1   c-1,0.8-2.8,1.1-2.8,1.1l3.2,0.3c0,0-4.4,1.4-5.6,1.8c-1,0.4-1.7,0.8-2.4,1.2c0.5,0,3-0.1,3.7-0.1c0.7,0,3.9,0.5,3.9,0.5   s-4.3,0.7-4.8,0.7c-0.5,0-1.2,0.5-1.2,0.5l4.6,0.5l-3.1,0.5c0,0,2.2,0.8,2.7,1c0.5,0.2,2,1.2,2,1.2s-3.9-0.8-4.8-0.8   c-0.9,0-2.2,0.2-2.2,0.2s1.5,0.1,2.3,0.5c0.6,0.2,0.8,0.6,0.8,0.6l-2.2-0.2c0,0,1.5,1.2,2.1,1.3c0.5,0.2,1,0.7,1,0.7l-3.4-0.3   l2.9,2.2c0,0-3.1-0.7-3.6-0.7h-0.5c0,0,1.5,1.2,1.9,1.7c0.3,0.5,0.7,1.2,0.7,1.2s-1.4-0.3-2.1-0.7c-0.7-0.3-1.9-0.5-1.9-0.5   l1.5,1.7l-2.6-0.5l1.4,2l-2.6-0.8c0,0,1.2,0.7,1.2,1.2c0,0.5-0.5,2.8-0.9,2.5c-0.3-0.3-0.5-1.7-0.9-2.2c-0.3-0.5-0.9-0.8-0.9-0.8   s-1-0.5-1.8-0.5c0.2,0.3,2,1.5,2.3,1.9l-3.3-0.4c0,0,3.1,1.5,2.6,1.5c-0.5,0-17-1.3-18-1.3s-6,5.7-7,6.2c-1,0.5-3.4,3.3-4.4,3.5   c-1,0.2-2.4,0.8-2.4,0.8L247.8,287.1z" id="XMLID_208_"/><g><path class="st15" d="M249.7,288.4l-2-1.1c0.4-0.6,4-2.8,5.8-4.4c1.1-0.9,2-2,3.1-3.1c0.8-0.9,1.7-1.8,2.6-2.7    c0.8-0.8,1.5-1.2,2.1-1.6c0.8-0.5,1.4-0.9,2-2.2c0.7-1.6,0.6-2.6,0.6-3.8c0-0.5-0.1-1-0.1-1.7c1-0.2,1.4,0.4,1.7,1.2    c0-0.2,0.2-0.6,0.3-0.8c0.3-0.9,0.4-1.1,0.6-1.1c0.3,1.8,0.3,3.5,0.3,3.7c-0.1-0.6,1.3-3.8,1.3-3.8c0,0,0,0.1,0,0.1    c0.1,0.1,0.1,0.2,0,0.4c0.1,1.1,0,2.3-0.1,3c0.3-0.9,1.3-2.2,1.4-2.4l0.4,2.5c0.2-0.7,0.9-2,1.1-3.1c0.6-0.2,0.8,0.2,1.1,0.7    c0.1,0.2,0.4,0.6,0.5,0.7c0-0.1,0.1-0.7,0.2-1.2c0.3-1.3,0.5-2,1-2c0.8,0.4,1.1,1.8,1.2,2.1c-0.6-3.4-0.8-9.2-0.3-9.6l2,0.4    l-0.3-3.4c0.2-0.2,1.1,2.1,1.6,3.5c-0.2-1.1-0.4-2.5-0.6-3.1c-0.3-1-0.7-3-0.7-3c0.4-0.2,1.6,1.5,2.2,2.4c-0.6-1.1-1.5-3.8-1.7-4    c0,0.1-0.5,0.6-1,1.1c-0.3-0.5-0.2-0.9-0.1-1.3c0.6-1.7,0.9-2.4,1.3-2.4c0.7,0,1.5,2.2,1.6,2.4l0,0c-0.8-0.7-1.4-1.8-1.6-1.9    c-0.1,0.1-0.5,1.4-0.8,2.1c0,0,0,0,0,0c0.2-0.3,0.5-0.4,0.7-0.4c0.7,0,2,5,2,5.1c-0.5-0.2-1.4-1.3-2-2.1c0.2,0.6,0.4,1.5,0.6,2    c0.2,0.7,0.7,4.5,0.5,4.8c-0.6-0.6-2-4.9-2-4.9l0.5,3.6l-2-0.3c0,0.4,0,5.1,0.2,9.3c-0.6-0.5-1-1.4-1.2-1.6c0,0.1-0.3,1.1-0.4,1.7    c-0.2,0.8-0.3,1.2-0.4,1.4c-0.6,0.2-0.8-0.2-1.2-0.8c-0.1-0.2-0.3-0.6-0.4-0.6c0,1.3-1.2,3.3-1.3,3.4l0-0.2c0,0,0-0.1,0-0.2    l-0.4-2.6c-0.2,1-1.3,2.6-1.4,2.9c-0.5,0-0.6,0-0.2-2.7c-0.4,1-0.9,2.2-1.1,2.5c-0.4,0-0.6-0.1-0.5-2.5c-0.4,0.9-0.5,1.2-0.7,1.2    c-0.7-1.2-1-1.6-1.4-1.6c0.3,0.4,0.3,0.9,0.3,1.4c0.1,1.3,0.2,2.3-0.6,4.1c-0.7,1.5-1.3,1.9-2.2,2.4c-0.6,0.3-1.2,0.7-2,1.5    c-0.9,0.9-1.7,1.8-2.5,2.7c-1,1.1-2.1,2.2-3.1,3.2c-1.9,1.7-5.6,3.9-5.9,4l1.7,0.5c0.3-0.2,1.5-0.7,2.4-0.8    c0.5-0.1,1.6-1.1,2.5-1.9c0.7-0.7,1.5-1.4,1.9-1.6c0.4-0.2,1.6-1.4,2.7-2.5c2.3-2.3,3.8-3.7,4.4-3.7c0.6,0,6.3,0.4,11.3,0.8    c2.7,0.2,5.1,0.4,6.1,0.5c-0.5-0.2-1.4-0.6-2.2-1l2.8-0.1c-0.2-0.1-0.5-0.3-0.7-0.5c-0.8-0.6-1.1-0.9-1.2-1.1    c1.1-0.3,2,0.1,2.1,0.2c0.1,0,0.6,0.4,1,0.9c0.2,0.3,0.3,0.7,0.4,1.2c0.1,0.4,0.2,0.8,0.4,1c0-0.2,0.4-1.9,0.4-2.3    c0-0.2-0.6-0.7-1.1-0.9l0.1,0c0.2-0.1,0.6,0,0.9,0.1l1.8,0.2l-1.7-1.6l2.8,0.1l-1.8-1.2c0.3-0.4,1.5-0.3,2.2,0.1    c0.4,0.2,1,0.4,1.5,0.5c-0.1-0.2-0.3-0.4-0.4-0.6c-0.3-0.4-1.4-1.3-1.8-1.6l-0.6-0.5h1.3c0.5,0,3.3,0.6,3.6,0.7l-3.1-1.7l2.9-0.1    c-0.1-0.1-0.3-0.2-0.4-0.2c-0.5-0.2-2-1.3-2.1-1.4l1.9-0.2c-0.1-0.1-0.2-0.1-0.4-0.2c-0.7-0.4-2.2-0.5-2.2-0.5    c0-0.5,1.3-0.7,2.2-0.7c0.6,0,2.4,0.4,3.7,0.6c-0.4-0.2-0.8-0.4-1-0.5c-0.5-0.2-2.7-1-2.7-1l0.1,0c0-0.1,0.2-0.1,0.3-0.1h0    l2.7-0.8l-4.6,0c0-0.5,0.6-1,1.2-1c0.3,0,2.1-0.3,3.4-0.5c-1,0-2.1-0.2-2.5-0.2c-0.4,0-1.3,0-2.1,0.1c-0.7,0-1.4,0.1-1.6,0.1    l0.1-0.3l-0.1-0.3c0.1,0,0.1,0,0.3,0l0.1-0.2c0.6-0.3,1.2-0.6,2-0.9c1.1-0.4,5.6-1.8,5.6-1.8l-2.2,0.1l2.3-0.1    c0,0.5-4.4,1.9-5.5,2.3c-0.5,0.2-1,0.4-1.4,0.6c0.2,0,0.3,0,0.5,0c0.8,0,1.7-0.1,2.1-0.1c0.7,0,4,0.5,4,0.5c0,0.5-4.3,1.2-4.8,1.2    c-0.3,0-0.9,0.3-1,0.4l4.5,0l-2.6,0.9c0.7,0.1,1.9,0.5,2.3,0.6c0.5,0.2,2,1.1,2.1,1.2c-1.6,0.2-4.3-0.4-4.9-0.4    c-0.1,0-0.2,0-0.3,0c0.2,0.1,0.4,0.1,0.5,0.2c0.6,0.3,0.9,0.7,0.9,0.7l-2.5,0.2l0,0c0.8,0,1.8,0.7,2.2,0.8    c0.6,0.2,1.1,0.7,1.1,0.7l-0.2,0c-0.1,0.2-0.3,0.1-0.5,0l-2.9,0.1l3.1,1.7c-1.3,0.2-3-0.1-3.6-0.2c0.4,0.2,1.2,0.9,1.4,1.3    c0.4,0.5,0.7,1.2,0.7,1.2c-0.3,0.3-1.7,0-2.4-0.3c-0.6-0.3-1.8-0.5-1.8-0.5l1.8,1.2l-2.8-0.1l1.6,1.6l-1.8-0.3    c0.3,0.2,0.5,0.5,0.5,0.8c0,0-0.3,2.8-1,2.8c-0.5-0.3-0.6-0.8-0.8-1.3c-0.1-0.4-0.2-0.8-0.4-1c-0.3-0.4-0.8-0.8-0.8-0.8l0,0    c0,0-0.4-0.2-0.8-0.3c0.2,0.1,0.3,0.2,0.5,0.3c0.6,0.5,1,0.8,1.2,1l-3.5,0c3,0.9,3,1.1,2.9,1.3c-0.5,0.2-3.5,0-7-0.3    c-4.8-0.4-10.7-0.8-11.3-0.8c-0.5,0-2.6,2.1-4,3.5c-1.5,1.5-2.4,2.4-2.9,2.6c-0.4,0.2-1.1,0.9-1.8,1.5c-1.1,1-2.1,1.9-2.7,2    c-1,0.2-2.3,0.8-2.3,0.8L249.7,288.4L249.7,288.4z M291.1,260.5c0-0.5,1.7-0.8,2.7-1.5c0.3-0.3,0.7-0.6,1.2-0.9    c-0.2,0.1-0.3,0.2-0.5,0.2c-0.5,0.2-1.3,0.2-2,0.3c-0.5,0-0.9,0-1.3,0.1c-0.9,0.2-3.8,0.7-3.8,0.7c0,0,0.1,0,0.1-0.1    c0-0.1,0.1-0.2,0.3-0.3c1.6-1.4,3.5-2.5,3.8-2.5c0.2,0,0.6,0.2,1.2,0.4c0.4,0.2,0.9,0.4,1,0.4c-0.1-0.3-1.2-2.4-1.5-2.5    c-0.5,0-2.2,0.9-3.1,1.4l-0.6,0.3c-0.4-0.6,3.5-6,4.2-6c0.4,0,2.6,1.1,3.5,1.5c-1.5-0.9-2.8-2.3-3.1-2.4c-0.3,0-2.2,1.3-3.7,2.5    l0,0c0.1-0.3,0.5-0.7,1-1.2l3.6-4.3l-3.3,2.6l0.4-1.8c-0.3,0.6-1.1,1.3-1.6,1.5c-0.6-0.7,1.7-3.8,2-4c0.2-0.1,1-0.2,1.8-0.3    c-0.3-0.1-0.6-0.1-0.9-0.1c-0.5,0-1.9,0.8-2.7,1.3l0.1-0.1c0-0.2,0.1-0.3,0.4-0.6l1.6-2.5c-0.5,0.5-1.7,1-2.1,1    c-0.3-0.3-0.4-0.5,1.4-2.2c-0.4,0.3-0.8,0.5-0.9,0.5c-0.4-0.2-0.5-0.3-0.1-1.6c-0.6,0.9-2,2.3-2.5,2.4c-0.4-0.9,3.3-4.8,3.9-4.8    c0.3,0,0.7,0.2,1.2,0.4c0.3,0.1,0.8,0.3,0.9,0.3c-0.1-0.2-1.3-1.8-1.9-1.8c-0.4,0-1.1,0.8-1.6,1.3c-0.5,0.5-0.7,0.7-0.9,0.7    c-0.4-0.4-0.3-0.8,1-3.6c0.2-0.5,0.4-0.9,0.5-1.1c0.1-0.4,0.5-1.2,0.7-1.7c-0.3,0.4-0.9,0.7-1.1,1.1c-0.3,0.7-1.9,3.8-1.9,3.8    c-0.5-0.2-0.2-2-0.2-2.3c0-0.3,0.1-2.4,0.1-3.4c-0.1,0.1-0.1,0.2-0.2,0.4c-0.2,0.8-0.9,2.9-0.9,2.9l0-0.2c-0.1,0-0.1-0.2-0.1-0.4    l-1.2-3.7l-1,4.4L283,232c0.3,1,0.4,3.3,0.4,3.6c-0.5,0.3-0.5,0.2-1.3-1.1c-0.2-0.4-0.4-0.7-0.5-0.9l-0.9-1.2    c0.2,0.6,0.4,1.4,0.5,2c0.1,0.7,0.7,2.3,1.2,3.5c0.3,0.7,0.5,1.3,0.5,1.5c-0.4,0.4-0.7,0.4-3.7-3.8l1,2.6l-0.9,0.3    c-0.1,0-0.5,0.5-0.9,1c0.2-0.1,0.5-0.2,0.7-0.2c1.1,0.2,2.7,3.4,3.1,4.4l-1.3-0.4l0,0.1l-0.1-0.3l1.3,0.5c-1.3-1.6-2.5-3.7-3-3.8    c0,0,0,0,0,0c-0.7,0-1.5,0.9-1.8,1.2c0,0,0,0,0,0c-0.1-0.2,0-0.5,0.2-0.8c0.4-1.2,1.2-2.2,1.6-2.2h0.7l-0.8-2.5    c1.2,1.1,2.3,2.3,2.9,3.1c-0.1-0.2-0.1-0.3-0.2-0.5c-0.5-1.2-1.1-2.8-1.2-3.6c-0.2-1.2-0.7-3.1-0.7-3.1l0.1,0.1    c0.2-0.1,0.3,0.1,0.4,0.4l1.5,1.5c0.1,0.2,0.3,0.5,0.5,0.9c0.2,0.3,0.5,0.8,0.6,1.1c-0.3-0.7-0.4-3.9-0.4-3.9l0.1,0.1    c0.1,0,0.2,0.2,0.2,0.4l1.9,3.1l1.1-4.3l1.2,3.7c0.1-0.7,0.4-1.7,0.5-2.3c0.2-1,0.9-1,0.9-1c0.3,0.3,0.1,3.8,0.1,4.1    c0,0.1,0,0.4-0.1,0.8c0.4-1,1-2.2,1.2-2.6c0.4-0.7,1.7-1.2,1.8-1.3c0.3,0.3-0.3,1.8-0.5,2.3c0,0.1-0.2,0.6-0.5,1.1    c-0.3,0.6-0.8,1.8-1.1,2.5c0.1-0.1,0.1-0.1,0.2-0.2c0.6-0.7,1.3-1.4,2-1.4c0.9,0,2.2,1.7,2.3,2.4l-0.4,0.5c-0.3,0-0.7-0.2-1.1-0.4    c-0.3-0.1-0.8-0.3-1-0.3c-0.5,0.2-3.6,3.5-3.8,4.1c0.2-0.3,1.7-1.8,2.7-2.9c0.1,1-0.2,1.8-0.2,2c0.1-0.3,2.6-1.8,2.6-1.8    c0,0,0,0,0,0c0.1,0.1-0.2,0.4-0.5,0.7c-1.1,1.4-2.3,2.6-2.4,2.8c0.1-0.3,1.4-0.8,2.3-1.2l-0.1,0.2c0,0.1-0.1,0.1-0.1,0.2l-1.6,2.6    c0.6-0.5,1.7-1.1,2.2-1.1c0.8,0,2.2,0.5,2.2,0.6c0,0-0.1,0-0.1,0.1c-0.1,0.1-0.2,0.1-0.3,0.1c-1.1,0.4-2.2,0.5-2.4,0.6    c-0.3,0.2-2.1,2.8-2.2,3.3c0.3-0.5,1.3-1.6,1.7-2l0,0.1c0.1,0.1,0,0.3-0.1,0.5L291,249l3.2-2.5l-3.6,4.3c0.9-0.9,2.2-1.7,2.7-1.7    c0.7,0.2,2.6,2.3,3.2,2.9c-1.7-0.3-3.4-1.1-3.6-1.1c-0.3,0.2-2.8,3.3-3.7,4.7c1.3-0.7,2.7-1.4,3.2-1.4c0.8,0,1.9,2.6,1.9,3.1    c-0.5,0.4-0.9,0.2-1.5-0.1c-0.4-0.2-0.9-0.4-1-0.4c-0.2,0-1.8,0.9-3.2,1.7c0.9-0.3,2.1-0.5,2.6-0.6c0.4-0.1,0.8-0.1,1.4-0.1    c0.7,0,1.5,0,1.8-0.2c0.7-0.3,2.6-1,2.6-1c0.2,0.5-1.7,1.7-2.7,2.5C293.1,260.2,291.4,260.5,291.1,260.5L291.1,260.5L291.1,260.5z     M278.7,250.2l-1.4-5.1l1.6,2c-0.1-0.5,0-1.3-0.2-1.8c-0.3-0.9-0.5-2.2-0.5-2.2c0.3-0.1,0.7,0.2,1,0.5c-0.2-0.6-0.2-1.9-0.1-2.5    c0.5,0,1.2,1.5,1.4,1.8c0.1,0.3,0.6,1,0.8,1.2l0.1,0.2c-0.5,0.2-1.1-0.8-1.3-1.2c-0.2-0.3-0.9-1.9-0.9-1.9    c0.4,1.1,0.4,2.6,0.5,2.8c-0.3,0.3-0.4,0.4-0.7,0c0.1,0.4,0.2,0.9,0.4,1.2c0.4,0.9,0,2.4,0,2.5l-1.8-2.4L278.7,250.2L278.7,250.2z    "/></g><g><path class="st15" d="M263.9,274.8l-0.4-0.4c0.8-0.9,2.2-2.4,2.4-2.7c0.2-0.6,0.3-1,0.3-1    c0.5,0.1,0.4,0.6,0.1,1.2C266.1,272.5,264.1,274.6,263.9,274.8L263.9,274.8z" id="XMLID_204_"/></g><g><path class="st15" d="M265,275.2l-0.3-0.4c1.7-1.1,2.8-4,2.8-4.1C267.9,271.1,266.8,274,265,275.2L265,275.2z" id="XMLID_203_"/></g><g><path class="st15" d="M268.1,274l-0.3-0.4c0.6-0.4,1.3-2.1,1.5-2.7C269.8,271.2,269,273.4,268.1,274L268.1,274z" id="XMLID_202_"/></g><g><path class="st15" d="M268.6,275.3l-0.3-0.4c3.2-2.2,3.2-6.3,3.2-6.4C272,268.7,272,273,268.6,275.3L268.6,275.3z    " id="XMLID_201_"/></g><g><path class="st15" d="M270.7,275.4l-0.4-0.3c3.2-3.5,3.1-8.4,3.1-8.5C274,266.8,274,271.8,270.7,275.4    L270.7,275.4z" id="XMLID_200_"/></g><g><path class="st15" d="M271.7,275.9l-0.2-0.5c2.6-1.4,2.6-7.7,2.6-8.4l0.5-0.5    C274.6,268.3,274.5,274.5,271.7,275.9L271.7,275.9z" id="XMLID_199_"/></g><g><path class="st15" d="M275.9,271.4c-0.1-3.8-1.2-6.7-1.2-6.8c0.5,0.1,1.7,2.8,1.8,6.7L275.9,271.4L275.9,271.4z" id="XMLID_198_"/></g><g><path class="st15" d="M277.3,270l-0.5,0c0.1-4.3-1.5-7.1-1.5-7.1C275.7,262.6,277.4,265.6,277.3,270L277.3,270z" id="XMLID_197_"/></g><g><path class="st15" d="M277.7,269.7l-0.5,0c1-9.5-1-10.6-1.1-10.7C276.5,258.7,278.7,259.8,277.7,269.7    L277.7,269.7z" id="XMLID_196_"/></g><g><path class="st15" d="M279.1,265.5l-0.5,0c0.3-4.1-0.8-5.6-0.8-5.6C278.2,259.6,279.5,261.2,279.1,265.5    L279.1,265.5z" id="XMLID_195_"/></g><g><path class="st15" d="M280.5,262.7l-0.5-0.1c0.4-3-1.5-7-1.5-7c0,0,0,0,0,0C279.1,255.5,280.9,259.5,280.5,262.7    L280.5,262.7z" id="XMLID_194_"/></g><g><path class="st15" d="M280.6,268.3l-0.3-0.4c3.8-2.5,6.4-3.6,7.4-3.2C287,265,285.4,265.1,280.6,268.3    L280.6,268.3z" id="XMLID_193_"/></g><g><path class="st15" d="M278.8,271.9l-0.3-0.4c7.7-5.3,9.3-4.1,9.5-4C287.6,267.8,286.1,266.9,278.8,271.9    L278.8,271.9z" id="XMLID_192_"/></g><g><path class="st15" d="M287.9,270.2c-0.5,0-1.5-0.3-5.1-0.1l0-0.5c3.1-0.2,5,0,5.4,0.5    C288.1,270.2,288,270.2,287.9,270.2L287.9,270.2z" id="XMLID_191_"/></g><g><path class="st15" d="M285,273.1c-0.3,0-1.2-0.5-4.1-0.3l0-0.5c2.2-0.2,3.7,0.1,4.3,0.7    C285.2,273.1,285.1,273.1,285,273.1L285,273.1z" id="XMLID_190_"/></g><g><path class="st15" d="M283.1,258.7l-0.4-0.3c5.2-6,6.3-6.5,6.5-6.5C289.3,252.4,288.2,252.9,283.1,258.7    L283.1,258.7z" id="XMLID_189_"/></g><g><path class="st15" d="M282.9,260.3l-0.3-0.4c5.3-3.5,6-4,6-4C288.9,256.2,288.3,256.7,282.9,260.3L282.9,260.3z" id="XMLID_188_"/></g><g><path class="st15" d="M282.4,263.1l-0.4-0.4c3.9-3.8,5.7-4.1,5.8-4.1C287.8,259.2,286.1,259.4,282.4,263.1    L282.4,263.1z" id="XMLID_187_"/></g><g><path class="st15" d="M282.3,264.8l-0.3-0.4c6.8-5.3,9.7-4.3,9.9-4.3C291.7,260.6,288.9,259.7,282.3,264.8    L282.3,264.8z" id="XMLID_186_"/></g><g><path class="st15" d="M281.3,266.4l-0.3-0.4c2.8-1.8,4.3-2.2,5.1-2.5l0.7,0.3    C285.5,264.2,284.1,264.6,281.3,266.4L281.3,266.4z" id="XMLID_185_"/></g><g><path class="st15" d="M284.8,244.6c-1.3-6.2-2-8.9-2.1-8.9c0.7,0.1,1.3,2.6,2.6,8.8L284.8,244.6L284.8,244.6z" id="XMLID_184_"/></g><g><path class="st15" d="M285.6,244.7c-0.5-0.1,0.2-2.9,0.3-3.5c0.1-0.5-0.3-4.1-1.7-6.1l0.4-0.3    c1.4,2.1,1.8,5.8,1.7,6.4C286.4,241.9,285.6,244.7,285.6,244.7L285.6,244.7z" id="XMLID_183_"/></g><g><path class="st15" d="M286.9,237.8c-0.5,0-0.8-1-0.6-4.1l0.5,0C286.6,236.9,286.9,237.8,286.9,237.8    C286.9,237.8,286.9,237.8,286.9,237.8L286.9,237.8z" id="XMLID_182_"/></g><g><path class="st15" d="M286.6,241.4l-0.4-0.3c0.8-1.4,1.8-4.5,1.8-4.5C288.4,236.9,287.5,239.9,286.6,241.4    L286.6,241.4z" id="XMLID_181_"/></g><g><path class="st15" d="M284.7,248.4c0.1-0.5,0.4-1.3,1.3-3.4c0.9-2,2-4.7,2.8-6.7l0.5,0.2    c-0.7,1.9-1.9,4.6-2.8,6.7c-0.7,1.6-1.2,2.8-1.2,2.9L284.7,248.4L284.7,248.4z" id="XMLID_180_"/></g><g><path class="st15" d="M284.8,252.1l-0.5-0.2c3.9-7.7,5.2-8.8,5.3-8.9C289.9,243.4,288.6,244.5,284.8,252.1    L284.8,252.1z" id="XMLID_179_"/></g><g><path class="st15" d="M285,253.3l-0.4-0.3c4.4-6.2,5.1-7.7,5.1-7.7C290.1,245.5,289.5,247,285,253.3L285,253.3z" id="XMLID_178_"/></g><g><path class="st15" d="M284.2,256.1l-0.4-0.3c5.1-6.5,7.1-7.3,7.2-7.3C291.1,249,289.2,249.8,284.2,256.1    L284.2,256.1z" id="XMLID_177_"/></g><g><path class="st15" d="M281.1,259.5c-0.6-5.6-2.8-8.7-2.8-8.8c0.6-0.2,2.8,3,3.4,8.7L281.1,259.5L281.1,259.5z" id="XMLID_176_"/></g><g><path class="st15" d="M282.1,256.5c-0.5,0-0.9-4.8-3.4-8.7l0.4-0.3C281.7,251.5,282.1,256.4,282.1,256.5    L282.1,256.5z" id="XMLID_175_"/></g><g><path class="st15" d="M282.6,254.2c-0.5-0.1,0.3-3.9-3.6-10.1l0.4-0.3C283.4,250.3,282.6,254.1,282.6,254.2    L282.6,254.2z" id="XMLID_174_"/></g><g><path class="st15" d="M283.3,256.2c-0.5-0.2,0.9-5.2-2.5-11.8l0.5-0.2C284.8,250.9,283.3,255.9,283.3,256.2    L283.3,256.2z" id="XMLID_173_"/></g><g><path class="st15" d="M284.2,251.4c-0.5,0-0.4-2.4-2.4-7.4l0.5-0.2C284.3,248.9,284.2,251.3,284.2,251.4    L284.2,251.4z" id="XMLID_172_"/></g><g><path class="st15" d="M284.6,246.8c-0.5-0.2,0.6-3.1-5.1-8.5l0.3-0.4C285.9,243.6,284.7,246.7,284.6,246.8    L284.6,246.8z" id="XMLID_171_"/></g><g><path class="st15" d="M279.4,270.3c-0.5-0.2,0.3-2.3,0.3-3.1c0-0.3,0.1-0.8,0.2-1.3c-0.3,0.8-0.8,1.9-1.4,3.4    l-0.5-0.2c2-4.7,2.3-5.5,2.3-5.5c0,0,0.1,0,0.1,0.1c0.1,0.1,0.1,0.2,0.1,0.4c0.1,0.8-0.2,2.6-0.3,3.2    C280.2,268.2,279.4,270.2,279.4,270.3L279.4,270.3z" id="XMLID_170_"/></g><g><path class="st15" d="M282.5,275.4c-0.8,0-4.8-2.2-8.4-1.5l-0.1-0.5c4.2-0.8,8.5,1.8,8.7,1.9    C282.7,275.4,282.6,275.4,282.5,275.4L282.5,275.4z" id="XMLID_169_"/></g><g><path class="st15" d="M279.6,275.9c-1,0-3.1-0.4-6.1-0.6l0-0.5c4.3,0.3,6.7,0.9,6.7,0.9    C280.2,275.8,280,275.9,279.6,275.9L279.6,275.9z" id="XMLID_168_"/></g><g><path class="st15" d="M284,274.4c-1.1,0-6.8-2.1-8.8-2.2l0-0.5c2.3,0.1,8.6,2.6,8.9,2.7    C284.2,274.3,284.1,274.4,284,274.4L284,274.4z" id="XMLID_167_"/></g><g><path class="st16" d="M265,272.6c-0.4-0.3-0.3-0.6,0.1-1.3c0.3-0.8,0.2-2.2,0.2-2.2l0.5,0c0,0.1,0.1,1.6-0.3,2.4    C265.2,272.3,265,272.6,265,272.6L265,272.6z" id="XMLID_166_"/></g><path class="st14" d="M262.5,288.3c-5.6-2.8-11.6-10.5-12.9-10.8c-1.3-0.3-15,2-14.8,1.6c0.1-0.4,0.4-2.4,1-3.4   c0.6-1,2.3-2,2-2c-0.3,0-3.7,0.1-3.7,0.1s-1.5,1.9-2.2,2.1c-0.6,0.2-3.4,0.5-4.1,0.9c-0.6,0.4-1.8,1.5-1.8,1.5s-0.3-1.4-0.3-1.7   c0-0.4,0.5-1.1,0.5-1.1s-3.2,0.1-2.8,0c0.4-0.1,0.5-1,1-1.6c0.5-0.6,1.2-1.4,2-1.6c0.9-0.2,1.8-0.5,1.8-0.5l-1.5-0.7   c0,0,1.5-0.7,1.9-0.7c0.4,0,1.9-0.4,1.9-0.4s-1.1-1.2-1.1-1.7c0-0.5-1.2,1.9-2,2.1c-0.9,0.2-2.7,0.5-3.6,0.5   c-0.9,0-2.2,1.4-2.2,1.4s-0.4-1.4-0.3-1.9c0.1-0.5,0.6-0.8,0.6-0.8l-1.4,0.1c0,0,0.4-1.9,0.5-2.1c0.1-0.3,0.8-1.4,0.8-1.4   s-1-0.8-1.3-1.2c-0.3-0.5-0.6-1.7-0.6-1.7h2.7c0.6,0,2.3,0.8,2.3,0.8s-0.6-1-0.6-1.4c0-0.4-0.5-1.3-0.3-1.3c0.3,0,2,1.1,2,1.1   s-0.5-2.4-1.3-2.9c-0.8-0.5-4.2-1.1-4.9-2c-0.6-0.9-1.5-4-1.8-4.7c-0.3-0.7-1-1.1-1-1.1h2c0,0-0.3-1.2-0.4-2   c-0.1-0.7,0.3-1.9,0.3-1.9s0.9,1.5,1.4,1.5c0.5,0,1.3,0.9,1.3,0.9l0.1-0.9l1.5,2c0,0,0.1-1.4,0.4-1.6c0.3-0.2,0.9-0.5,0.9-0.5   s0.1,0.9,0.3,1.1c0.1,0.2,0.9,2.1,0.9,2.5c0,0.4-0.3,4.5-0.3,4.9c0,0.4,1.5,3.2,1.5,3.2v-3c0-0.7-0.9-2.4-0.8-3   c0.1-0.6,0.3-1.6,0.3-1.6s0.8,1.4,1,1.5c0.3,0.1,1,1.5,1,1.5l0.9-1.6c0,0-2.2-1.7-2.4-2.5c-0.3-0.8-0.5-2.4-0.5-2.4s-1.5-0.7-2-1.2   c-0.5-0.5-2.6-4-2.6-4h0.8c0,0-0.8-1.6-0.8-2.4c0-0.8,0.1-2.2,0.1-2.2s0.8,0.6,0.9,0.9c0.1,0.2,1.2,0.4,1.2,0.4s-1.5-3.4-1.5-4.7   c0-1.4,2-4,2-4l1,1.6l2-3c0,0,0.9,1.4,0.9,1.7v1.6c0,0,1.3,0.1,1.5,0.1c0.3,0,0.9,0.5,0.9,0.5s-1,0.4-1.4,0.8   c-0.4,0.4-0.8,2-1.2,2.1c-0.4,0.1-2,1.2-2.4,1.6c-0.4,0.4-0.8,2.6-0.8,2.6s1.3,1.7,1.4,2.4c0.1,0.6,0.3,2.2,0.3,2.2   s0.6,0.7,1.1,0.6c0.5-0.1,1-0.9,0.9-1.4c-0.1-0.5-1.5-1.7-1.7-2.4c-0.1-0.6,0.1-4.7,0.1-4.7l2,1.1c0,0,1.2-1.1,1.4-1.7   c0.3-0.6,0.6-2.4,0.6-2.4l0.9,2.6c0,0,0.6-1.1,1.3-1.4c0.6-0.3,1.9-1,1.9-1s-0.5,1.5-0.5,1.7c0,0.3,0.1,4.6-0.1,5.1   c-0.3,0.5-3.6,3.6-3.8,3.9c-0.3,0.3-0.3,2.1-0.3,2.1l2.4-2.1c0,0,0.3,1.1,0.4,1.7c0.1,0.6,0.1,1.3,0.1,1.3s1.3-0.4,1.7-0.6   c0.4-0.2,1.2,0.3,1.2,0.3s-0.4,1-0.6,1.2c-0.3,0.2-1.2,2.6-1.5,3c-0.4,0.4-2.7,1.2-2.9,1.6c-0.3,0.4-2.2,2.5-2.7,3.2   c-0.5,0.8-0.5,2.2-0.5,2.2s0.8-2.2,1.4-2.7c0.6-0.5,2.2-2.2,2.2-2.2l0.4,1.9c0,0,1.4-1,1.9-1.1c0.5-0.1,3.2-0.8,3.2-0.8   s-1.8,1.5-1.8,1.9s-0.3,2.4-0.9,2.9c-0.6,0.5-3.7,2.4-4,2.5c-0.3,0.1-0.5,1.1-0.5,1.5c0,0.4,0.4,0.9,0.4,0.9s0.4-0.9,0.9-1.4   c0.5-0.5,0.4-1.6,0.4-1.6s1.2,1.1,1.3,1.6c0.1,0.5,0.3,3.1,0.1,3.7c-0.1,0.6-0.3,2.1,0,2.5c0.3,0.4,1.4,1.6,1.7,1.6   c0.3,0-1.5-3.2-1.3-4.7c0.3-1.5,1.3-2.5,1.5-3.2c0.3-0.7,0.3-1.5,0.3-1.5s1.1,1.3,1.3,1.9c0.4-0.5,0.7-0.9,1.2-1.2   c0.3,0.3,1.1,2.6,1.3,3.3c0.4-0.7,1-1.4,1.5-1.9c0.5,0.7,1.2,2.6,1,3.4c-0.4,1.1-0.9,2.1-1.7,2.6c-0.8,0.5-1.4,0.7-1.4,0.7   s1.8,0.6,2.3,0.6c0.5,0,1.3,0.4,1.3,0.4l-2.8,0.9c0,0,3.5,0.4,3.5,0.1c0-0.3,0-1.6-0.4-2.4c-0.4-0.7-0.5-1.6-0.5-1.6   s1.2,0.4,1.7,0.4c0.5,0,1.4,0.1,1.4-0.1c0-0.2-1-2.2-0.8-2.2c0.3,0,3.6,3,3.6,2.5c0-0.5,1.4-3.1,1.4-3.1s1.2,2.3,1.3,2.7   c0.1,0.4,0.2,1.3,0.2,2.2c0,0.9-0.9,2.1-0.9,2.1s1.8,2.7,2.9,3.7c1.1,1,4.3,5.3,7.5,7.2c1.7,1,1.8,1,3.2,1.7L262.5,288.3z" id="XMLID_165_"/><g><path class="st15" d="M262.5,288.5l-0.1-0.1c-3.6-1.8-7.2-5.4-9.8-8.1c-1.4-1.4-2.6-2.6-3-2.7c-1.7,0-5.5,0.5-8.9,1    c-2.7,0.4-5,0.7-5.7,0.7l-0.2-0.2l0-0.6c0.2-0.8,0.4-2.1,0.9-2.9c0.4-0.6,1.2-1.2,1.7-1.6c0.2-0.1-3.2,0-3.2,0    c0,0.1-1.5,1.8-2.1,2.1c-0.3,0.1-0.9,0.2-1.7,0.3c-0.9,0.1-2,0.3-2.4,0.5c-0.6,0.4-1.7,1.5-1.8,1.5c-0.3-0.1-0.5-1.5-0.5-1.9    c0-0.3,0.3-0.8,0.5-1.1c-0.3,0.1-1.4,0.2-2,0.2l-0.4-0.1c1.3-0.2,2.7-0.3,2.7-0.3c0,0.5-0.3,1-0.3,1.3c0,0.3,0.2,1.3,0.2,1.6    c0.1-0.3,1-1.2,1.6-1.5c0.4-0.2,1.5-0.4,2.5-0.6c0.7-0.1,1.4-0.2,1.6-0.3c0.5-0.2,1.7-1.6,2.1-2.1c0.1-0.1,3.6-0.2,3.8-0.2l0,0.1    l-0.3,0.6c-0.5,0.4-1.2,1-1.6,1.6c-0.5,0.7-0.7,2-0.9,2.8c0.6,0.4,2.9,0,5.6-0.3c3.4-0.5,7.2-1,8.6-1c1,0.2,2.1,1.2,3.7,2.8    c2.6,2.6,6.2,6.2,9.6,8l1.3-1.8l-1-0.3c-0.6-0.3-1-0.5-2.2-1.2c-2.3-1.4-4.6-4-6.1-5.7c-0.6-0.7-1.1-1.3-1.5-1.6    c-1.2-1-2.9-3.7-3-3.8c0-0.2,0.9-1.4,0.9-2.2c0-1-0.1-1.9-0.2-2.2c-0.1-0.4-1.3-2.6-1.3-2.6c-0.3,1-1.1,2.7-1.1,3    c-0.5,0.2-1.1-0.3-2.5-1.4c-0.5-0.4-1.2-0.9-1.3-1c0.1,0,0.4,0.7,0.6,1.1c0.3,0.6,0.3,0.8,0.3,0.9v0.2l-0.7,0.2l-0.9,0    c-0.4,0-1.2-0.2-1.6-0.3c0.1,0.2,0.3,0.8,0.6,1.3c0.3,0.7,0.4,1.8,0.4,2.4v0.2l-0.7,0.1c-1,0-2.9-0.2-2.9-0.2l0.1,0    c0-0.1,0.1-0.1,0.3-0.1l2.2-0.9c-0.3,0-0.7-0.2-1-0.2c-0.5,0-2.3-0.6-2.4-0.6c0-0.3,0.6-0.5,1.4-1c0.7-0.5,1.3-1.3,1.6-2.5    c0.2-0.8-0.5-2.6-1-3.3c-0.2,0.5-0.8,1.2-1.2,1.9c-0.5-0.8-1.3-3-1.5-3.2c-0.3,0.3-0.6,0.6-1,1.1c-0.4-0.5-1.1-1.3-1.4-1.7    c0,0.3-0.1,0.7-0.2,1.2c-0.1,0.3-0.3,0.6-0.5,1c-0.4,0.6-0.8,1.3-1,2.3c-0.2,0.9,0.5,2.6,1,3.7c0.3,0.8,0.4,1,0.3,1.1    c-0.6,0.2-1.8-1.4-1.9-1.6c-0.3-0.5-0.1-2.1,0-2.6c0.1-0.6,0-3.2-0.1-3.7c-0.1-0.3-0.7-1-1.1-1.4c0.1,0.3,0.1,1-0.3,1.4    c-0.5,0.5-0.9,1.3-0.9,1.3c-0.3,0-0.7-0.5-0.7-0.9c0-0.3,0.2-1.5,0.6-1.6c0.2-0.1,3.3-2,3.9-2.5c0.6-0.4,0.8-2.3,0.8-2.7    c0-0.4,1.3-1.5,1.8-2l-3.1,1c-0.4,0.1-1.5,0.8-1.9,1.1l-0.6-1.9c-0.1,0.4-1.4,1.8-1.9,2.2c-0.5,0.4-1.1,2.1-1.4,2.7    c-0.3-0.1-0.3-1.6,0.2-2.4c0.3-0.4,1.1-1.4,1.7-2.1c0.5-0.5,0.8-1,0.9-1.1c0.1-0.2,0.7-0.5,1.6-0.9c0.5-0.3,1.2-0.6,1.3-0.7    c0.2-0.2,0.6-1,0.9-1.7c0.3-0.8,0.5-1.2,0.7-1.3c0.2-0.2,0.5-0.9,0.6-1.2c-0.1,0.1-0.5-0.1-0.7-0.1c-0.6,0.3-1.8,0.7-1.9,0.7    c-0.2-0.2-0.2-0.8-0.3-1.4c-0.1-0.6-0.4-1.7-0.4-1.7l-2.2,2.2c-0.3-0.7-0.2-2.1,0-2.4c2.5-2.3,3.7-3.6,3.8-3.8    c0.1-0.2,0.2-1,0.1-4.8c0-0.4,0.3-1.4,0.4-1.8c-0.3,0.3-1.2,0.8-1.6,1c-0.5,0.2-1,1-1.2,1.3l-1.1-2.4c0,0.5-0.3,1.6-0.5,2.1    c-0.3,0.6-1.4,1.7-1.4,1.8l-2.2-1.1c0.2,1,0,4.1,0.1,4.6c0.1,0.3,0.5,0.8,0.9,1.3c0.4,0.4,0.7,0.8,0.8,1.1c0.1,0.3,0,0.6-0.2,0.9    c-0.2,0.3-0.5,0.6-0.8,0.7c-0.7,0-1.2-0.6-1.3-0.7c0-0.1-0.2-1.7-0.3-2.3c-0.1-0.5-1-1.8-1.4-2.3c0-0.4,0.4-2.4,0.8-2.8    c0.4-0.4,2.1-1.5,2.5-1.7c0.1,0,0.4-0.6,0.5-1c0.2-0.5,0.4-0.9,0.6-1.1c0.4-0.4,1.4-0.8,1.5-0.8c-0.3,0-0.7-0.2-0.8-0.2    c-0.3,0-1.6-0.1-1.6-0.1l-0.1-1.8c0-0.2-0.5-1.1-0.9-1.7l-1.8,3l-1.3-1.6c0,0.3-1.8,2.6-1.8,3.9c0,1.3,1.5,4.6,1.5,4.7    c-0.5,0.2-1.3,0.1-1.4-0.2c-0.1-0.1-0.4-0.5-0.7-0.7c0.1,0.3,0,1.4,0,2c0,0.7,0.7,2.3,0.8,2.3l-0.9,0.2c0.8,1,2.3,3.3,2.7,3.7    c0.5,0.5,2,1.2,2,1.2c0.1,0.1,0.3,1.7,0.6,2.5c0.2,0.6,1.8,1.9,2.4,2.4l-0.8,1.8c-0.6-0.6-1.1-1.4-1.2-1.4    c-0.2-0.1-0.6-0.8-0.9-1.3c0,0.3-0.1,0.9-0.1,1.3c-0.1,0.3,0.2,0.9,0.4,1.5c0.2,0.6,0.4,1.1,0.4,1.5v3c-0.7-0.6-1.8-2.8-1.8-3.2    c0-0.2,0.1-1.3,0.1-2.4c0.1-1.1,0.1-2.2,0.1-2.4c0-0.3-0.7-2.1-0.9-2.4c-0.1-0.3-0.3-1-0.3-1.2c0,0.2-0.4,0.4-0.6,0.6    c-0.1,0.1-0.3,0.9-0.3,1.5l-1.8-1.9l0.2,0.8c-0.6-0.2-1.1-0.7-1.4-0.7c-0.5,0-1.2-1-1.4-1.4c0,0.3-0.2,1.1-0.1,1.6l0.4,2l-1.8,0.2    c0.3,0.1,0.6,0.5,0.8,0.9l0.2,0.8c0.4,1.1,1,3.3,1.5,3.9c0.4,0.5,1.8,0.9,3,1.3c0.8,0.2,1.5,0.4,1.8,0.6c0.8,0.5,1.3,2.9,1.3,3    c-1.1-0.4-2-0.9-2.2-0.9c0.3,0.6,0.4,0.9,0.4,1.1c0,0.2,0.4,0.9,0.6,1.3c-0.7,0-2-0.5-2.4-0.5h-2.6c0.2,0.2,0.5,1.1,0.7,1.5    c0.2,0.4,1,1,1.2,1.2c0,0.2-0.6,1.3-0.7,1.6c-0.1,0.2-0.4,1.4-0.5,2.1l1.2-0.3c0.1,0.3-0.4,0.5-0.5,1c-0.1,0.3,0.1,1.3,0.2,1.7    c0.1-0.3,1.2-1.4,2-1.4c0.9,0,2.7-0.2,3.5-0.5c0.5-0.1,1.1-1,1.5-1.6c0.3-0.5,0.4-0.6,0.6-0.6c0.2,0.5,0.9,1.4,1.3,1.9    c-0.2,0.3-1.6,0.6-2,0.6c-0.3,0-1.3,0.4-1.8,0.7l1.5,0.5l-1.8,0.8c-0.9,0.2-1.5,1-2,1.6c-0.2,0.3-0.4,0.6-0.5,0.9    c-0.2,0.4-0.3,0.7-0.5,0.8l-0.3-0.1c0.3-0.2,0.4-0.5,0.6-0.8c0.1-0.3,0.3-0.6,0.5-0.9c0.5-0.6,1.2-1.4,2.1-1.7l1.8-0.5l-1.6-0.4    c0.3-0.4,1.6-1.1,2-1.1c0.3,0,1.5-0.3,1.9-0.4c-0.3,0-1.1-0.8-1.2-1.4c0,0.1-0.1,0.3-0.2,0.4c-0.5,0.6-1.1,1.5-1.6,1.7    c-0.9,0.3-2.7,0.5-3.6,0.5c-0.7,0-1.7,1-2.1,1.3c-0.3-0.2-0.7-1.5-0.5-2c0.1-0.6,0.7-0.8,0.7-0.9l-1.3,0.4    c-0.1-0.5,0.2-2.1,0.4-2.4c0.1-0.2,0.7-1.2,0.8-1.3c0,0.1-1-0.6-1.3-1.1c-0.3-0.5-0.6-1.8-0.6-1.8l2.8-0.2c0.5,0,1.6,0.4,2.1,0.6    c-0.3-0.3-0.6-0.8-0.6-1.1l-0.3-1.3c0.5-0.1,1.8,0.7,2.3,1.1c-0.4-0.5-0.9-2.2-1.4-2.6c-0.3-0.2-1-0.4-1.7-0.6    c-1.3-0.4-2.8-0.8-3.2-1.4c-0.5-0.7-1.2-2.8-1.6-4l-0.2-0.8c-0.2-0.7-0.9-1-0.9-1l0.1,0c0-0.1,0.2-0.1,0.3,0l1.7-0.3l-0.5-1.8    c-0.1-0.8,0.3-1.9,0.3-2c0.6,0.5,1.3,1.4,1.6,1.4c0.6,0,1.3,0.8,1.4,0.9l-0.1-0.8l1.8,1.9c-0.2-0.3,0-1.3,0.2-1.6    c0.3-0.3,0.9-0.5,0.9-0.5c0.3,0.5,0.4,1,0.5,1.2c0.1,0.2,0.9,2.1,0.9,2.6c0,0.2-0.1,1.3-0.1,2.4c-0.1,1.1-0.1,2.2-0.1,2.4    c0,0.2,0.8,1.8,1.5,3.2l-0.3-2.9c0-0.3-0.2-0.9-0.4-1.4c-0.2-0.7-0.5-1.3-0.4-1.7c0.1-0.6,0.2-1.6,0.2-1.6    c0.7,0.6,1.1,1.3,1.3,1.4c0.3,0.1,0.9,1.2,1.1,1.6l0.6-1.6c0,0-2.2-1.6-2.4-2.4c-0.3-0.7-0.5-2.3-0.5-2.4c0.1,0.2-1.5-0.6-2-1.2    c-0.5-0.5-2.5-3.9-2.6-4l0.9-0.2c-0.2,0-0.9-1.5-0.9-2.2c0-0.8,0.1-2.3,0.1-2.3h0c0.4,0,1.1,0.5,1.2,0.8c0.1,0.1,0.5,0.2,1,0.3    c-0.3-0.2-1.7-3.2-1.7-4.6c0-1.4,2-4,2.1-4.1l1.3,1.6l1.8-3c0.4,0.2,1.2,1.4,1.2,1.8v1.6c0.1-0.1,1.1,0,1.4,0c0.3,0,0.8,0.4,1,0.5    c-0.1,0.3-1,0.6-1.4,1c-0.2,0.1-0.3,0.6-0.5,1c-0.3,0.7-0.5,1.1-0.7,1.2c-0.4,0.1-2,1.2-2.4,1.6c-0.2,0.2-0.6,1.7-0.7,2.5    c0,0,0,0,0,0c0.1,0,1.3,1.7,1.4,2.3c0.1,0.6,0.3,2.3,0.3,2.3c0.1,0.1,0.5,0.5,0.9,0.5c0.3-0.1,0.6-0.3,0.7-0.5    c0.1-0.2,0.2-0.5,0.2-0.6c-0.1-0.2-0.4-0.6-0.7-1c-0.4-0.5-0.9-1-1-1.4c-0.1-0.6,0.1-4.6,0.1-4.8l2.3,1c0-0.1,1-1.1,1.2-1.7    c0.3-0.6,0.6-2.3,0.6-2.3l0,0.1c0,0,0.1,0.1,0.1,0.1l1,2.2c0-0.3,0.6-1.1,1.1-1.3c0.6-0.2,1.9-1,1.9-1c0,0.9-0.3,1.7-0.3,1.9    c0.1,3.3,0,4.9-0.1,5.2c-0.2,0.4-2,2.2-3.6,3.6c-0.4,0.4-0.5,1.4-0.5,2.3l2.2-2.2c0.3,0.1,0.5,1.2,0.6,1.8    c0.1,0.6,0.1,1.3,0.1,1.3c0.1-0.3,1.1-0.6,1.4-0.8c0.8-0.1,1.3,0.2,1.3,0.3c0,0.3-0.3,1.2-0.6,1.5c-0.1,0.1-0.4,0.7-0.6,1.2    c-0.4,0.9-0.7,1.6-0.9,1.8c-0.2,0.2-0.8,0.5-1.4,0.8c-0.6,0.3-1.4,0.7-1.5,0.8c-0.1,0.2-0.5,0.6-1,1.2c-0.6,0.7-1.4,1.7-1.7,2.1    c-0.2,0.3-0.4,0.9-0.4,1.3c0.2-0.7,0.7-1.7,1.1-2c0.6-0.5,2.1-2.2,2.1-2.2l0.6,1.9c0-0.2,1.2-1.1,1.7-1.2l3.2-0.8    c-0.7,1-1.6,1.8-1.6,2c0,0.4-0.3,2.4-1,3c-0.4,0.3-1.8,1.2-2.8,1.8c0.5,0.2,1.3,1,1.4,1.5c0.1,0.4,0.2,2.3,0.2,3.3    c0-0.1,0-0.1,0-0.2c0.2-1,0.7-1.7,1.1-2.4c0.2-0.3,0.4-0.6,0.5-0.9c0.2-0.7,0.3-1.4,0.3-1.5c0.3-0.1,1.4,1.2,1.7,1.9    c0.1-0.6,0.5-0.9,1-1.2c0.5,0.4,1.4,2.8,1.5,3.3c0.1-0.7,0.7-1.5,1.2-2c0.7,0.7,1.5,2.6,1.3,3.6c-0.4,1.3-1,2.2-1.8,2.7    c-0.8,0.5-1.4,0.8-1.4,0.8c0.5-0.2,1.8,0.3,2.2,0.3c0.5,0,1.3,0.4,1.3,0.4l-0.1,0.1c0,0-0.1,0-0.1,0l-2.2,0.9c0.6-0.1,1.8,0,2.5,0    c0.4-0.9,0.2-1.8,0-2.2c-0.4-0.8-0.5-1.6-0.5-1.7c0.2-0.2,1.3,0.2,1.8,0.2l0.9,0c0.4-0.1,0.2-0.5,0-0.8c-0.4-1-0.6-1.3-0.5-1.5    c0.3-0.1,0.5,0.1,1.6,0.9c0.7,0.6,1.9,1.5,2.1,1.5c-0.1-0.4,1.1-2.7,1.3-3.1c0.3,0,1.5,2.3,1.6,2.7c0.2,0.5,0.2,1.9,0.2,2.3    c0,0.9-0.8,2.1-0.9,2.2l0,0c0.1,0,1.8,2.6,2.9,3.5c0.3,0.3,0.8,0.9,1.5,1.6c1.5,1.7,3.7,4.2,6,5.6c1.1,0.7,1.6,0.9,2.1,1.2    l1.1,0.6L262.5,288.5L262.5,288.5z M233.7,267.5c0,0.2,0,0.3,0,0.4c-0.1,0.7-0.2,2.1,0,2.4c0.3,0.4,1.1,1.2,1.4,1.5    c-0.1-0.1-0.2-0.4-0.3-0.7C234.3,270.1,233.6,268.5,233.7,267.5L233.7,267.5z M231.9,262.8c-0.5,0.3-0.8,0.5-0.9,0.5    c-0.2,0.1-0.4,0.9-0.4,1.4c0,0.2,0.2,0.5,0.3,0.7c0-0.3,0.3-0.9,0.7-1.3C231.9,263.7,231.9,263.1,231.9,262.8L231.9,262.8z"/></g><g><path class="st15" d="M221.8,268.7l-0.2-0.2c0.6-0.7,1.3-0.8,1.9-0.8c0.3,0,0.6-0.1,0.9-0.2    c0.8-0.4,2.2-1.1,2.2-1.1c0.2,0.3-1.3,1-2,1.4c-0.3,0.2-0.6,0.2-1,0.2C222.9,268.1,222.4,268.2,221.8,268.7L221.8,268.7z" id="XMLID_161_"/></g><g><path class="st15" d="M223,269.5c-0.1-0.3,1.6-0.7,2.2-1c0.2-0.1,0.6-0.6,1-1.2c0.7-0.9,1.5-2,2.4-2.6l0.2,0.3    c-0.9,0.6-1.7,1.6-2.4,2.5c-0.5,0.6-0.8,1.1-1.1,1.2C224.7,269.2,223.1,269.5,223,269.5L223,269.5z" id="XMLID_160_"/></g><g><path class="st15" d="M223.4,270.2l0-0.3c0.6,0,2.2-0.2,2.6-0.6c0.5-0.5,1.4-1.1,1.4-1.1c0.2,0.3-0.7,0.9-1.2,1.4    C225.6,270,223.6,270.2,223.4,270.2L223.4,270.2z" id="XMLID_159_"/></g><g><path class="st17" d="M232.4,264.8v2.2V264.8z" id="XMLID_158_"/></g><g><path class="st15" d="M225.7,274.7l0-0.3c2.1-0.2,4.7-0.9,4.9-1C230.9,273.9,226.4,274.6,225.7,274.7L225.7,274.7    z" id="XMLID_157_"/></g><g><path class="st15" d="M227.9,276c-0.1,0-0.1,0-0.2,0l0-0.3c2.4,0.2,4.8-2.4,4.9-2.4    C232.7,273.6,230.4,276,227.9,276L227.9,276z" id="XMLID_156_"/></g><g><path class="st15" d="M233.7,273.3c-1.9,0-3.9-0.2-5.2-1l0.2-0.3c3,1.7,10.1,0.6,10.1,0.6    C238.7,272.8,236.3,273.3,233.7,273.3L233.7,273.3z" id="XMLID_155_"/></g><g><path class="st15" d="M236.4,271.4c-0.1-0.3,0.1-0.8,0.3-5l0.3,0C236.8,271.4,236.6,271.4,236.4,271.4    L236.4,271.4z" id="XMLID_154_"/></g><g><path class="st17" d="M235.4,269c0.1-1.4,0.3-1.9,0.3-1.9L235.4,269z" id="XMLID_153_"/></g><g><path class="st17" d="M236,264.7c0,0.3-0.1,1.7-0.1,1.7L236,264.7z" id="XMLID_152_"/></g><g><path class="st15" d="M238.3,270.5l-0.3-0.1c0.6-1.2,0.6-2.3,0.6-2.3C239,268.1,239,269.2,238.3,270.5    L238.3,270.5z" id="XMLID_151_"/></g><g><path class="st17" d="M238.1,267.4l-0.1,0.9L238.1,267.4z" id="XMLID_150_"/></g><g><path class="st17" d="M240.3,268.3c-0.5,1.2-0.8,1.2-0.8,1.2L240.3,268.3z" id="XMLID_149_"/></g><g><path class="st15" d="M246.7,272.9c-0.4,0-2.7-2.2-4.1-2.9l0.1-0.3C244.3,270.5,246.6,272.8,246.7,272.9    C246.7,272.9,246.7,272.9,246.7,272.9L246.7,272.9z" id="XMLID_148_"/></g><g><path class="st15" d="M248.1,272.1c-0.3,0-1.4-1.5-2.6-2.2l0.2-0.3C247,270.4,248.1,272,248.1,272.1    C248.2,272,248.1,272.1,248.1,272.1L248.1,272.1z" id="XMLID_147_"/></g><g><path class="st15" d="M248.7,274.2c-0.2-0.2,0.9-2.2-0.6-3.8l0.2-0.2C250,272,248.7,274.2,248.7,274.2    L248.7,274.2z" id="XMLID_146_"/></g><g><path class="st17" d="M250,268.8l-0.4,3L250,268.8z" id="XMLID_145_"/></g><g><path class="st15" d="M222.3,257.5c-0.3,0-1.1-0.6-1.5-1.2c-0.3-0.4-0.4-0.8-0.4-1.1c0-0.3-0.1-0.5-0.2-0.7    c-0.5-0.9-1-1.7-2.5-2.1l0.1-0.3c1.5,0.4,2.1,1.3,2.4,1.9c0.4,0.6,0.4,0.9,0.5,1.2c0.1,0.3,0.1,0.7,0.4,1c0.5,0.6,1.4,1.4,1.4,1.4    C222.4,257.5,222.4,257.5,222.3,257.5L222.3,257.5z" id="XMLID_144_"/></g><g><path class="st15" d="M225.1,259.5c-0.3,0-0.8-1-1.1-1.5h0l-0.9-0.5c-0.4-0.2-0.7-0.8-1-1.7    c-0.1-0.3-0.2-0.5-0.3-0.6l-0.1-0.6c0-0.9,0.1-2.4-2.4-2.5l0-0.3c2.8,0.2,2.7,2,2.7,2.9c0.1,0.6,0.2,0.8,0.3,1.1    c0.2,0.5,0.6,1.4,0.9,1.5c0.7,0.2,0.8,0.2,1.1,0.5C224.7,258.3,225.2,259.4,225.1,259.5C225.2,259.5,225.2,259.5,225.1,259.5    L225.1,259.5z" id="XMLID_143_"/></g><g><path class="st15" d="M220.8,252.1c-0.3-0.1-0.1-0.8-0.8-1.6c-0.7-0.8-1-1-1-1l0.1-0.3c0,0,0.3,0.2,1.1,1    C221.1,251.3,220.9,252.1,220.8,252.1L220.8,252.1z" id="XMLID_142_"/></g><g><path class="st15" d="M223.2,254.5c-0.3,0-1.4-1.9-0.8-3.7l0.3,0.1C222.2,252.5,223.3,254.5,223.2,254.5    C223.3,254.5,223.2,254.5,223.2,254.5L223.2,254.5z" id="XMLID_141_"/></g><g><path class="st15" d="M224.2,254.9c-0.3-0.2,0.8-2.3-0.6-3.3l0.2-0.3C225.4,252.5,224.2,254.9,224.2,254.9    L224.2,254.9z" id="XMLID_140_"/></g><g><path class="st17" d="M223.9,255.9l-0.1,1.9L223.9,255.9z" id="XMLID_139_"/></g><g><path class="st17" d="M228,250.5c1,0.5,1.2,1.9,1.2,1.9L228,250.5z" id="XMLID_138_"/></g><g><path class="st15" d="M229.9,260.8c-0.3-0.1-0.3-0.2,0.4-1.1c0.6-0.8,1.5-3.3,1.5-3.3l0.3,0.1    c0,0.1-0.9,2.5-1.6,3.4C230,260.6,229.9,260.8,229.9,260.8L229.9,260.8z" id="XMLID_137_"/></g><g><path class="st15" d="M229.7,263.5l-0.3-0.1c0.9-3,2.5-3.6,2.5-3.6C232,260.1,230.5,260.6,229.7,263.5    L229.7,263.5z" id="XMLID_136_"/></g><g><path class="st15" d="M231.1,261.2l-0.1-0.3c2.6-1,4.6-4.1,4.7-4.2C235.8,257,233.8,260.2,231.1,261.2    L231.1,261.2z" id="XMLID_135_"/></g><g><path class="st15" d="M222.1,266.8l-0.2-0.3c1.9-1.1,2.5-1,3.2-1.1c0.3,0,0.6,0,1-0.1c1.2-0.3,1.8-1.2,1.8-1.2    c0.2,0.2-0.4,1.1-1.7,1.5c-0.5,0.1-0.8,0.1-1.1,0.1C224.5,265.7,223.9,265.7,222.1,266.8L222.1,266.8z" id="XMLID_134_"/></g><g><path class="st15" d="M224.9,265c-0.5,0-2.9-1.2-4.4-0.9l-0.1-0.3C222.2,263.5,224.9,265,224.9,265    C225,265,224.9,265,224.9,265L224.9,265z" id="XMLID_133_"/></g><g><path class="st15" d="M227.4,264.2c-0.3,0-0.8-1.7-3-1.9l0-0.3C226.8,262.3,227.4,264.2,227.4,264.2    C227.4,264.2,227.4,264.2,227.4,264.2L227.4,264.2z" id="XMLID_132_"/></g><g><path class="st15" d="M232,271.7c-0.3,0-0.9-0.5-4.7-0.2l0-0.3C231.6,270.9,232.1,271.5,232,271.7    C232.1,271.7,232.1,271.7,232,271.7L232,271.7z" id="XMLID_131_"/></g><g><path class="st17" d="M230.8,267.6c-0.1-1.6-0.1-2-0.1-2L230.8,267.6z" id="XMLID_130_"/></g><g><path class="st15" d="M229.8,257.5l-0.3-0.2c1.9-3.3,4-5.4,4-5.4C233.7,252.2,231.7,254.2,229.8,257.5    L229.8,257.5z" id="XMLID_129_"/></g><g><path class="st15" d="M233.4,253.5l-0.2-0.3c1-0.7,3-3.7,3-3.7C236.5,249.8,234.5,252.7,233.4,253.5L233.4,253.5z    " id="XMLID_128_"/></g><g><path class="st15" d="M230.2,253.2c-0.1-1.5-0.2-2.5-0.3-3.2c-0.2-1.5-0.2-2.1,0.3-3.1c0.4-0.8,1.1-1.4,1.7-1.9    c0.5-0.5,0.9-0.8,1-1.2c0.5-1.3,0.9-2.3,0.9-3.4c0-1.5,1.3-2.8,1.3-2.9c0.2,0.2-1,1.4-1,2.9c0,1.2-0.4,2.3-0.7,3    c-0.3,0.9-0.8,1.3-1.3,1.8c-0.6,0.5-1.2,1.1-1.6,1.8c-0.5,0.9-0.4,1.3-0.3,2.9c0.1,0.8,0.2,1.8,0.3,3.3L230.2,253.2L230.2,253.2z" id="XMLID_127_"/></g><g><path class="st15" d="M230.3,250.5c-0.3,0-1.1-3-0.8-4c0.1-0.3,0.4-0.6,0.8-1.1c1.2-1.2,3.1-3.1,2.3-6.7l0.3-0.1    c0.9,3.8-1.1,5.8-2.3,7c-0.4,0.4-0.7,0.7-0.7,0.9C229.6,247.6,230.3,250.5,230.3,250.5L230.3,250.5z" id="XMLID_126_"/></g><g><path class="st15" d="M226.4,248.1c-0.4,0-2.1-1.6-4.2-3.1l0.2-0.3C224.6,246.3,226.4,248.1,226.4,248.1    C226.4,248.1,226.4,248.1,226.4,248.1L226.4,248.1z" id="XMLID_125_"/></g><g><path class="st15" d="M227,246.7c-0.4,0-1.1-0.3-1.7-0.5c-0.4-0.1-0.8-0.4-1.2-0.6c-0.4-0.2-0.8-0.4-0.9-0.4v-0.3    c0.2,0,0.6,0.2,1.1,0.5c0.4,0.2,0.8,0.4,1.1,0.5c0.8,0.2,1.8,0.8,1.8,0.8C227.1,246.6,227.1,246.7,227,246.7L227,246.7z" id="XMLID_124_"/></g><g><path class="st15" d="M225.7,245.4c-0.3-0.1-0.2-0.6-0.7-1.3c-0.1-0.2-0.5-0.5-0.8-0.8c-0.8-0.6-1.8-1.5-2-2.8    l0.3,0c0.2,1.1,1.1,1.9,1.9,2.6c0.4,0.3,0.7,0.6,0.9,0.8C225.8,244.7,225.7,245.4,225.7,245.4L225.7,245.4z" id="XMLID_123_"/></g><g><path class="st17" d="M229.6,268.3v-1.7V268.3z" id="XMLID_122_"/></g><g><path class="st15" d="M229.2,244.7c-0.1-2,0.2-4.6,0.3-4.6c0.3,0.1-0.1,2.7,0.1,4.6L229.2,244.7L229.2,244.7z" id="XMLID_121_"/></g><g><path class="st15" d="M230.7,244.1c-0.3-0.2,0.7-2.3,0.7-4.7h0.3C231.7,241.9,230.7,244,230.7,244.1L230.7,244.1z    " id="XMLID_120_"/></g><g><path class="st15" d="M229.2,243.9c-0.4-1-0.5-1.5-0.6-2c0-0.2-0.1-0.5-0.2-0.8c-0.2-0.9-0.5-1.2-0.5-1.2    c0.2-0.2,0.5,0.1,0.8,1.1c0.1,0.3,0.1,0.6,0.2,0.8c0.1,0.5,0.2,0.9,0.6,1.9L229.2,243.9L229.2,243.9z" id="XMLID_119_"/></g><g><path class="st15" d="M225.5,241.2l-0.3,0c0.1-2.1,0.6-3.2,0.9-3.9c0.2-0.5,0.4-0.8,0.3-1.2    c-0.3-1.1-0.5-1.7-0.5-1.7c0.3-0.1,0.6,0.5,0.8,1.6c0.1,0.5-0.1,0.9-0.3,1.4C226,238.2,225.5,239.2,225.5,241.2L225.5,241.2z" id="XMLID_118_"/></g><g><path class="st15" d="M226.6,236.8c-0.2-0.2,0.8-1.8,2.2-2.5l0.1,0.3C227.6,235.3,226.6,236.8,226.6,236.8    L226.6,236.8z" id="XMLID_117_"/></g><g><path class="st15" d="M226.1,239.6l-0.3-0.1c0.7-1.7,1.5-2.9,2.3-3.5c0.8-0.7,1.9-0.4,1.9-0.4    c-0.1,0.3-1,0.1-1.7,0.7C227.6,236.8,226.8,237.9,226.1,239.6L226.1,239.6z" id="XMLID_116_"/></g><g><path class="st17" d="M224.7,234.5c-0.1,1.1,0.4,2.4,0.4,2.4L224.7,234.5z" id="XMLID_115_"/></g><g><path class="st15" d="M226.5,235.8l-0.3-0.2c1-1.6,1.2-4,1.3-4C227.7,231.8,227.5,234.2,226.5,235.8L226.5,235.8z    " id="XMLID_114_"/></g><g><path class="st15" d="M231.9,253.3l-0.3,0c0.3-2.6,1.8-5.8,1.8-5.8C233.6,247.7,232.1,250.8,231.9,253.3    L231.9,253.3z" id="XMLID_113_"/></g><path class="st18" d="M225.3,241c0-0.5-0.4-0.9-0.8-0.9c-0.4,0-0.8,0.4-0.8,0.9c0,0.5,0.4,0.9,0.8,0.9   C225,241.9,225.3,241.5,225.3,241L225.3,241z" id="XMLID_112_"/><g><path class="st15" d="M224.5,242.1c-0.5,0-1-0.5-1-1.1c0-1.2,1.9-1.2,1.9,0C225.5,241.6,225.1,242.1,224.5,242.1    L224.5,242.1z" id="XMLID_111_"/></g><path class="st18" d="M226.7,242.3c0-0.5-0.4-0.9-0.8-0.9c-0.4,0-0.8,0.4-0.8,0.9s0.4,0.9,0.8,0.9   C226.3,243.2,226.7,242.8,226.7,242.3L226.7,242.3z" id="XMLID_110_"/><g><path class="st15" d="M225.9,243.4c-0.5,0-1-0.5-1-1.1c0-1.2,1.9-1.2,1.9,0C226.9,242.9,226.4,243.4,225.9,243.4    L225.9,243.4z" id="XMLID_109_"/></g><path class="st18" d="M229.8,248.9c0-0.5-0.4-0.9-0.8-0.9c-0.5,0-0.8,0.4-0.8,0.9s0.4,0.9,0.8,0.9   C229.4,249.8,229.8,249.4,229.8,248.9L229.8,248.9z" id="XMLID_108_"/><g><path class="st15" d="M229,250c-0.5,0-1-0.5-1-1.1c0-1.2,1.9-1.2,1.9,0C229.9,249.5,229.5,250,229,250L229,250z" id="XMLID_107_"/></g><path class="st18" d="M231.4,249.9c0-0.5-0.4-0.9-0.8-0.9c-0.4,0-0.8,0.4-0.8,0.9s0.4,0.9,0.8,0.9   C231,250.8,231.4,250.4,231.4,249.9L231.4,249.9z" id="XMLID_106_"/><g><path class="st15" d="M230.6,251c-0.5,0-1-0.5-1-1.1c0-1.2,2-1.2,2,0C231.6,250.5,231.1,251,230.6,251L230.6,251z    " id="XMLID_105_"/></g><path class="st18" d="M225.4,259.6c0-0.5-0.4-0.9-0.8-0.9s-0.8,0.4-0.8,0.9s0.4,0.9,0.8,0.9   S225.4,260.1,225.4,259.6L225.4,259.6z" id="XMLID_104_"/><g><path class="st15" d="M224.6,260.6c-0.5,0-1-0.5-1-1.1c0-1.2,2-1.2,2,0C225.6,260.2,225.1,260.6,224.6,260.6    L224.6,260.6z" id="XMLID_103_"/></g><path class="st18" d="M229.4,261.6c0-0.5-0.4-0.9-0.8-0.9c-0.5,0-0.8,0.4-0.8,0.9s0.4,0.9,0.8,0.9   C229,262.5,229.4,262.1,229.4,261.6L229.4,261.6z" id="XMLID_102_"/><g><path class="st15" d="M228.6,262.7c-0.5,0-1-0.5-1-1.1c0-1.2,1.9-1.2,1.9,0C229.6,262.2,229.1,262.7,228.6,262.7    L228.6,262.7z" id="XMLID_101_"/></g><path class="st18" d="M231.8,269.5c0-0.5-0.4-0.9-0.8-0.9c-0.4,0-0.8,0.4-0.8,0.9s0.4,0.9,0.8,0.9   C231.4,270.4,231.8,270,231.8,269.5L231.8,269.5z" id="XMLID_100_"/><g><path class="st15" d="M230.9,270.6c-0.5,0-1-0.5-1-1.1c0-1.2,2-1.2,2,0C231.9,270.1,231.5,270.6,230.9,270.6    L230.9,270.6z" id="XMLID_99_"/></g><path class="st18" d="M236,271.7c0-0.5-0.4-0.9-0.8-0.9c-0.5,0-0.8,0.4-0.8,0.9s0.4,0.9,0.8,0.9   C235.6,272.6,236,272.2,236,271.7L236,271.7z" id="XMLID_98_"/><g><path class="st15" d="M235.2,272.8c-0.5,0-1-0.5-1-1.1c0-1.2,1.9-1.2,1.9,0C236.2,272.3,235.7,272.8,235.2,272.8    L235.2,272.8z" id="XMLID_97_"/></g><path class="st18" d="M238.2,271.6c0-0.5-0.4-0.9-0.8-0.9c-0.5,0-0.8,0.4-0.8,0.9s0.4,0.9,0.8,0.9   C237.8,272.5,238.2,272.1,238.2,271.6L238.2,271.6z" id="XMLID_96_"/><g><path class="st15" d="M237.4,272.7c-0.5,0-1-0.5-1-1.1c0-1.2,2-1.2,2,0C238.3,272.2,237.9,272.7,237.4,272.7    L237.4,272.7z" id="XMLID_95_"/></g><path class="st18" d="M244.9,273.1c0-0.5-0.4-0.9-0.8-0.9c-0.4,0-0.8,0.4-0.8,0.9s0.4,0.9,0.8,0.9   C244.5,274,244.9,273.6,244.9,273.1L244.9,273.1z" id="XMLID_94_"/><g><path class="st15" d="M244,274.2c-0.5,0-1-0.5-1-1.1c0-1.2,1.9-1.2,1.9,0C245,273.7,244.6,274.2,244,274.2    L244,274.2z" id="XMLID_93_"/></g><g><path class="st17" d="M292.2,285.9c-1-1.7-1.7-1.8-1.7-1.8L292.2,285.9z" id="XMLID_92_"/></g><g><path class="st17" d="M291.9,286.5c-1-1.7-1.7-1.8-1.7-1.8L291.9,286.5z" id="XMLID_91_"/></g><g><path class="st17" d="M291.4,287c-1-1.7-1.7-1.8-1.7-1.8L291.4,287z" id="XMLID_90_"/></g><g><path class="st17" d="M291,287.6c-1-1.7-1.7-1.8-1.7-1.8L291,287.6z" id="XMLID_89_"/></g><g><path class="st17" d="M290.5,288c-1-1.7-1.7-1.8-1.7-1.8L290.5,288z" id="XMLID_88_"/></g><g><path class="st17" d="M290.2,288.6c-1-1.7-1.7-1.8-1.7-1.8L290.2,288.6z" id="XMLID_87_"/></g><g><path class="st17" d="M289.6,289c-1-1.7-1.7-1.8-1.7-1.8L289.6,289z" id="XMLID_86_"/></g><g><path class="st17" d="M289.3,289.6c-1-1.7-1.7-1.8-1.7-1.8L289.3,289.6z" id="XMLID_85_"/></g><g><path class="st17" d="M288.9,290c-1-1.7-1.7-1.8-1.7-1.8L288.9,290z" id="XMLID_84_"/></g><g><g><defs><rect height="6.9" id="XMLID_82_" width="12.7" x="278.4" y="281.5"/></defs><clipPath id="XMLID_390_"><use style="overflow:visible;" xlink:href="#XMLID_82_"/></clipPath><path class="st19" d="M291.1,284.5c-2.5-2.4-5.6-1.6-6.9-1.8c-0.8-0.8-2.5-1.6-3.8-1.1c-1.3,0.5-2,3.2-2,3.6     c0,0.7,1.4,1.3,2.5,1.4c1.1,0.1,3.7,0.1,4.5,0.2c0.9,0.1,2.1,1.5,2.1,1.5S289.9,285.2,291.1,284.5L291.1,284.5z" id="XMLID_83_"/></g></g><g><path class="st3" d="M287.4,288.8l-0.2-0.2c-0.3-0.4-1.3-1.4-1.9-1.4c-0.4,0-1.3-0.1-2.2-0.1c-0.9,0-1.8,0-2.3-0.1    c-1.1-0.1-2.7-0.7-2.7-1.7c0-0.5,0.8-3.3,2.2-3.9c1.3-0.5,3.1,0.3,4.1,1.2l1.9-0.1c1.5,0,3.4,0.2,5.1,1.8c-1.2,1-3.6,4.1-3.7,4.2    L287.4,288.8L287.4,288.8z M281.2,281.7c-0.3,0-0.5,0-0.8,0.1c-1.1,0.5-1.9,3-1.9,3.4c0,0.5,1.1,1.1,2.2,1.2    c0.5,0,1.4,0.1,2.3,0.1c0.9,0,1.8,0,2.3,0.1c0.7,0.1,1.6,0.9,2,1.4c0.6-0.8,2.5-3.1,3.6-3.7c-1.6-1.1-3.4-1.3-4.7-1.3l-1.5,0    l-0.7-0.1C283.4,282.4,282.2,281.7,281.2,281.7L281.2,281.7z"/></g><g><g><defs><rect height="5.3" id="XMLID_78_" width="14" x="271.4" y="279.5"/></defs><clipPath id="XMLID_391_"><use style="overflow:visible;" xlink:href="#XMLID_78_"/></clipPath><path class="st20" d="M283.9,284.3c0-1.3-0.8-1.9-1.6-1.7c-1.1,0.2-5.3,2.1-6.9,2.2c-1.4,0.1-3.9-1.4-3.9-2.3     c0-0.9,3.6-2.2,3.6-2.2l2.5,0.8c0,0,3.2-1.5,5-1.5c1.9,0,3,1.2,2.9,2.1C285.4,282.5,283.9,284.5,283.9,284.3L283.9,284.3z" id="XMLID_79_"/></g></g><g><path class="st3" d="M275.2,285c-0.7,0-1.7-0.3-2.6-0.9c-0.4-0.3-1.5-1-1.5-1.7c0-1,2.9-2.1,3.8-2.4l2.6,0.7c-0.1,0,3.1-1.5,5-1.5    c1.1,0,2.1,0.4,2.7,1c0.4,0.4,0.5,0.9,0.5,1.3c-0.1,0.8-1.4,3-1.8,3c-0.3-1.3-0.8-1.8-1.4-1.8c-0.6,0.1-1.4,0.4-2.3,0.7    c-1.7,0.6-3.8,1.4-4.9,1.4L275.2,285L275.2,285z M274.9,280.5c-1.5,0.6-3.3,1.5-3.3,1.9c0,0.3,0.4,0.8,1.2,1.3    c0.8,0.5,1.7,0.8,2.3,0.8v0.3l0.1-0.3c1-0.1,3.1-0.8,4.7-1.4c1-0.4,1.8-0.6,2.2-0.7c1-0.1,1.8,0.6,1.9,1.8c0.1-0.6,1-1.9,1-2.6    c0-0.3-0.1-0.6-0.4-0.9c-0.5-0.6-1.3-0.9-2.3-0.9c-1.8,0-4.9,1.5-4.9,1.5L274.9,280.5L274.9,280.5z"/></g><g><path class="st3" d="M282.4,285.4c-0.1,0-0.2,0-0.3,0c-0.8,0-1.6-0.2-2.2-0.4c-0.7-0.2-1,0-1.3,0.4    c-0.3-0.5,0.2-1,0.7-1c0.2,0,0.4,0.1,0.8,0.1c0.6,0.1,1.3,0.3,2.1,0.4c1.6,0,1.7-0.7,1.7-1l0.5,0.1    C284.3,284.4,283.9,285.4,282.4,285.4L282.4,285.4z" id="XMLID_75_"/></g><g><path class="st3" d="M220.2,286.1l-0.4-0.3c1.1-1.7,1.8-1.9,1.9-1.9C221.8,284.3,221.2,284.6,220.2,286.1    L220.2,286.1z" id="XMLID_74_"/></g><g><path class="st3" d="M220.6,286.6l-0.4-0.3c1-1.7,1.8-1.9,1.9-2C222.1,284.9,221.5,285.1,220.6,286.6L220.6,286.6z    " id="XMLID_73_"/></g><g><path class="st3" d="M221.1,287.1l-0.4-0.3c1.1-1.7,1.8-1.9,1.9-1.9C222.6,285.4,222,285.6,221.1,287.1    L221.1,287.1z" id="XMLID_72_"/></g><g><path class="st3" d="M221.4,287.7l-0.4-0.3c1-1.7,1.8-1.9,1.9-1.9C223,286,222.3,286.2,221.4,287.7L221.4,287.7z" id="XMLID_71_"/></g><g><path class="st3" d="M221.9,288.1l-0.4-0.3c1.1-1.7,1.8-1.9,1.9-1.9C223.5,286.4,222.9,286.6,221.9,288.1    L221.9,288.1z" id="XMLID_70_"/></g><g><path class="st3" d="M222.3,288.7l-0.4-0.3c1-1.7,1.8-1.9,1.9-2C223.8,287,223.2,287.2,222.3,288.7L222.3,288.7z" id="XMLID_69_"/></g><g><path class="st3" d="M222.8,289.1l-0.4-0.3c1-1.7,1.8-1.9,1.9-1.9C224.3,287.4,223.7,287.6,222.8,289.1    L222.8,289.1z" id="XMLID_68_"/></g><g><path class="st3" d="M223.1,289.7l-0.4-0.3c1.1-1.7,1.8-1.9,1.9-1.9C224.7,288,224.1,288.2,223.1,289.7    L223.1,289.7z" id="XMLID_67_"/></g><g><path class="st3" d="M223.6,290.1l-0.4-0.3c1-1.7,1.8-1.9,1.9-1.9C225.1,288.4,224.5,288.6,223.6,290.1    L223.6,290.1z" id="XMLID_66_"/></g><g><g><defs><rect height="6.9" id="XMLID_64_" width="12.7" x="221.1" y="281.5"/></defs><clipPath id="XMLID_392_"><use style="overflow:visible;" xlink:href="#XMLID_64_"/></clipPath><path class="st21" d="M221.1,284.5c2.5-2.4,5.6-1.6,6.9-1.8c0.8-0.8,2.5-1.6,3.8-1.1c1.3,0.5,2,3.2,2,3.6     c0,0.7-1.4,1.3-2.5,1.4c-1.1,0.1-3.7,0.1-4.5,0.2c-0.9,0.1-2.1,1.5-2.1,1.5S222.3,285.2,221.1,284.5L221.1,284.5z" id="XMLID_65_"/></g></g><g><path class="st3" d="M224.8,288.8l-0.2-0.3c0,0-2.5-3.1-3.6-3.8c1.6-2,3.5-2.2,5-2.2l1.5,0c1.4-0.8,3.2-1.6,4.4-1.1    c1.4,0.6,2.2,3.4,2.2,3.9c0,1-1.6,1.6-2.7,1.7c-0.5,0-1.4,0.1-2.3,0.1c-0.9,0-1.8,0-2.2,0.1c-0.6,0.1-1.6,1-1.9,1.4L224.8,288.8    L224.8,288.8z M226,283c-1.4,0-3.2,0.2-4.7,1.7c1,0.2,2.9,2.5,3.5,3.3c0.4-0.4,1.3-1.3,2-1.4c0.4,0,1.3-0.1,2.3-0.1    c0.9,0,1.7,0,2.3-0.1c1.1-0.1,2.2-0.7,2.2-1.2c0-0.3-0.7-2.9-1.9-3.4c-1-0.4-2.7,0.3-3.5,1.1l-0.1,0.1l-0.6,0L226,283L226,283z"/></g><g><g><defs><rect height="5.3" id="XMLID_60_" width="14" x="226.8" y="279.5"/></defs><clipPath id="XMLID_393_"><use style="overflow:visible;" xlink:href="#XMLID_60_"/></clipPath><path class="st22" d="M228.3,284.3c0-1.3,0.8-1.9,1.6-1.7c1.1,0.2,5.3,2.1,6.9,2.2c1.5,0.1,3.9-1.4,3.9-2.3     c0-0.9-3.6-2.2-3.6-2.2l-2.5,0.8c0,0-3.2-1.5-5-1.5c-1.9,0-3,1.2-2.9,2.1C226.8,282.5,228.3,284.5,228.3,284.3L228.3,284.3z" id="XMLID_61_"/></g></g><g><path class="st3" d="M237,285l-0.1,0c-1.1-0.1-3.2-0.8-4.9-1.4c-0.9-0.3-1.7-0.6-2.1-0.7c-0.7,0-1.3,0.5-1.3,1.5    c-0.6,0.3-2-2-2.1-2.7c0-0.5,0.1-0.9,0.5-1.3c0.6-0.7,1.6-1,2.6-1c1.9,0,5,1.5,5.2,1.5l2.3-0.8c1,0.3,3.9,1.4,3.9,2.4    C241,283.5,238.5,285,237,285L237,285z M229.7,282.3c0.7,0.1,1.5,0.4,2.5,0.8c1.7,0.6,3.7,1.4,4.7,1.4l0.1,0.3v-0.3    c1.4,0,3.6-1.4,3.6-2.1c0-0.4-1.8-1.4-3.4-1.9l-2.3,0.8c-0.2,0-3.3-1.5-5.1-1.5c-0.9,0-1.8,0.3-2.3,0.9c-0.3,0.3-0.4,0.6-0.4,0.9    c0.1,0.8,1.3,2.4,1.4,2.6C228,283,228.9,282.3,229.7,282.3L229.7,282.3z"/></g><g><path class="st3" d="M229.8,285.4c-1.6,0-1.9-0.9-2-1.5l0.5,0c0.1,0.8,0.7,1.1,1.7,1c0.8-0.1,1.6-0.2,2.1-0.4    c0.4-0.1,0.6-0.1,0.8-0.1c0.4,0,0.9,0.5,1,0.7c-0.6,0.1-0.9-0.2-1-0.2c-0.1,0-0.4,0.1-0.7,0.1c-0.6,0.1-1.4,0.3-2.2,0.4    C230,285.4,229.9,285.4,229.8,285.4L229.8,285.4z" id="XMLID_57_"/></g><g><g><defs><rect height="9.4" id="XMLID_55_" width="46.6" x="232.7" y="274"/></defs><clipPath id="XMLID_394_"><use style="overflow:visible;" xlink:href="#XMLID_55_"/></clipPath><path class="st23" d="M256.4,274c-16.8-0.4-23.6,2.8-23.7,5.2c-0.1,2.3,2,4.2,3.2,4.2c1.1,0,3.9-1.4,3.8-2     c-0.4-0.3-0.5-0.6-0.2-0.7c0.3-0.2,6.4-1.4,17-1.4c10.6,0,16.6,1.1,16.7,1.4c0.1,0.4-0.8,0.7-1.3,1.3c2.4-0.2,3,1.2,4.1,1.3     c1.1,0.1,3.3-1.5,3.3-3.8C279.4,276.9,272.3,274.4,256.4,274L256.4,274z" id="XMLID_56_"/></g></g><g><path class="st3" d="M235.9,283.6c-0.6,0-1.4-0.4-2.1-1.1c-0.9-0.9-1.4-2.1-1.3-3.3c0.1-2.6,6.8-5.4,21.3-5.4l2.7,0    c11.8,0.3,20.2,1.9,22.5,4.2c0.4,0.4,0.6,0.9,0.6,1.4c-0.1,2.3-2.2,4.1-3.5,4.1l0,0c-0.6,0-1-0.3-1.4-0.6    c-0.6-0.4-1.2-0.8-2.3-0.8h-0.6l-0.1-0.4c0.2-0.3,0.5-0.5,0.8-0.6c0.2-0.1,0.5-0.3,0.5-0.4c-0.4-0.2-6.2-1.2-16.4-1.2    c-10.2,0-16.4,1.1-16.9,1.4l0.3,0.2l-0.1,0.8C239.1,282.6,236.9,283.6,235.9,283.6L235.9,283.6z M253.8,274.2c-15,0-20.7,3-20.8,5    c0,1,0.4,2.1,1.2,2.9c0.6,0.6,1.2,1,1.7,1c1.1,0,3.5-1.3,3.6-1.7c-0.2,0-0.4-0.3-0.4-0.5c0.7-0.7,6.8-1.9,17.5-1.9    c9.4,0,16.8,0.9,16.9,1.6c0.1,0.4-0.3,0.7-0.7,0.9c-0.2,0.2-0.5,0.3-0.7,0.6c1.5-0.5,2.3,0,2.9,0.4c0.4,0.2,0.7,0.4,1,0.5h0    c1.1,0,3-1.5,3.1-3.6c0-0.3-0.1-0.7-0.5-1c-0.8-0.9-4.8-3.7-22.1-4.1L253.8,274.2L253.8,274.2z"/></g><polygon class="st11" id="XMLID_52_" points="238.3,279.6 237.4,277 238.9,276.5 239,276.8 237.8,277.2 238,278 239.2,277.6    239.3,277.9 238.1,278.3 238.5,279.2 239.8,278.8 239.9,279.1  "/><path class="st11" d="M243.6,275.8l0.3,0l0.2,1.7c0,0.3,0,0.5,0,0.7c0,0.2-0.1,0.3-0.3,0.4   c-0.1,0.1-0.3,0.2-0.6,0.2c-0.2,0-0.4,0-0.6-0.1c-0.1-0.1-0.3-0.2-0.3-0.4c-0.1-0.2-0.1-0.4-0.2-0.7l-0.1-1.7l0.3,0l0.1,1.7   c0,0.2,0.1,0.4,0.1,0.5c0.1,0.1,0.1,0.2,0.2,0.3c0.1,0.1,0.2,0.1,0.4,0.1c0.2,0,0.4-0.1,0.5-0.2c0.1-0.1,0.1-0.4,0.1-0.7   L243.6,275.8z" id="XMLID_51_"/><polygon class="st11" id="XMLID_50_" points="247,278.2 247,275.5 247.3,275.5 247.3,277.9 248.5,277.9 248.5,278.2  "/><rect class="st11" height="2.9" id="XMLID_49_" width="0.3" x="249" y="275.3"/><path class="st11" d="M251.6,277.2l0.3,0.1c-0.1,0.3-0.2,0.6-0.3,0.7c-0.1,0.2-0.3,0.2-0.5,0.2   c-0.2,0-0.4-0.1-0.5-0.2c-0.1-0.1-0.2-0.3-0.3-0.6c-0.1-0.2-0.1-0.5-0.1-0.8c0-0.3,0-0.6,0.1-0.8c0.1-0.2,0.2-0.4,0.3-0.5   c0.2-0.1,0.3-0.2,0.5-0.2c0.2,0,0.4,0.1,0.5,0.2c0.1,0.2,0.2,0.4,0.3,0.6l-0.3,0.1c0-0.2-0.1-0.4-0.2-0.5c-0.1-0.1-0.2-0.1-0.3-0.1   c-0.2,0-0.3,0.1-0.4,0.2c-0.1,0.1-0.2,0.3-0.2,0.4c0,0.2-0.1,0.4-0.1,0.6c0,0.2,0,0.5,0.1,0.7c0,0.2,0.1,0.3,0.2,0.4   c0.1,0.1,0.2,0.1,0.3,0.1c0.2,0,0.3-0.1,0.4-0.2C251.4,277.7,251.5,277.5,251.6,277.2L251.6,277.2z" id="XMLID_48_"/><path class="st11" d="M260.9,278.1v-2.7h0.5l0.6,1.9c0.1,0.2,0.1,0.3,0.1,0.4c0-0.1,0.1-0.2,0.1-0.4l0.6-1.9h0.4   v2.7h-0.3v-2.3l-0.7,2.3h-0.3l-0.7-2.3v2.3H260.9z" id="XMLID_47_"/><rect class="st11" height="2.7" id="XMLID_46_" width="0.3" x="263.7" y="275.5"/><polygon class="st11" id="XMLID_45_" points="264.7,278.3 264.7,275.6 265,275.6 266,277.7 266,275.6 266.3,275.6 266.3,278.3    266,278.3 264.9,276.2 264.9,278.3  "/><rect class="st11" height="2.6" id="XMLID_44_" width="0.3" x="267.1" y="275.7"/><path class="st11" d="M269.5,277.8l0.3,0.1c-0.1,0.3-0.2,0.5-0.4,0.7c-0.2,0.2-0.4,0.2-0.6,0.2   c-0.2,0-0.4-0.1-0.6-0.2c-0.1-0.1-0.2-0.3-0.3-0.6c-0.1-0.2-0.1-0.5,0-0.8c0-0.3,0.1-0.6,0.2-0.8c0.1-0.2,0.3-0.4,0.4-0.5   c0.2-0.1,0.4-0.1,0.6-0.1c0.2,0,0.4,0.1,0.5,0.3c0.1,0.2,0.2,0.4,0.3,0.7l-0.3,0.1c0-0.2-0.1-0.4-0.2-0.5c-0.1-0.1-0.2-0.2-0.4-0.2   c-0.2,0-0.3,0-0.5,0.1c-0.1,0.1-0.2,0.2-0.3,0.4c-0.1,0.2-0.1,0.4-0.1,0.6c0,0.2,0,0.5,0,0.7c0,0.2,0.1,0.3,0.2,0.4   c0.1,0.1,0.2,0.2,0.4,0.2c0.2,0,0.3,0,0.4-0.1C269.3,278.2,269.4,278,269.5,277.8L269.5,277.8z" id="XMLID_43_"/><polygon class="st11" id="XMLID_42_" points="272.2,279.4 272.9,276.5 273.2,276.6 273.9,279.1 274.3,276.8 274.6,276.9 274,279.8    273.7,279.7 273,277.2 272.5,279.5  "/><path class="st11" d="M236.1,280.6l-1.1-2.7l0.9-0.4c0.2-0.1,0.3-0.1,0.5-0.1c0.1,0,0.2,0.1,0.3,0.2c0.1,0.1,0.2,0.2,0.3,0.4   c0.1,0.2,0.1,0.4,0,0.5c0,0.2-0.2,0.3-0.3,0.4c0.1,0,0.2,0,0.2,0.1c0.1,0.1,0.3,0.1,0.4,0.3l0.7,0.6l-0.3,0.2l-0.5-0.4   c-0.1-0.1-0.3-0.2-0.3-0.3c-0.1-0.1-0.2-0.1-0.2-0.1c-0.1,0-0.1,0-0.2,0c0,0-0.1,0-0.2,0.1l-0.3,0.1l0.5,1.2L236.1,280.6z    M235.8,279l0.6-0.3c0.1-0.1,0.2-0.1,0.3-0.2c0.1-0.1,0.1-0.1,0.1-0.2c0-0.1,0-0.2,0-0.3c0-0.1-0.1-0.2-0.2-0.3   c-0.1-0.1-0.2,0-0.4,0l-0.7,0.3L235.8,279z"/><path class="st11" d="M240.4,279l-0.6-2.8l0.9-0.2c0.2,0,0.3,0,0.4,0c0.1,0,0.2,0,0.3,0.1c0.1,0,0.2,0.1,0.2,0.2   c0.1,0.1,0.1,0.2,0.2,0.4c0,0.2,0,0.4-0.1,0.6c-0.1,0.2-0.3,0.3-0.6,0.4l-0.6,0.1l0.3,1.1L240.4,279z M240.4,277.5l0.6-0.1   c0.2,0,0.3-0.1,0.4-0.2c0.1-0.1,0.1-0.2,0-0.4c0-0.1-0.1-0.2-0.1-0.3c-0.1-0.1-0.1-0.1-0.2-0.1c-0.1,0-0.2,0-0.3,0l-0.6,0.1   L240.4,277.5z"/><path class="st11" d="M244.8,278.4l-0.2-2.8l0.8,0c0.2,0,0.3,0,0.4,0.1c0.1,0,0.2,0.1,0.3,0.2c0.1,0.1,0.1,0.2,0.1,0.4   c0,0.1,0,0.2-0.1,0.3c0,0.1-0.1,0.2-0.2,0.3c0.1,0,0.2,0.1,0.3,0.2c0.1,0.1,0.1,0.3,0.1,0.4c0,0.1,0,0.3,0,0.4   c0,0.1-0.1,0.2-0.2,0.3c-0.1,0.1-0.1,0.1-0.2,0.2c-0.1,0-0.2,0.1-0.4,0.1L244.8,278.4z M245,276.8l0.5,0c0.1,0,0.2,0,0.3,0   c0.1,0,0.1-0.1,0.2-0.2c0-0.1,0-0.2,0-0.2c0-0.1,0-0.2-0.1-0.2c0-0.1-0.1-0.1-0.2-0.1c-0.1,0-0.2,0-0.3,0l-0.4,0L245,276.8z    M245.1,278.1l0.6,0c0.1,0,0.2,0,0.2,0c0.1,0,0.1,0,0.2-0.1c0,0,0.1-0.1,0.1-0.2c0-0.1,0-0.2,0-0.2c0-0.1,0-0.2-0.1-0.3   c0-0.1-0.1-0.1-0.2-0.2c-0.1,0-0.2,0-0.3,0l-0.5,0L245.1,278.1z"/><path class="st11" d="M252.1,278.2l0.9-2.9h0.3l0.9,2.9h-0.3l-0.3-0.9h-0.9l-0.3,0.9H252.1z M252.8,277h0.8l-0.2-0.8   c-0.1-0.2-0.1-0.5-0.2-0.6c0,0.2-0.1,0.4-0.1,0.6L252.8,277z"/><path class="st11" d="M256,278.2v-2.9h0.8c0.2,0,0.3,0,0.4,0c0.1,0,0.2,0.1,0.3,0.2c0.1,0.1,0.2,0.3,0.3,0.5   c0.1,0.2,0.1,0.4,0.1,0.7c0,0.2,0,0.4-0.1,0.6c0,0.2-0.1,0.3-0.2,0.4c-0.1,0.1-0.1,0.2-0.2,0.3c-0.1,0.1-0.2,0.1-0.3,0.1   c-0.1,0-0.2,0-0.4,0H256z M256.3,277.9h0.5c0.2,0,0.3,0,0.4-0.1c0.1,0,0.2-0.1,0.2-0.1c0.1-0.1,0.1-0.2,0.2-0.4   c0-0.2,0.1-0.3,0.1-0.5c0-0.3,0-0.5-0.1-0.7c-0.1-0.2-0.2-0.3-0.3-0.3c-0.1,0-0.2-0.1-0.4-0.1h-0.5V277.9z"/><path class="st11" d="M258.4,276.8c0-0.5,0.1-0.9,0.3-1.1c0.2-0.3,0.4-0.4,0.7-0.4c0.2,0,0.4,0.1,0.5,0.2c0.2,0.1,0.3,0.3,0.3,0.5   c0.1,0.2,0.1,0.5,0.1,0.8c0,0.3,0,0.6-0.1,0.8c-0.1,0.2-0.2,0.4-0.3,0.5c-0.2,0.1-0.3,0.2-0.5,0.2c-0.2,0-0.4-0.1-0.5-0.2   c-0.1-0.1-0.3-0.3-0.3-0.5C258.5,277.3,258.4,277,258.4,276.8L258.4,276.8z M258.7,276.8c0,0.4,0.1,0.6,0.2,0.8   c0.1,0.2,0.3,0.3,0.5,0.3c0.2,0,0.4-0.1,0.5-0.3c0.1-0.2,0.2-0.5,0.2-0.9c0-0.2,0-0.5-0.1-0.6c0-0.2-0.1-0.3-0.2-0.4   c-0.1-0.1-0.2-0.2-0.4-0.2c-0.2,0-0.3,0.1-0.5,0.3C258.8,276,258.7,276.3,258.7,276.8L258.7,276.8z"/><path class="st11" d="M269.8,278.8l1.5-2.7l0.3,0.1l0.3,3.1l-0.3-0.1l-0.1-0.9l-0.9-0.2l-0.4,0.8L269.8,278.8z M270.7,277.7   l0.8,0.2l-0.1-0.9c0-0.3,0-0.5,0-0.6c-0.1,0.2-0.1,0.4-0.2,0.5L270.7,277.7z"/><path class="st11" d="M274.3,279.8l1.9-2.3l0.3,0.1l-0.3,3.1l-0.3-0.2l0.1-0.9l-0.9-0.4l-0.6,0.7L274.3,279.8z M275.3,279l0.7,0.3   l0.1-0.9c0-0.3,0.1-0.5,0.1-0.6c-0.1,0.2-0.2,0.3-0.3,0.5L275.3,279z"/><path class="st2" d="M264.1,282.2c-2.7-1.2-4.2-0.3-4.2-0.3l0.1,1.8c0,0,1.3,0,1.8,0.3c0.5,0.3,1.7,0.8,1.7,0.8   L264.1,282.2z" id="XMLID_24_"/><g><path class="st3" d="M263.7,285.3l-2-1c-0.4-0.2-1.3-0.2-1.7-0.2l-0.3-2.1c0.3-0.4,2.3-0.9,4.5,0L263.7,285.3L263.7,285.3z     M260.8,283.6c0.4,0,0.8,0.1,1.1,0.2l1.4,0.7l0.5-2.3c-1.7-0.2-3.8,0-3.8,0l0.2,1.6C260.3,283.7,260.5,283.6,260.8,283.6    L260.8,283.6z"/></g><path class="st2" d="M248.1,282.3c2.7-1.2,4.2-0.3,4.2-0.3l-0.1,1.8c0,0-1.3,0-1.8,0.3c-0.5,0.2-1.7,0.8-1.7,0.8   L248.1,282.3z" id="XMLID_21_"/><g><path class="st3" d="M248.6,285.4l-0.7-3c2.6-1.6,4.5-0.5,4.6-0.5l0,2.1c-0.6,0.2-1.6,0.3-1.9,0.5L248.6,285.4L248.6,285.4z     M250.8,282c-0.8,0-1.6,0.2-2.5,0.6l0.7,2.1l1.4-0.7c0.6-0.3,1.8-0.3,1.9-0.3l-0.2-1.5C252,282.2,251.5,282,250.8,282L250.8,282z"/></g><path class="st2" d="M254.6,281.7v2.7c0.1,0.2,0.6,0.4,1.5,0.4c0.9,0,1.5-0.4,1.5-0.4v-2.8c0,0-0.9-0.3-1.6-0.3   C255.2,281.4,254.7,281.6,254.6,281.7L254.6,281.7z" id="XMLID_18_"/><g><path class="st3" d="M256,285c-0.8,0-1.4-0.2-1.7-0.5l0-2.8c0.3-0.4,0.7-0.5,1.5-0.6c0.9,0.1,1.7,0.3,1.7,0.3l0.2,3    C257.6,284.6,256.9,285,256,285L256,285z M254.9,284.4c0.2,0,2.5-0.2,2.5-0.2l-0.1-2.5c-0.1,0.1-0.7-0.1-1.1-0.1    c-1,0.1-1.3,0.3-1.3,0.3L254.9,284.4C254.8,284.4,254.8,284.4,254.9,284.4L254.9,284.4z"/></g><path class="st2" d="M257.5,284.6c0.4,0.8,3.5,0.5,3.5-0.2c0.1-0.7,0-1.6,0-1.6h-3.6V284.6z" id="XMLID_15_"/><g><path class="st3" d="M259,285.3L259,285.3c-0.5,0-1.5-0.1-1.8-0.6l0-1.9l3.9-0.3c0.3,0.2,0.3,1.2,0.2,1.9    C261.2,285.1,259.8,285.3,259,285.3L259,285.3z M260.8,282.8l-3.3,0.2l0.3,1.5c0.1,0.1,2.9,0.1,3-0.2    C260.9,283.7,260.8,282.8,260.8,282.8L260.8,282.8z"/></g><path class="st2" d="M257.5,281.6c0.4-0.2,1.5-0.6,2.4-0.5c0.9,0.1,1.3,0.6,1.3,0.6l-0.2,2.4   c-0.2-0.3-0.8-0.6-1.3-0.6c-0.8,0-1.5,0.3-2.2,0.8V281.6z" id="XMLID_12_"/><g><path class="st3" d="M257.2,284.7v-3.1c0.7-0.4,1.6-0.8,2.4-0.8c1.2,0.1,1.7,0.7,1.7,0.7l-0.1,2.6c-0.6-0.1-1.1-0.3-1.5-0.3    c-0.8,0-1.4,0.3-2.1,0.7L257.2,284.7L257.2,284.7z M259.7,283.3c0.6,0,1.3,0.4,1.5,0.7l-0.3-2.3c0,0.1-0.4-0.3-1.1-0.3    c-0.9,0-1.8,0.3-2.3,0.5l0.1,2C258.3,283.5,258.9,283.3,259.7,283.3C259.7,283.3,259.7,283.3,259.7,283.3L259.7,283.3z"/></g><path class="st2" d="M254.6,284.6c-0.4,0.8-3.5,0.5-3.6-0.2c-0.1-0.7,0-1.6,0-1.6h3.6V284.6z" id="XMLID_9_"/><g><path class="st3" d="M253,285.3c-0.7,0-2.2-0.2-2.3-0.9c-0.1-0.7,0-1.7,0-1.7l3.8-0.2l0.3,2C254.5,285.2,253.6,285.3,253,285.3    L253,285.3z M251.1,283c0.1,0.1,0.1,0.8,0.2,1.3c0.1,0.2,2.9,0.4,3.1,0.1l0-1.7L251.1,283L251.1,283z"/></g><path class="st2" d="M254.6,281.6c-0.4-0.2-1.5-0.6-2.4-0.5c-0.9,0.1-1.3,0.6-1.3,0.6l0.2,2.4   c0.2-0.3,0.8-0.6,1.3-0.6c0.8,0,1.5,0.3,2.2,0.8V281.6z" id="XMLID_6_"/><g><path class="st3" d="M254.8,284.7l-0.4-0.2c-0.7-0.4-1.3-0.7-2.1-0.7l0,0c-0.4,0-0.9,0.3-1.1,0.5l-0.6-2.5    c0.1-0.2,0.6-0.8,1.5-0.9c1.2,0.1,2.2,0.4,2.5,0.5L254.8,284.7L254.8,284.7z M252.3,283.3c0.8,0,1.4,0.3,2,0.6v-2.2    c-0.7-0.1-1.4-0.3-1.9-0.3c-0.9,0.1-1.3,0.5-1.3,0.5l0.2,1.9C251.4,283.5,251.9,283.3,252.3,283.3L252.3,283.3z"/></g></g></svg>