<?xml version="1.0" encoding="utf-8"?>
<!-- Generator: Adobe Illustrator 21.0.0, SVG Export Plug-In . SVG Version: 6.00 Build 0)  -->
<svg version="1.1" id="Capa_1" xmlns="http://www.w3.org/2000/svg" xmlns:xlink="http://www.w3.org/1999/xlink" x="0px" y="0px"
	 viewBox="0 0 467.1 564.8" style="enable-background:new 0 0 467.1 564.8;" xml:space="preserve">
<style type="text/css">
	.st0{fill:#fff;}
	.st1{fill:#fff;}
	.st2{fill:#fff;}
</style>
<g>
	<g>
		<path class="st0" d="M280.8,187.1c0.1,2.3,0.2,4.7,0.2,7.1c0,8.3-0.9,16.5-2.5,24.3c1.6-0.6,3.2-0.9,5-0.9
			c8.1,0,14.8,6.6,14.8,14.8h35.8L280.8,187.1z"/>
		<path class="st1" d="M204.3,165.8c-1.5-6.1-3.4-12-5.7-17.7c-0.5-1.1-1-2.3-1.5-3.4c-5.9-14.2-9.1-29.8-9.1-46.1
			c0-12.6,1.9-24.8,5.5-36.3h0l0,0c0.8-2.3,1.6-4.6,2.5-6.9h-59.6c-0.9,2.2-1.7,4.5-2.5,6.9l0,0h0c-1.9,6-3.3,12.3-4.2,18.7
			c-0.8,5.8-1.3,11.7-1.3,17.7c0,16.7,3.4,32.5,9.4,47c0.2,0.5,0.5,1.1,0.7,1.6c6.1,14.5,9.4,30.3,9.4,47c0,8.9-1,17.6-2.8,26
			L204.3,165.8z"/>
		<path class="st0" d="M274.2,194.2c0-16.3-3.3-31.9-9.1-46.1c-0.5-1.1-1-2.3-1.5-3.4c-5.9-14.2-9.1-29.8-9.1-46.1
			c0-12.6,1.9-24.8,5.5-36.3h0l0,0c0.8-2.3,1.6-4.6,2.5-6.9l-59.6,0c-0.9,2.2-1.7,4.5-2.5,6.9h0c-1.9,6-3.3,12.3-4.2,18.7
			c-0.8,5.8-1.3,11.7-1.3,17.7c0,16.7,3.4,32.5,9.4,47c0.2,0.5,0.5,1.1,0.7,1.6c2.8,6.7,5,13.8,6.6,21L142,232.4h36.8c0,0,0,0,0,0
			c0-8.1,6.6-14.8,14.8-14.8c8.1,0,14.8,6.6,14.8,14.8c0,0,0,0,0,0h0h59.7h0.1l-0.1-0.1c2.2-6.6,3.8-13.4,4.8-20.4
			C273.8,206.1,274.2,200.2,274.2,194.2z"/>
		<path class="st2" d="M331.6,148.1c-0.5-1.1-1-2.3-1.5-3.4c-5.9-14.2-9.1-29.8-9.1-46.1c0-12.6,1.9-24.8,5.5-36.3h0l0,0
			c0.8-2.3,1.6-4.6,2.5-6.9l-59.6,0c-0.9,2.2-1.7,4.5-2.5,6.9h0c-1.9,6-3.3,12.3-4.2,18.7c-0.8,5.8-1.3,11.7-1.3,17.7
			c0,16.7,3.4,32.5,9.4,47c0.2,0.5,0.5,1.1,0.7,1.6c4,9.5,6.8,19.6,8.2,30.1l56.8,48.2c1.2-4.4,2.2-9,2.8-13.6
			c0.8-5.8,1.3-11.7,1.3-17.7C340.8,177.9,337.5,162.3,331.6,148.1z"/>
	</g>
	<g>
		<g>
			<g>
				<g>
					<path class="st0" d="M60.3,358.9L60.3,358.9c1.4,0,2.6,0.9,3,2.3c5.3,17,17.1,26.6,33.3,26.6c14.3,0,24.4-8.6,24.4-20.6
						c0-28.1-61.9-39.1-61.9-73.9C59,276,74,264,95,264c6.5,0,11.2,0.8,15.1,1.6c3.9,0.8,7.1,1.6,10.4,1.6c2,0,3.3-0.4,4.5-1.4
						c0.7-0.6,1.6-1,2.5-1l0,0c1.9,0,3.6,1.4,3.8,3.4l3.3,23.9c0.3,2-1.2,3.8-3.2,3.8l0,0c-1.3,0-2.5-0.8-3-2.1
						c-6.2-14.6-17.9-23.4-31.2-23.4c-12.6,0-19.3,7.6-19.3,16.4c0,26.8,62.1,34.9,62.1,73.5c0,20.6-17.1,34.7-42.2,34.7
						c-14.7,0-20.8-3.6-26.3-3.6c-1.9,0-3.3,0.4-4.5,1.4c-0.7,0.5-1.5,0.8-2.3,0.8l0,0c-1.9,0-3.4-1.4-3.7-3.3l-3.9-27.8
						C56.9,360.6,58.4,358.9,60.3,358.9z"/>
					<g>
						<path class="st0" d="M353.8,367c0,15.3,2.1,19.3,14.9,19.7c1.5,0.1,2.7,1.3,2.7,2.8l0,0c0,1.5-1.2,2.8-2.7,2.8h-50
							c-1.5,0-2.7-1.3-2.7-2.8v0c0-1.5,1.1-2.7,2.6-2.8c10.7-0.7,13-5.8,13-16v-85.8c0-10.4-3.4-14.4-12.9-15
							c-1.5-0.1-2.6-1.3-2.6-2.8l0,0c0-1.6,1.2-2.8,2.8-2.8h89.5c2.1,0,3.8,1.7,3.8,3.9v18.9c0,1.6-1.3,2.9-2.9,2.9l0,0
							c-1.4,0-2.7-1.1-2.8-2.6c-1.3-11.6-5.5-13.9-20.8-13.9h-31.7V319h31.7c11.3,0,14.6-1.7,16-10.7c0.2-1.4,1.4-2.5,2.8-2.5h0.1
							c1.6,0,2.9,1.3,2.9,2.9v32c0,1.6-1.3,2.9-2.9,2.9h-0.1c-1.4,0-2.6-1.1-2.8-2.5c-1.6-10.6-5-12.9-17-12.9h-30.7V367z"/>
					</g>
					<path class="st2" d="M307.7,386.9c-0.3-0.8-1.2-1.3-2.1-1.3c-8.2,0.5-17.1-0.5-26-3.3l-0.1,0c-6.3-2-12.2-4.9-17.6-8.6
						c-3-2.1-6.1-4.3-9-6.5c10.6-13,16-28.4,15.6-41.7c0-1.1-0.8-2.1-1.9-2.3c-7.5-1.8-14.9-2.4-21.8-1.8c-0.8,0.1-1.1,1.2-0.3,1.6
						c2.4,1,4.7,2.1,6.8,3.3c2.8,1.5,4.6,4.3,4.9,7.5c1,9.9-2.6,20-9.5,28.8c-21.2-16.6-40.1-36-56.2-57.5c-0.9-1.1-1.6-2.3-2.3-3.5
						c-5.6-11-1-24.6,10.3-30.4c11.3-5.8,25.1-1.7,30.7,9.3c2,3.9,2.7,8.2,2.3,12.3c-0.1,1.1,1.4,1.5,1.9,0.5
						c3.7-8.5,4.4-17.5,1.3-25.8c-0.1-0.3-0.3-0.7-0.4-1c-0.4-0.9-1-1.5-1.9-1.8c-13.3-4-28.4-2.9-41.3,2.3
						c-5.5,2.2-10.3,5-14.1,9.6c-3.5,4.1-5.7,9.2-6.3,14.6c-0.1,1.2-0.2,2.4-0.2,3.6c0,8.7,3.9,16.5,10,21.9
						c-15.1,9.9-28.1,27.1-24,46.2c2.3,10.8,10.3,18.7,20.1,23.2c10.9,5,23.3,5.9,35,3.9c5.8-1,11.5-2.7,17-4.9
						c2.6-1.1,5.2-2.3,7.7-3.6c0.8-0.4,7.4-4.9,7.6-4.7c4.6,3.2,9.4,6.4,14.2,9.4c12.3,7.6,30,9.8,48,4.7
						C307.5,390,308.3,388.3,307.7,386.9z M237.7,371.9c-0.9,0.8-1.9,1.5-2.9,2.2c-2.4,1.7-4.9,3.1-7.4,4.4
						c-0.6,0.3-1.2,0.6-1.9,0.9c-18.6,8.2-39.1,4.8-49.1-9.5c-8.4-12-7.1-28.3,1.9-41.8c0,0.1,0,0.1,0,0.2c1.6-2.3,3.5-4.6,5.6-6.7
						C199.6,340.2,218,357.4,237.7,371.9z"/>
				</g>
			</g>
		</g>
	</g>
	<g>
		<path class="st0" d="M58.3,431.8L58.3,431.8c0.4,0,0.7,0.3,0.8,0.6c1.4,4.6,4.6,7.1,8.9,7.1c3.8,0,6.5-2.3,6.5-5.5
			c0-7.5-16.6-10.5-16.6-19.8c0-4.6,4-7.8,9.6-7.8c1.7,0,3,0.2,4.1,0.4c1.1,0.2,1.9,0.4,2.8,0.4c0.5,0,0.9-0.1,1.2-0.4
			c0.2-0.2,0.4-0.3,0.7-0.3h0c0.5,0,1,0.4,1,0.9l0.9,6.4c0.1,0.5-0.3,1-0.9,1h0c-0.4,0-0.7-0.2-0.8-0.6c-1.7-3.9-4.8-6.3-8.4-6.3
			c-3.4,0-5.2,2-5.2,4.4c0,7.2,16.6,9.3,16.6,19.7c0,5.5-4.6,9.3-11.3,9.3c-3.9,0-5.6-1-7.1-1c-0.5,0-0.9,0.1-1.2,0.4
			c-0.2,0.1-0.4,0.2-0.6,0.2h0c-0.5,0-0.9-0.4-1-0.9l-1.1-7.4C57.4,432.2,57.8,431.8,58.3,431.8z"/>
		<path class="st0" d="M88.8,411.4h11.6c0.3,0,0.6,0.3,0.6,0.6l0,0c0,0.3-0.3,0.6-0.6,0.6c-2.6,0.1-3.4,0.9-3.4,4v18.3
			c0,3.3,0.6,4.3,3.3,4.4c0.3,0,0.6,0.3,0.6,0.6l0,0c0,0.3-0.3,0.6-0.6,0.6H88.8c-0.3,0-0.6-0.3-0.6-0.6l0,0c0-0.3,0.3-0.6,0.6-0.6
			c3-0.1,3.2-1.5,3.2-4v-19.1c0-2.4-0.5-3.4-3.2-3.5c-0.3,0-0.6-0.3-0.6-0.6l0,0C88.1,411.6,88.4,411.4,88.8,411.4z"/>
		<path class="st0" d="M118,411.8l20.1,21.6v-16.8c0-3.3-0.5-4-3.9-4c-0.3,0-0.6-0.3-0.6-0.6l0,0c0-0.3,0.3-0.6,0.6-0.6h9.9
			c0.3,0,0.6,0.3,0.6,0.6v0c0,0.3-0.3,0.6-0.6,0.6c-2.6,0.1-3.4,0.8-3.4,4.1v22.3c0,1-0.8,1.8-1.7,1.8h0c-0.5,0-0.9-0.2-1.3-0.6
			l-22-23.6v18c0,3.5,0.4,4.7,4,4.6c0.3,0,0.6,0.3,0.6,0.6l0,0c0,0.3-0.3,0.6-0.6,0.6h-9.8c-0.3,0-0.6-0.3-0.6-0.6l0,0
			c0-0.3,0.3-0.6,0.6-0.6c2.8-0.1,3.3-1.2,3.3-4v-22.4c0-0.8,0.7-1.5,1.5-1.5h2.3C117.4,411.4,117.8,411.5,118,411.8z"/>
		<path class="st0" d="M153.6,411.4h11.8c0.3,0,0.6,0.3,0.6,0.6l0,0c0,0.3-0.3,0.6-0.6,0.6c-2.9,0.1-3.4,0.9-3.4,4v12.6
			c0,6.2,4.1,9.1,9.9,9.1c5.1,0,9.9-2.3,9.9-9.2v-12.5c0-3.5-0.6-4-3.8-4c-0.3,0-0.6-0.3-0.6-0.6l0,0c0-0.4,0.3-0.6,0.6-0.6h9.9
			c0.3,0,0.6,0.3,0.6,0.6v0c0,0.3-0.3,0.6-0.6,0.6c-3,0.1-3.6,0.9-3.6,4v13.1c0,7.4-5.6,11.6-13.9,11.6c-8.7,0-13.4-4.3-13.4-11.9
			v-13.2c0-2.7-0.6-3.5-3.3-3.6c-0.3,0-0.6-0.3-0.6-0.6v0C153,411.6,153.3,411.4,153.6,411.4z"/>
		<path class="st0" d="M196.1,432.9L196.1,432.9c0.3,0,0.6,0.2,0.7,0.5c1.2,4,4,6.2,7.8,6.2c3.4,0,5.7-2,5.7-4.8
			c0-6.6-14.5-9.2-14.5-17.3c0-4,3.5-6.9,8.4-6.9c1.5,0,2.6,0.2,3.5,0.4c0.9,0.2,1.7,0.4,2.4,0.4c0.5,0,0.8-0.1,1.1-0.4
			c0.1-0.1,0.3-0.2,0.5-0.2h0.2c0.4,0,0.7,0.3,0.7,0.6l0.8,5.8c0.1,0.4-0.3,0.8-0.7,0.8h-0.1c-0.3,0-0.6-0.2-0.7-0.5
			c-1.4-3.4-4.2-5.5-7.3-5.5c-2.9,0-4.5,1.8-4.5,3.8c0,6.3,14.5,8.2,14.5,17.2c0,4.8-4,8.1-9.9,8.1c-3.5,0-4.9-0.8-6.2-0.8
			c-0.5,0-0.8,0.1-1.1,0.4c-0.1,0.1-0.3,0.2-0.4,0.2H197c-0.4,0-0.7-0.3-0.7-0.6l-0.9-6.6C195.3,433.3,195.6,432.9,196.1,432.9z"/>
		<path class="st0" d="M284,433.9c0,4.1,0.6,5.2,4,5.3c0.4,0,0.7,0.3,0.7,0.7l0,0c0,0.4-0.3,0.8-0.7,0.8h-13.4
			c-0.4,0-0.7-0.3-0.7-0.8v0c0-0.4,0.3-0.7,0.7-0.7c2.9-0.2,3.5-1.6,3.5-4.3v-23c0-2.8-0.9-3.9-3.5-4c-0.4,0-0.7-0.4-0.7-0.8l0,0
			c0-0.4,0.3-0.8,0.7-0.8h24c0.6,0,1,0.5,1,1v5.1c0,0.4-0.3,0.8-0.8,0.8l0,0c-0.4,0-0.7-0.3-0.8-0.7c-0.3-3.1-1.5-3.7-5.6-3.7H284
			v12.2h8.5c3,0,3.9-0.5,4.3-2.9c0.1-0.4,0.4-0.7,0.8-0.7h0c0.4,0,0.8,0.3,0.8,0.8v8.6c0,0.4-0.3,0.8-0.8,0.8h0
			c-0.4,0-0.7-0.3-0.8-0.7c-0.4-2.8-1.3-3.5-4.6-3.5H284V433.9z"/>
		<path class="st0" d="M324.2,411.4c0.5,0,1,0.3,1.2,0.8l8.5,23.1c1.2,3.3,1.7,4,4,4.1c0.3,0,0.6,0.3,0.6,0.6v0
			c0,0.3-0.3,0.6-0.6,0.6h-12.2c-0.3,0-0.6-0.3-0.6-0.6l0,0c0-0.3,0.3-0.6,0.6-0.6c3.1,0,3.9-0.4,3.9-1.7c0-0.5-0.2-1.2-0.6-2.4
			l-2.2-5.7h-10.3l-2.2,6.1c-0.3,0.9-0.5,1.5-0.5,1.9c0,1.3,0.8,1.9,3.9,1.8c0.3,0,0.6,0.3,0.6,0.6l0,0c0,0.3-0.3,0.6-0.6,0.6h-9.8
			c-0.3,0-0.6-0.3-0.6-0.6v0c0-0.3,0.3-0.6,0.6-0.6c2.5-0.1,3.1-0.8,4.3-4.1l8.3-23.1c0.2-0.5,0.7-0.9,1.2-0.9H324.2z M325.9,427.3
			l-4.3-11.6l-4.3,11.6H325.9z"/>
		<path class="st0" d="M373.7,440.1c-0.1,0.3-0.5,0.5-0.8,0.4c-0.3-0.1-0.6-0.1-1-0.1c-2,0-5.1,1.1-9,1.1
			c-10.5,0-16.2-6.2-16.2-14.5c0-7.8,5.1-15.6,16.5-15.6c4.9,0,8.4,1.5,9.7,1.5c0.3,0,0.5-0.1,0.7-0.2c0.1-0.1,0.3-0.1,0.4-0.1h0.1
			c0.4,0,0.8,0.3,0.8,0.8l0.2,6c0,0.5-0.3,0.8-0.8,0.8l0,0c-0.3,0-0.6-0.2-0.7-0.5c-1.7-4.4-5.3-6.8-10.1-6.8
			c-6.8,0-11.3,5.1-11.3,12.9c0,8,5.2,14,12.1,14c4.3,0,8.1-2.3,10.7-6.4c0.1-0.2,0.3-0.3,0.6-0.3l0,0c0.5,0,0.8,0.5,0.6,0.9
			L373.7,440.1z"/>
		<path class="st0" d="M385.8,440L385.8,440c0-0.3,0.3-0.6,0.6-0.6c3.2-0.1,4.1-0.8,4.1-3.3v-20.4c0-2.9-1.3-3.2-4.1-3.2
			c-0.3,0-0.6-0.3-0.6-0.6l0,0c0-0.4,0.3-0.6,0.6-0.6h21.9c0.7,0,1.2,0.5,1.2,1.2l0.3,5.2c0,0.4-0.3,0.7-0.7,0.7h0
			c-0.3,0-0.6-0.2-0.7-0.5l-0.1-0.5c-0.9-3.9-1.7-4-4.6-4h-8.2v11h7.2c2.5,0,3.1-0.3,3.4-3c0-0.3,0.3-0.6,0.7-0.6l0,0
			c0.4,0,0.7,0.3,0.7,0.7v8.2c0,0.4-0.3,0.7-0.7,0.7h0c-0.3,0-0.6-0.3-0.7-0.6c-0.3-2.8-1-3.2-3.4-3.2h-7.2v8.6
			c0,2.9,0.4,3.4,2.7,3.4h5.1c4.5,0,5.5-0.6,6.7-4.8c0.1-0.3,0.3-0.5,0.6-0.5l0,0c0.4,0,0.7,0.3,0.7,0.8l-0.5,5.5
			c-0.1,0.6-0.6,1.1-1.2,1.1h-23.3C386.1,440.7,385.8,440.4,385.8,440z"/>
		<path class="st2" d="M265.4,439.2c-0.1-0.2-0.3-0.4-0.6-0.3c-2.2,0.1-4.6-0.1-7-0.9l0,0c-1.7-0.5-3.3-1.3-4.7-2.3
			c-0.8-0.6-1.6-1.1-2.4-1.7c2.8-3.5,4.3-7.6,4.2-11.2c0-0.3-0.2-0.6-0.5-0.6c-2-0.5-4-0.6-5.9-0.5c-0.2,0-0.3,0.3-0.1,0.4
			c0.6,0.3,1.2,0.6,1.8,0.9c0.7,0.4,1.2,1.2,1.3,2c0.3,2.6-0.7,5.4-2.6,7.7c-5.7-4.5-10.8-9.6-15.1-15.4c-0.2-0.3-0.4-0.6-0.6-0.9
			c-1.5-2.9-0.3-6.6,2.8-8.1c3-1.6,6.7-0.5,8.2,2.5c0.5,1.1,0.7,2.2,0.6,3.3c0,0.3,0.4,0.4,0.5,0.1c1-2.3,1.2-4.7,0.3-6.9
			c0-0.1-0.1-0.2-0.1-0.3c-0.1-0.2-0.3-0.4-0.5-0.5c-3.6-1.1-7.6-0.8-11.1,0.6c-1.5,0.6-2.8,1.3-3.8,2.6c-0.9,1.1-1.5,2.5-1.7,3.9
			c0,0.3-0.1,0.6-0.1,1c0,2.3,1,4.4,2.7,5.9c-4,2.7-7.5,7.3-6.4,12.4c0.6,2.9,2.8,5,5.4,6.2c2.9,1.3,6.2,1.6,9.4,1
			c1.6-0.3,3.1-0.7,4.6-1.3c0.7-0.3,1.4-0.6,2.1-1c0.2-0.1,2-1.3,2-1.3c1.2,0.9,2.5,1.7,3.8,2.5c3.3,2,8,2.6,12.9,1.3
			C265.4,440.1,265.6,439.6,265.4,439.2z M246.7,435.2c-0.3,0.2-0.5,0.4-0.8,0.6c-0.6,0.5-1.3,0.8-2,1.2c-0.2,0.1-0.3,0.2-0.5,0.2
			c-5,2.2-10.5,1.3-13.1-2.6c-2.2-3.2-1.9-7.6,0.5-11.2c0,0,0,0,0,0c0.4-0.6,0.9-1.2,1.5-1.8C236.5,426.7,241.4,431.3,246.7,435.2z"
			/>
	</g>
	<g>
		<g>
			<path class="st1" d="M71.4,480.3c-0.3-0.1-0.5-0.2-0.9-0.2c-1.2,0-3.1,0.6-5.3,0.6c-6.3,0-9.6-3.7-9.6-8.5c0-4.6,3.1-9.1,9.9-9.1
				c2.9,0,5,0.9,5.8,0.9c0.2,0,0.3-0.1,0.5-0.2h0.7l0.1,4.4h-0.8c-1-2.8-3.2-4.3-6.1-4.3c-4,0-6.7,3-6.7,7.5c0,4.7,3.1,8.2,7.2,8.2
				c2.6,0,5-1.4,6.5-3.9h0.8L71.4,480.3z"/>
			<path class="st1" d="M79.5,480.3v-0.7c2.1,0,2.6-0.2,2.6-2.3v-10.6c0-1.8-0.2-2.4-2.6-2.3v-0.7h8.8v0.7c-2.9,0-3.2,0.1-3.2,2.1
				v11.3c0,1.1,0.2,1.3,1.5,1.3h2.8c2.3,0,2.4-0.1,4.5-2.8h0.8l-2.1,4.1H79.5z"/>
			<path class="st1" d="M100.3,463.6h7.5v0.7c-1.8,0-2.3,0.4-2.3,2.3v10.4c0,2,0.4,2.6,2.3,2.5v0.7h-7.5v-0.7
				c2.1,0.1,2.2-0.8,2.2-2.3v-10.9c0-1.5-0.3-2-2.2-2V463.6z M102.2,461.8l1.3-3.9h3l-3.5,3.9H102.2z"/>
			<path class="st1" d="M118,466.6v10.3c0,2.1,0.3,2.8,2.7,2.6v0.7h-6.4v-0.7c1.9,0.1,2.3-0.6,2.3-2.3v-12.1
				c-0.6-0.6-1.2-0.8-2.3-0.9v-0.7h4.9l12,12.6v-9.6c0-2-0.3-2.3-2.7-2.3v-0.7h6.5v0.7c-1.8,0-2.4,0.3-2.4,2.4v13.8h-1.5L118,466.6z
				"/>
			<path class="st1" d="M141.4,463.6h7.5v0.7c-1.8,0-2.3,0.4-2.3,2.3v10.4c0,2,0.4,2.6,2.3,2.5v0.7h-7.5v-0.7
				c2.1,0.1,2.2-0.8,2.2-2.3v-10.9c0-1.5-0.3-2-2.2-2V463.6z"/>
			<path class="st1" d="M172,480.3c-0.3-0.1-0.5-0.2-0.9-0.2c-1.2,0-3.1,0.6-5.3,0.6c-6.3,0-9.6-3.7-9.6-8.5c0-4.6,3.1-9.1,9.9-9.1
				c2.9,0,5,0.9,5.8,0.9c0.2,0,0.3-0.1,0.5-0.2h0.7l0.1,4.4h-0.8c-1-2.8-3.2-4.3-6.1-4.3c-4,0-6.7,3-6.7,7.5c0,4.7,3.1,8.2,7.2,8.2
				c2.6,0,5-1.4,6.5-3.9h0.8L172,480.3z"/>
			<path class="st1" d="M179.6,479.6c1.8,0,2.1-0.3,2.9-2.4l4.9-13.3l-0.2-0.7h3l5.2,14c0.8,2.1,1,2.4,2.7,2.4v0.7h-8v-0.7
				c2.1,0,2.7-0.2,2.7-1c0-0.3-0.1-0.7-0.4-1.4l-1.3-3.3H185l-1.3,3.6c-0.2,0.5-0.3,0.9-0.3,1.1c0,0.8,0.5,1.1,2.7,1v0.7h-6.6V479.6
				z M190.7,472.5l-2.6-6.8l-2.6,6.8H190.7z"/>
			<path class="st1" d="M229.3,479.6c1.8,0,2.1-0.3,2.9-2.4l4.9-13.3l-0.2-0.7h3l5.2,14c0.8,2.1,1,2.4,2.7,2.4v0.7h-8v-0.7
				c2.1,0,2.7-0.2,2.7-1c0-0.3-0.1-0.7-0.4-1.4l-1.3-3.3h-6.1l-1.3,3.6c-0.2,0.5-0.3,0.9-0.3,1.1c0,0.8,0.5,1.1,2.7,1v0.7h-6.6
				V479.6z M240.4,472.5l-2.6-6.8l-2.6,6.8H240.4z"/>
			<path class="st1" d="M269,480.3c-0.3-0.1-0.5-0.2-0.9-0.2c-1.2,0-3.1,0.6-5.3,0.6c-6.3,0-9.6-3.7-9.6-8.5c0-4.6,3.1-9.1,9.9-9.1
				c2.9,0,5,0.9,5.8,0.9c0.2,0,0.3-0.1,0.5-0.2h0.7l0.1,4.4h-0.8c-1-2.8-3.2-4.3-6.1-4.3c-4,0-6.7,3-6.7,7.5c0,4.7,3.1,8.2,7.2,8.2
				c2.6,0,5-1.4,6.5-3.9h0.8L269,480.3z"/>
			<path class="st1" d="M276.6,479.6c1.8,0,2.1-0.3,2.9-2.4l4.9-13.3l-0.2-0.7h3l5.2,14c0.8,2.1,1,2.4,2.7,2.4v0.7h-8v-0.7
				c2.1,0,2.7-0.2,2.7-1c0-0.3-0.1-0.7-0.4-1.4l-1.3-3.3H282l-1.3,3.6c-0.2,0.5-0.3,0.9-0.3,1.1c0,0.8,0.5,1.1,2.7,1v0.7h-6.6V479.6
				z M287.6,472.5l-2.6-6.8l-2.6,6.8H287.6z"/>
			<path class="st1" d="M303.5,466.7c0-2-0.5-2.4-2.6-2.4v-0.7c0.8,0,3.1-0.1,4.2-0.2c1.4-0.1,2.8-0.1,3.8-0.1c4.1,0,7,0.7,8.6,2.4
				c1.7,1.7,2.3,3.7,2.3,5.7c0,3.9-2.8,8.8-10.6,8.8H301v-0.7c2.3,0,2.6-0.4,2.6-2.2V466.7z M306.5,477.6c0,1.7,0.2,1.9,2,1.9
				c3.2,0,4.9-0.7,6.1-1.9c1.6-1.6,2.1-3.9,2.1-5.8c0-1.9-0.4-4.1-2.1-5.7c-1.3-1.3-3-2-6.2-2c-0.5,0-1.3,0-2,0.1V477.6z"/>
			<path class="st1" d="M326.6,480.3v-0.7c2.2,0,2.7-0.4,2.7-1.9v-11.6c0-1.8-0.9-1.8-2.7-1.8v-0.7h13.7l0.2,4h-0.7l-0.1-0.6
				c-0.5-2.2-1-2.3-2.7-2.3h-4.7v6.3h4.2c1.6,0,1.9-0.2,2-2h0.7v5.4h-0.7c-0.2-1.9-0.5-2.1-2-2.1h-4.2v4.9c0,1.7,0.2,1.9,1.6,1.9h3
				c2.7,0,3.2-0.4,4-3h0.7l-0.4,4.2H326.6z"/>
			<path class="st1" d="M347.3,479.6c1.7,0,2.1-0.3,2.3-2.6l0.6-9.9c0.2-2.4-0.1-2.7-1.7-2.7v-0.7h5l5.8,12.4l5.5-12.4h5v0.7
				c-1.5,0-1.8,0.3-1.7,1.6l1,12.2c0.1,1.4,0.6,1.5,2.2,1.5v0.7h-7.6v-0.7c2.2,0,2.6-0.5,2.4-3.4l-0.7-9.9h-0.1l-6.2,14H358
				l-6.3-13.7h-0.1l-0.6,9.9c-0.2,2.9,0.4,2.9,2.2,3v0.7h-6V479.6z"/>
			<path class="st1" d="M377.5,463.6h7.5v0.7c-1.8,0-2.3,0.4-2.3,2.3v10.4c0,2,0.4,2.6,2.3,2.5v0.7h-7.5v-0.7
				c2.1,0.1,2.2-0.8,2.2-2.3v-10.9c0-1.5-0.3-2-2.2-2V463.6z"/>
			<path class="st1" d="M391.1,479.6c1.8,0,2.1-0.3,2.9-2.4l4.9-13.3l-0.2-0.7h3l5.2,14c0.8,2.1,1,2.4,2.7,2.4v0.7h-8v-0.7
				c2.1,0,2.7-0.2,2.7-1c0-0.3-0.1-0.7-0.4-1.4l-1.3-3.3h-6.1l-1.3,3.6c-0.2,0.5-0.3,0.9-0.3,1.1c0,0.8,0.5,1.1,2.7,1v0.7h-6.6
				V479.6z M402.2,472.5l-2.6-6.8l-2.6,6.8H402.2z"/>
		</g>
	</g>
	<g>
		<g>
			<path class="st1" d="M133.8,505.7c0,2.1,0.3,2.6,2.3,2.6v0.7h-7.4v-0.7c1.7,0,2.1-0.7,2.1-2.1V495c0-1.5-0.5-2-2.1-2v-0.7h12.8
				v3.4h-0.7c-0.1-1.8-0.6-2.1-2.8-2.1h-4.2v5.9h4.2c1.6,0,2-0.3,2.2-1.7h0.7v4.9h-0.7c-0.2-1.7-0.6-2-2.3-2h-4.1V505.7z"/>
			<path class="st1" d="M148,492.3h7.6v0.7c-2,0-2.4,0.4-2.4,2.3v7.2c0,3.6,2.4,5.2,5.7,5.2c3,0,5.8-1.3,5.8-5.3v-7.2
				c0-2.1-0.4-2.3-2.6-2.3v-0.7h6.5v0.7c-2,0-2.4,0.4-2.4,2.3v7.5c0,4.2-3.2,6.6-8.1,6.6c-5.1,0-7.8-2.4-7.8-6.8v-7.5
				c0-1.6-0.4-2-2.3-2V492.3z"/>
			<path class="st1" d="M178.3,495.3v10.3c0,2.1,0.3,2.8,2.7,2.6v0.7h-6.4v-0.7c1.9,0.1,2.3-0.6,2.3-2.3v-12.1
				c-0.6-0.6-1.2-0.8-2.3-0.9v-0.7h4.9l12,12.6v-9.6c0-2-0.3-2.3-2.7-2.3v-0.7h6.5v0.7c-1.8,0-2.4,0.3-2.4,2.4v13.8h-1.5
				L178.3,495.3z"/>
			<path class="st1" d="M204.1,495.4c0-2-0.5-2.4-2.6-2.4v-0.7c0.8,0,3.1-0.1,4.2-0.2c1.4-0.1,2.8-0.1,3.8-0.1c4.1,0,7,0.7,8.6,2.4
				c1.7,1.7,2.3,3.7,2.3,5.7c0,3.9-2.8,8.8-10.6,8.8h-8.4v-0.7c2.3,0,2.6-0.4,2.6-2.2V495.4z M207.1,506.3c0,1.7,0.2,1.9,2,1.9
				c3.2,0,4.9-0.7,6.1-1.9c1.6-1.6,2.1-3.9,2.1-5.8c0-1.9-0.4-4.1-2.1-5.7c-1.3-1.3-3-2-6.2-2c-0.5,0-1.3,0-2,0.1V506.3z"/>
			<path class="st1" d="M225.5,508.3c1.8,0,2.1-0.3,2.9-2.4l4.9-13.3l-0.2-0.7h3l5.2,14c0.8,2.1,1,2.4,2.7,2.4v0.7h-8v-0.7
				c2.1,0,2.7-0.2,2.7-1c0-0.3-0.1-0.7-0.4-1.4l-1.3-3.3h-6.1l-1.3,3.6c-0.2,0.5-0.3,0.9-0.3,1.1c0,0.8,0.5,1.1,2.7,1v0.7h-6.6
				V508.3z M236.6,501.2l-2.6-6.8l-2.6,6.8H236.6z"/>
			<path class="st1" d="M265.2,509c-0.3-0.1-0.5-0.2-0.9-0.2c-1.2,0-3.1,0.6-5.3,0.6c-6.3,0-9.6-3.7-9.6-8.5c0-4.6,3.1-9.1,9.9-9.1
				c2.9,0,5,0.9,5.8,0.9c0.2,0,0.3-0.1,0.5-0.2h0.7l0.1,4.4h-0.8c-1-2.8-3.2-4.3-6.1-4.3c-4,0-6.7,3-6.7,7.5c0,4.7,3.1,8.2,7.2,8.2
				c2.6,0,5-1.4,6.5-3.9h0.8L265.2,509z"/>
			<path class="st1" d="M273.6,492.3h7.5v0.7c-1.8,0-2.3,0.4-2.3,2.3v10.4c0,2,0.4,2.6,2.3,2.5v0.7h-7.5v-0.7
				c2.1,0.1,2.2-0.8,2.2-2.3V495c0-1.5-0.3-2-2.2-2V492.3z"/>
			<path class="st1" d="M298.2,491.9c5.8,0,9.8,3.5,9.8,8.5c0,4.8-3.9,9.1-9.9,9.1c-5.6,0-9.7-3.5-9.7-8.3
				C288.4,495.7,292.5,491.9,298.2,491.9z M298.5,508.6c3.7,0,6.2-3,6.2-7.5c0-4.9-2.8-8.3-6.8-8.3c-3.9,0-6.3,3-6.3,7.7
				C291.6,505.8,295.1,508.6,298.5,508.6z M296.4,490.5l1.3-3.9h3l-3.5,3.9H296.4z"/>
			<path class="st1" d="M318.8,495.3v10.3c0,2.1,0.3,2.8,2.7,2.6v0.7H315v-0.7c1.9,0.1,2.3-0.6,2.3-2.3v-12.1
				c-0.6-0.6-1.2-0.8-2.3-0.9v-0.7h4.9l12,12.6v-9.6c0-2-0.3-2.3-2.7-2.3v-0.7h6.5v0.7c-1.8,0-2.4,0.3-2.4,2.4v13.8h-1.5
				L318.8,495.3z"/>
		</g>
	</g>
	<rect x="210.7" y="472.2" class="st1" width="6" height="1.9"/>
</g>
</svg>
