<?xml version="1.0" encoding="utf-8"?>
<!-- Generator: Adobe Illustrator 21.0.0, SVG Export Plug-In . SVG Version: 6.00 Build 0)  -->
<svg version="1.1" id="Capa_1" xmlns="http://www.w3.org/2000/svg" xmlns:xlink="http://www.w3.org/1999/xlink" x="0px" y="0px"
	 viewBox="0 0 564.8 378.7" style="enable-background:new 0 0 564.8 378.7;" xml:space="preserve">
<style type="text/css">
	.st0{fill:#00506B;}
	.st1{fill:#00AD88;}
	.st2{fill:#7E7E80;}
</style>
<g>
	<g>
		<g>
			<g>
				<g>
					<g>
						<path class="st0" d="M210.9,139.4L210.9,139.4c1.2,0,2.2,0.8,2.5,1.9c4.5,14.6,14.7,22.7,28.5,22.7c12.3,0,20.8-7.4,20.8-17.6
							c0-24-52.9-33.4-52.9-63.2c0-14.7,12.8-25,30.7-25c5.5,0,9.6,0.7,12.9,1.4c3.4,0.7,6,1.4,8.9,1.4c1.7,0,2.8-0.3,3.9-1.2
							c0.6-0.5,1.4-0.8,2.2-0.8l0,0c1.6,0,3,1.2,3.3,2.9l2.8,20.5c0.2,1.7-1.1,3.2-2.7,3.2h0c-1.1,0-2.1-0.7-2.6-1.8
							c-5.3-12.5-15.3-20-26.7-20c-10.8,0-16.5,6.5-16.5,14.1c0,23,53.1,29.8,53.1,62.9c0,17.6-14.6,29.6-36.1,29.6
							c-12.6,0-17.8-3.1-22.5-3.1c-1.6,0-2.8,0.3-3.8,1.2c-0.6,0.5-1.3,0.7-2,0.7l0,0c-1.6,0-2.9-1.2-3.2-2.8l-3.4-23.8
							C208,140.8,209.3,139.4,210.9,139.4z"/>
						<g>
							<path class="st0" d="M459.6,149.1c0,13,1.8,16.5,12.7,16.9c1.3,0,2.3,1.1,2.3,2.4l0,0c0,1.3-1.1,2.4-2.4,2.4h-42.8
								c-1.3,0-2.4-1.1-2.4-2.4v0c0-1.3,1-2.3,2.2-2.4c9.1-0.6,11.1-5,11.1-13.7V78.9c0-8.9-2.9-12.3-11.1-12.8
								c-1.2-0.1-2.2-1.1-2.2-2.4v0c0-1.3,1.1-2.4,2.4-2.4h76.5c1.8,0,3.3,1.5,3.3,3.3v16.2c0,1.4-1.1,2.5-2.4,2.5l0,0
								c-1.2,0-2.3-1-2.4-2.2c-1.1-9.9-4.7-11.9-17.7-11.9h-27.1v38.9h27.1c9.7,0,12.5-1.5,13.7-9.1c0.2-1.2,1.2-2.1,2.4-2.1h0.1
								c1.3,0,2.4,1.1,2.4,2.5v27.4c0,1.4-1.1,2.5-2.4,2.5h-0.1c-1.2,0-2.2-0.9-2.4-2.1c-1.3-9.1-4.3-11.1-14.6-11.1h-26.2V149.1z"
								/>
						</g>
						<path class="st1" d="M420.2,165.4c-0.3-0.7-1-1.1-1.8-1.1c-7,0.5-14.6-0.4-22.2-2.8l-0.1,0c-5.3-1.7-10.4-4.2-15-7.4
							c-2.6-1.8-5.2-3.6-7.7-5.5c9.1-11.1,13.7-24.2,13.4-35.7c0-1-0.7-1.8-1.6-2c-6.4-1.5-12.7-2-18.7-1.5
							c-0.7,0.1-0.9,1.1-0.2,1.3c2,0.9,4,1.8,5.9,2.8c2.4,1.3,3.9,3.7,4.2,6.4c0.9,8.4-2.2,17.1-8.2,24.6
							c-18.1-14.2-34.3-30.8-48.1-49.1c-0.7-0.9-1.4-1.9-1.9-3c-4.8-9.4-0.9-21,8.8-26c9.7-5,21.5-1.4,26.3,7.9
							c1.7,3.4,2.3,7,1.9,10.5c-0.1,1,1.2,1.3,1.6,0.4c3.2-7.3,3.8-15,1.1-22.1c-0.1-0.3-0.2-0.6-0.3-0.9c-0.3-0.7-0.9-1.3-1.6-1.5
							c-11.4-3.4-24.3-2.4-35.3,2c-4.7,1.9-8.8,4.3-12.1,8.2c-3,3.5-4.8,7.9-5.4,12.4c-0.1,1-0.2,2.1-0.2,3.1
							c0,7.5,3.3,14.1,8.5,18.7c-12.9,8.5-24,23.2-20.5,39.5c2,9.2,8.8,16,17.2,19.8c9.3,4.3,19.9,5,29.9,3.3
							c5-0.8,9.8-2.3,14.5-4.2c2.3-0.9,4.5-1.9,6.6-3.1c0.6-0.3,6.3-4.2,6.5-4c4,2.8,8,5.4,12.2,8c10.5,6.5,25.7,8.4,41,4
							C420.1,168,420.7,166.6,420.2,165.4z M360.4,152.6c-0.8,0.6-1.6,1.3-2.5,1.9c-2.1,1.4-4.2,2.7-6.3,3.7
							c-0.5,0.2-1.1,0.5-1.6,0.7c-15.9,7-33.4,4.1-42-8.1c-7.2-10.2-6-24.2,1.6-35.8c0,0,0,0.1,0,0.1c1.4-2,3-3.9,4.8-5.8
							C327.8,125.5,343.5,140.2,360.4,152.6z"/>
					</g>
				</g>
			</g>
		</g>
	</g>
	<g>
		<path class="st0" d="M159.5,143.5c0.1,1.6,0.1,3.1,0.1,4.7c0,5.6-0.6,11-1.6,16.2c1-0.4,2.1-0.6,3.3-0.6c5.4,0,9.9,4.4,9.9,9.9
			h23.9L159.5,143.5z"/>
		<path class="st2" d="M108.4,129.3c-1-4.1-2.3-8-3.8-11.8c-0.3-0.8-0.7-1.5-1-2.3c-3.9-9.5-6.1-19.9-6.1-30.8
			c0-8.4,1.3-16.6,3.7-24.3h0l0,0c0.5-1.5,1.1-3.1,1.7-4.6H63c-0.6,1.5-1.1,3-1.7,4.6l0,0h0c-1.3,4-2.2,8.2-2.8,12.5
			c-0.6,3.9-0.9,7.8-0.9,11.8c0,11.1,2.2,21.7,6.3,31.4c0.2,0.4,0.3,0.7,0.5,1.1c4.1,9.7,6.3,20.3,6.3,31.4c0,6-0.7,11.8-1.9,17.4
			L108.4,129.3z"/>
		<path class="st0" d="M155.1,148.3c0-10.9-2.2-21.3-6.1-30.8c-0.3-0.8-0.7-1.5-1-2.3c-3.9-9.5-6.1-19.9-6.1-30.8
			c0-8.4,1.3-16.6,3.7-24.3h0l0,0c0.5-1.5,1.1-3.1,1.6-4.6l-39.8,0c-0.6,1.5-1.1,3-1.7,4.6h0c-1.3,4-2.2,8.2-2.8,12.5
			c-0.6,3.9-0.9,7.8-0.9,11.8c0,11.1,2.2,21.7,6.3,31.4c0.2,0.4,0.3,0.7,0.5,1.1c1.9,4.5,3.4,9.2,4.4,14.1l-46.6,42.9h24.6
			c0,0,0,0,0,0c0-5.4,4.4-9.9,9.9-9.9c5.4,0,9.9,4.4,9.9,9.9c0,0,0,0,0,0h0H151h0.1l0-0.1c1.4-4.4,2.5-8.9,3.2-13.6
			C154.8,156.2,155.1,152.3,155.1,148.3z"/>
		<path class="st1" d="M193.5,117.4c-0.3-0.8-0.7-1.5-1-2.3c-3.9-9.5-6.1-19.9-6.1-30.8c0-8.4,1.3-16.6,3.7-24.3h0l0,0
			c0.5-1.5,1.1-3.1,1.7-4.6l-39.8,0c-0.6,1.5-1.1,3-1.7,4.6h0c-1.3,4-2.2,8.2-2.8,12.5c-0.6,3.9-0.9,7.8-0.9,11.8
			c0,11.1,2.2,21.7,6.3,31.4c0.2,0.4,0.3,0.7,0.5,1.1c2.7,6.3,4.5,13.1,5.5,20.1l37.9,32.2c0.8-3,1.4-6,1.9-9.1
			c0.6-3.9,0.9-7.8,0.9-11.8C199.6,137.3,197.4,126.9,193.5,117.4z"/>
	</g>
	<g>
		<path class="st0" d="M59.1,224.2L59.1,224.2c0.5,0,0.9,0.3,1,0.8c1.8,5.8,5.9,9.1,11.4,9.1c4.9,0,8.3-2.9,8.3-7.1
			c0-9.6-21.1-13.3-21.1-25.3c0-5.9,5.1-10,12.3-10c2.2,0,3.8,0.3,5.2,0.5s2.4,0.5,3.6,0.5c0.7,0,1.1-0.1,1.5-0.5
			c0.2-0.2,0.5-0.3,0.9-0.3l0,0c0.7,0,1.2,0.5,1.3,1.2l1.1,8.2c0.1,0.7-0.4,1.3-1.1,1.3h0c-0.4,0-0.8-0.3-1-0.7c-2.1-5-6.1-8-10.7-8
			c-4.3,0-6.6,2.6-6.6,5.6c0,9.2,21.2,11.9,21.2,25.1c0,7.1-5.8,11.8-14.4,11.8c-5,0-7.1-1.2-9-1.2c-0.6,0-1.1,0.1-1.5,0.5
			c-0.2,0.2-0.5,0.3-0.8,0.3h0c-0.6,0-1.2-0.5-1.3-1.1l-1.3-9.5C58,224.8,58.5,224.2,59.1,224.2z"/>
		<path class="st0" d="M97.9,198.2h14.8c0.4,0,0.8,0.4,0.8,0.8l0,0c0,0.4-0.3,0.8-0.8,0.8c-3.3,0.1-4.3,1.2-4.3,5.1v23.3
			c0,4.2,0.7,5.5,4.3,5.6c0.4,0,0.8,0.4,0.8,0.8l0,0c0,0.4-0.4,0.8-0.8,0.8H97.9c-0.4,0-0.8-0.4-0.8-0.8l0,0c0-0.4,0.3-0.8,0.8-0.8
			c3.9-0.1,4-1.9,4-5.1v-24.4c0-3-0.7-4.4-4-4.5c-0.4,0-0.8-0.4-0.8-0.8l0,0C97.1,198.6,97.5,198.2,97.9,198.2z"/>
		<path class="st0" d="M135.2,198.8l25.6,27.6V205c0-4.2-0.6-5.1-5-5.1c-0.4,0-0.8-0.4-0.8-0.8l0,0c0-0.4,0.4-0.8,0.8-0.8h12.6
			c0.4,0,0.8,0.4,0.8,0.8v0c0,0.4-0.3,0.8-0.8,0.8c-3.3,0.1-4.4,1-4.4,5.3v28.4c0,1.2-1,2.3-2.2,2.3l0,0c-0.6,0-1.2-0.3-1.6-0.7
			l-28-30.1v23c0,4.4,0.5,6,5.1,5.9c0.4,0,0.8,0.3,0.8,0.8l0,0c0,0.4-0.3,0.8-0.8,0.8h-12.5c-0.4,0-0.8-0.4-0.8-0.8l0,0
			c0-0.4,0.3-0.8,0.8-0.8c3.5-0.1,4.2-1.5,4.2-5.2v-28.5c0-1.1,0.8-1.9,1.9-1.9h3C134.4,198.2,134.9,198.4,135.2,198.8z"/>
		<path class="st0" d="M180.6,198.2h15.1c0.4,0,0.8,0.4,0.8,0.8v0c0,0.4-0.3,0.8-0.8,0.8c-3.7,0.1-4.4,1.2-4.4,5.1v16.1
			c0,8,5.2,11.6,12.6,11.6c6.5,0,12.6-2.9,12.6-11.7v-16c0-4.4-0.8-5.1-4.8-5.1c-0.4,0-0.8-0.4-0.8-0.8l0,0c0-0.4,0.4-0.8,0.8-0.8
			h12.6c0.4,0,0.8,0.4,0.8,0.8v0c0,0.4-0.3,0.8-0.8,0.8c-3.8,0.1-4.6,1.2-4.6,5.1v16.6c0,9.4-7.1,14.8-17.8,14.8
			c-11.1,0-17.1-5.4-17.1-15.2v-16.8c0-3.4-0.8-4.4-4.2-4.5c-0.4,0-0.8-0.4-0.8-0.8v0C179.8,198.6,180.1,198.2,180.6,198.2z"/>
		<path class="st0" d="M234.7,225.6L234.7,225.6c0.4,0,0.8,0.3,0.9,0.7c1.6,5.1,5.1,7.9,10,7.9c4.3,0,7.3-2.6,7.3-6.2
			c0-8.4-18.5-11.7-18.5-22.1c0-5.1,4.5-8.7,10.7-8.7c1.9,0,3.3,0.2,4.5,0.5c1.2,0.2,2.1,0.5,3.1,0.5c0.6,0,1-0.1,1.4-0.5
			c0.2-0.2,0.4-0.2,0.6-0.2h0.3c0.5,0,0.9,0.3,0.9,0.8l1,7.4c0.1,0.6-0.4,1.1-0.9,1.1h-0.1c-0.4,0-0.7-0.2-0.9-0.6
			c-1.8-4.4-5.3-7-9.3-7c-3.8,0-5.7,2.3-5.7,4.9c0,8,18.5,10.4,18.5,22c0,6.2-5.1,10.4-12.6,10.4c-4.4,0-6.2-1.1-7.9-1.1
			c-0.6,0-1,0.1-1.4,0.5c-0.2,0.1-0.4,0.2-0.6,0.2h-0.2c-0.5,0-0.9-0.3-0.9-0.8l-1.2-8.5C233.7,226.1,234.1,225.6,234.7,225.6z"/>
		<path class="st0" d="M346.8,226.9c0,5.2,0.7,6.6,5.1,6.7c0.5,0,0.9,0.4,0.9,1l0,0c0,0.5-0.4,1-0.9,1h-17.1c-0.5,0-0.9-0.4-0.9-1v0
			c0-0.5,0.4-0.9,0.9-1c3.7-0.2,4.4-2,4.4-5.5v-29.3c0-3.6-1.2-4.9-4.4-5.1c-0.5,0-0.9-0.4-0.9-1l0,0c0-0.5,0.4-1,0.9-1h30.6
			c0.7,0,1.3,0.6,1.3,1.3v6.5c0,0.5-0.4,1-1,1l0,0c-0.5,0-0.9-0.4-1-0.9c-0.4-3.9-1.9-4.7-7.1-4.7h-10.8v15.5h10.8
			c3.9,0,5-0.6,5.5-3.7c0.1-0.5,0.5-0.8,1-0.8h0c0.5,0,1,0.4,1,1V218c0,0.5-0.4,1-1,1h0c-0.5,0-0.9-0.4-1-0.8
			c-0.5-3.6-1.7-4.4-5.8-4.4h-10.5V226.9z"/>
		<path class="st0" d="M397.9,198.2c0.7,0,1.3,0.4,1.5,1.1l10.8,29.4c1.5,4.2,2.1,5.1,5.1,5.3c0.4,0,0.8,0.4,0.8,0.8v0
			c0,0.4-0.3,0.8-0.8,0.8h-15.5c-0.4,0-0.8-0.4-0.8-0.8l0,0c0-0.4,0.3-0.8,0.8-0.8c3.9-0.1,5-0.6,5-2.2c0-0.6-0.2-1.6-0.8-3.1
			l-2.8-7.3h-13.1l-2.8,7.8c-0.4,1.1-0.6,1.9-0.6,2.5c0,1.6,1,2.4,5,2.3c0.4,0,0.8,0.3,0.8,0.8l0,0c0,0.4-0.3,0.8-0.8,0.8h-12.5
			c-0.4,0-0.8-0.3-0.8-0.8v0c0-0.4,0.3-0.8,0.7-0.8c3.2-0.1,4-1,5.5-5.2l10.5-29.4c0.2-0.7,0.8-1.1,1.5-1.1H397.9z M400.2,218.5
			l-5.5-14.8l-5.5,14.8H400.2z"/>
		<path class="st0" d="M461.1,234.8c-0.2,0.4-0.6,0.6-1,0.5c-0.4-0.1-0.7-0.1-1.2-0.1c-2.6,0-6.5,1.3-11.4,1.3
			c-13.4,0-20.6-8-20.6-18.4c0-10,6.5-19.8,21.1-19.8c6.3,0,10.7,1.9,12.3,1.9c0.4,0,0.6-0.1,0.9-0.3c0.2-0.1,0.3-0.2,0.5-0.2h0.1
			c0.5,0,1,0.4,1,1l0.2,7.6c0,0.6-0.4,1.1-1,1.1l0,0c-0.4,0-0.8-0.3-0.9-0.7c-2.2-5.6-6.8-8.7-12.9-8.7c-8.6,0-14.4,6.6-14.4,16.5
			c0,10.2,6.6,17.9,15.4,17.9c5.5,0,10.4-2.9,13.6-8.2c0.2-0.3,0.4-0.4,0.7-0.4l0,0c0.6,0,1,0.6,0.8,1.2L461.1,234.8z"/>
		<path class="st0" d="M476.5,234.8L476.5,234.8c0-0.4,0.3-0.8,0.8-0.8c4.1-0.1,5.2-1,5.2-4.1v-26c0-3.7-1.7-4.1-5.2-4.1
			c-0.4,0-0.8-0.4-0.8-0.8l0,0c0-0.4,0.4-0.8,0.8-0.8h27.9c0.8,0,1.5,0.7,1.6,1.5l0.4,6.6c0,0.5-0.4,0.9-0.9,0.9h0
			c-0.4,0-0.7-0.3-0.8-0.7l-0.1-0.6c-1.2-4.9-2.1-5.1-5.9-5.1H489v14h9.2c3.2,0,4-0.4,4.4-3.8c0-0.4,0.4-0.8,0.8-0.8l0,0
			c0.5,0,0.8,0.4,0.8,0.9v10.4c0,0.5-0.4,0.9-0.8,0.9h0c-0.4,0-0.8-0.3-0.8-0.7c-0.4-3.6-1.3-4.1-4.3-4.1H489v11
			c0,3.7,0.5,4.3,3.5,4.3h6.6c5.7,0,7-0.8,8.6-6.1c0.1-0.4,0.4-0.6,0.8-0.6l0,0c0.5,0,0.9,0.4,0.9,1l-0.7,7
			c-0.1,0.8-0.8,1.5-1.6,1.5h-29.8C476.9,235.6,476.5,235.2,476.5,234.8z"/>
		<path class="st1" d="M323.1,233.7c-0.1-0.3-0.4-0.5-0.7-0.4c-2.8,0.2-5.8-0.2-8.9-1.1l0,0c-2.1-0.7-4.2-1.7-6-2.9
			c-1-0.7-2.1-1.5-3.1-2.2c3.6-4.4,5.5-9.7,5.3-14.3c0-0.4-0.3-0.7-0.7-0.8c-2.6-0.6-5.1-0.8-7.5-0.6c-0.3,0-0.4,0.4-0.1,0.5
			c0.8,0.3,1.6,0.7,2.3,1.1c0.9,0.5,1.6,1.5,1.7,2.6c0.4,3.4-0.9,6.8-3.3,9.8c-7.2-5.7-13.7-12.3-19.2-19.6
			c-0.3-0.4-0.6-0.8-0.8-1.2c-1.9-3.7-0.3-8.4,3.5-10.4c3.9-2,8.6-0.6,10.5,3.2c0.7,1.3,0.9,2.8,0.8,4.2c0,0.4,0.5,0.5,0.7,0.2
			c1.3-2.9,1.5-6,0.4-8.8c0-0.1-0.1-0.2-0.1-0.4c-0.1-0.3-0.4-0.5-0.7-0.6c-4.6-1.4-9.7-1-14.1,0.8c-1.9,0.8-3.5,1.7-4.8,3.3
			c-1.2,1.4-1.9,3.1-2.2,5c-0.1,0.4-0.1,0.8-0.1,1.2c0,3,1.3,5.7,3.4,7.5c-5.2,3.4-9.6,9.3-8.2,15.8c0.8,3.7,3.5,6.4,6.9,7.9
			c3.7,1.7,7.9,2,12,1.3c2-0.3,3.9-0.9,5.8-1.7c0.9-0.4,1.8-0.8,2.6-1.2c0.3-0.1,2.5-1.7,2.6-1.6c1.6,1.1,3.2,2.2,4.9,3.2
			c4.2,2.6,10.3,3.3,16.4,1.6C323,234.8,323.3,234.2,323.1,233.7z M299.2,228.6c-0.3,0.3-0.6,0.5-1,0.8c-0.8,0.6-1.7,1.1-2.5,1.5
			c-0.2,0.1-0.4,0.2-0.6,0.3c-6.3,2.8-13.3,1.6-16.8-3.3c-2.9-4.1-2.4-9.7,0.6-14.3c0,0,0,0,0,0.1c0.6-0.8,1.2-1.6,1.9-2.3
			C286.2,217.8,292.5,223.7,299.2,228.6z"/>
	</g>
	<g>
		<g>
			<path class="st2" d="M75.8,286.1c-0.4-0.2-0.7-0.2-1.2-0.2c-1.5,0-3.9,0.8-6.8,0.8c-8,0-12.3-4.7-12.3-10.8
				c0-5.8,3.9-11.6,12.6-11.6c3.7,0,6.4,1.1,7.4,1.1c0.3,0,0.4-0.1,0.6-0.2h0.9l0.2,5.6h-1c-1.3-3.5-4-5.4-7.8-5.4
				c-5.1,0-8.6,3.8-8.6,9.6c0,6,3.9,10.4,9.2,10.4c3.4,0,6.3-1.8,8.2-5h1L75.8,286.1z"/>
			<path class="st2" d="M86.1,286.1v-0.9c2.7,0,3.3-0.2,3.3-2.9v-13.6c0-2.3-0.2-3-3.3-2.9v-0.9h11.2v0.9c-3.7,0-4.1,0.1-4.1,2.7
				v14.4c0,1.4,0.3,1.7,1.8,1.7h3.5c2.9,0,3.1-0.1,5.7-3.6h1l-2.6,5.2H86.1z"/>
			<path class="st2" d="M112.6,264.8h9.5v0.9c-2.3,0-2.9,0.5-2.9,2.9v13.3c0,2.6,0.5,3.3,2.9,3.2v0.9h-9.5v-0.9
				c2.7,0.1,2.8-1,2.8-2.9v-13.9c0-1.8-0.4-2.6-2.8-2.6V264.8z M115.1,262.5l1.6-5h3.8l-4.5,5H115.1z"/>
			<path class="st2" d="M135.2,268.6v13.1c0,2.7,0.3,3.5,3.4,3.4v0.9h-8.2v-0.9c2.5,0.1,2.9-0.7,2.9-2.9v-15.4
				c-0.8-0.7-1.6-1-2.9-1.1v-0.9h6.2l15.3,16.1v-12.3c0-2.6-0.4-3-3.4-2.9v-0.9h8.3v0.9c-2.3,0-3,0.4-3,3v17.6h-1.8L135.2,268.6z"/>
			<path class="st2" d="M165,264.8h9.5v0.9c-2.3,0-2.9,0.5-2.9,2.9v13.3c0,2.6,0.5,3.3,2.9,3.2v0.9H165v-0.9c2.7,0.1,2.8-1,2.8-2.9
				v-13.9c0-1.8-0.4-2.6-2.8-2.6V264.8z"/>
			<path class="st2" d="M204,286.1c-0.4-0.2-0.7-0.2-1.2-0.2c-1.5,0-3.9,0.8-6.8,0.8c-8,0-12.3-4.7-12.3-10.8
				c0-5.8,3.9-11.6,12.6-11.6c3.7,0,6.4,1.1,7.4,1.1c0.3,0,0.4-0.1,0.6-0.2h0.9l0.2,5.6h-1c-1.3-3.5-4-5.4-7.8-5.4
				c-5.1,0-8.6,3.8-8.6,9.6c0,6,3.9,10.4,9.2,10.4c3.4,0,6.3-1.8,8.2-5h1L204,286.1z"/>
			<path class="st2" d="M213.6,285.1c2.3,0,2.7-0.4,3.7-3.1l6.2-17l-0.3-0.9h3.8l6.7,17.8c1,2.7,1.3,3.1,3.5,3.1v0.9h-10.2v-0.9
				c2.7,0,3.5-0.3,3.5-1.3c0-0.3-0.1-0.9-0.5-1.8l-1.6-4.2h-7.8l-1.7,4.6c-0.2,0.7-0.3,1.1-0.3,1.4c0,1,0.7,1.4,3.4,1.3v0.9h-8.4
				V285.1z M227.8,276.1l-3.3-8.7l-3.3,8.7H227.8z"/>
			<path class="st2" d="M277,285.1c2.3,0,2.7-0.4,3.7-3.1l6.2-17l-0.3-0.9h3.8l6.7,17.8c1,2.7,1.3,3.1,3.5,3.1v0.9h-10.2v-0.9
				c2.7,0,3.5-0.3,3.5-1.3c0-0.3-0.1-0.9-0.5-1.8l-1.6-4.2H284l-1.7,4.6c-0.2,0.7-0.3,1.1-0.3,1.4c0,1,0.7,1.4,3.4,1.3v0.9H277
				V285.1z M291.2,276.1l-3.3-8.7l-3.3,8.7H291.2z"/>
			<path class="st2" d="M327.6,286.1c-0.4-0.2-0.7-0.2-1.2-0.2c-1.5,0-3.9,0.8-6.8,0.8c-8,0-12.3-4.7-12.3-10.8
				c0-5.8,3.9-11.6,12.6-11.6c3.7,0,6.4,1.1,7.4,1.1c0.3,0,0.4-0.1,0.6-0.2h0.9l0.2,5.6h-1c-1.3-3.5-4-5.4-7.8-5.4
				c-5.1,0-8.6,3.8-8.6,9.6c0,6,3.9,10.4,9.2,10.4c3.4,0,6.3-1.8,8.2-5h1L327.6,286.1z"/>
			<path class="st2" d="M337.3,285.1c2.3,0,2.7-0.4,3.7-3.1l6.2-17l-0.3-0.9h3.8l6.7,17.8c1,2.7,1.3,3.1,3.5,3.1v0.9h-10.2v-0.9
				c2.7,0,3.5-0.3,3.5-1.3c0-0.3-0.1-0.9-0.5-1.8l-1.6-4.2h-7.8l-1.7,4.6c-0.2,0.7-0.3,1.1-0.3,1.4c0,1,0.7,1.4,3.4,1.3v0.9h-8.4
				V285.1z M351.4,276.1l-3.3-8.7l-3.3,8.7H351.4z"/>
			<path class="st2" d="M371.6,268.7c0-2.5-0.7-3-3.3-3v-0.9c1,0,3.9-0.1,5.4-0.2c1.8-0.1,3.6-0.1,4.9-0.1c5.2,0,8.9,0.9,11,3
				c2.1,2.1,2.9,4.7,2.9,7.3c0,5-3.5,11.3-13.6,11.3h-10.6v-0.9c2.9,0,3.3-0.5,3.3-2.8V268.7z M375.4,282.6c0,2.2,0.3,2.5,2.5,2.5
				c4.1,0,6.2-0.9,7.8-2.5c2.1-2.1,2.7-5,2.7-7.4c0-2.5-0.5-5.2-2.6-7.3c-1.7-1.7-3.9-2.5-7.9-2.5c-0.6,0-1.6,0-2.5,0.1V282.6z"/>
			<path class="st2" d="M401.1,286.1v-0.9c2.8,0,3.5-0.4,3.5-2.4V268c0-2.3-1.1-2.3-3.5-2.3v-0.9h17.5l0.3,5.1H418l-0.2-0.7
				c-0.7-2.8-1.2-2.9-3.4-2.9h-6v8h5.3c2,0,2.4-0.2,2.6-2.6h0.9v6.9h-0.9c-0.2-2.4-0.7-2.7-2.6-2.7h-5.3v6.2c0,2.1,0.3,2.5,2,2.5
				h3.8c3.5,0,4.1-0.5,5.1-3.8h0.9l-0.5,5.4H401.1z"/>
			<path class="st2" d="M427.4,285.1c2.1,0,2.7-0.4,2.9-3.4l0.8-12.6c0.2-3-0.2-3.5-2.2-3.5v-0.9h6.3l7.4,15.8l7-15.8h6.3v0.9
				c-1.9,0-2.3,0.4-2.2,2l1.2,15.6c0.1,1.7,0.8,1.9,2.8,1.9v0.9h-9.7v-0.9c2.8,0,3.3-0.7,3-4.3l-0.9-12.6h-0.1l-7.9,17.9h-1.2
				l-8-17.4H433l-0.8,12.7c-0.2,3.7,0.5,3.7,2.8,3.8v0.9h-7.6V285.1z"/>
			<path class="st2" d="M466,264.8h9.5v0.9c-2.3,0-2.9,0.5-2.9,2.9v13.3c0,2.6,0.5,3.3,2.9,3.2v0.9H466v-0.9c2.7,0.1,2.8-1,2.8-2.9
				v-13.9c0-1.8-0.4-2.6-2.8-2.6V264.8z"/>
			<path class="st2" d="M483.3,285.1c2.3,0,2.7-0.4,3.7-3.1l6.2-17l-0.3-0.9h3.8l6.7,17.8c1,2.7,1.3,3.1,3.5,3.1v0.9h-10.2v-0.9
				c2.7,0,3.5-0.3,3.5-1.3c0-0.3-0.1-0.9-0.5-1.8l-1.6-4.2h-7.8l-1.7,4.6c-0.2,0.7-0.3,1.1-0.3,1.4c0,1,0.7,1.4,3.4,1.3v0.9h-8.4
				V285.1z M497.4,276.1l-3.3-8.7l-3.3,8.7H497.4z"/>
		</g>
	</g>
	<g>
		<g>
			<path class="st2" d="M155.3,318.4c0,2.7,0.4,3.3,3,3.3v0.9h-9.4v-0.9c2.2,0,2.6-0.9,2.6-2.7v-14.3c0-1.9-0.7-2.5-2.6-2.5v-0.9
				h16.3v4.3h-0.9c-0.2-2.3-0.8-2.7-3.6-2.7h-5.4v7.6h5.4c2.1,0,2.6-0.3,2.8-2.2h0.9v6.3h-0.9c-0.2-2.1-0.8-2.6-2.9-2.6h-5.2V318.4z
				"/>
			<path class="st2" d="M173.3,301.4h9.7v0.9c-2.5,0-3,0.5-3,2.9v9.2c0,4.6,3,6.6,7.3,6.6c3.8,0,7.4-1.6,7.4-6.7v-9.1
				c0-2.7-0.5-2.9-3.3-2.9v-0.9h8.3v0.9c-2.6,0-3.1,0.5-3.1,2.9v9.5c0,5.4-4.1,8.5-10.4,8.5c-6.5,0-10-3.1-10-8.7v-9.6
				c0-2.1-0.5-2.6-2.9-2.6V301.4z"/>
			<path class="st2" d="M212.1,305.2v13.1c0,2.7,0.3,3.5,3.4,3.4v0.9h-8.2v-0.9c2.5,0.1,2.9-0.7,2.9-2.9v-15.4
				c-0.8-0.7-1.6-1-2.9-1.1v-0.9h6.2l15.3,16.1v-12.3c0-2.6-0.4-3-3.4-2.9v-0.9h8.3v0.9c-2.3,0-3,0.4-3,3v17.6h-1.8L212.1,305.2z"/>
			<path class="st2" d="M244.9,305.3c0-2.5-0.7-3-3.3-3v-0.9c1,0,3.9-0.1,5.4-0.2c1.8-0.1,3.6-0.1,4.9-0.1c5.2,0,8.9,0.9,11,3
				c2.1,2.1,2.9,4.7,2.9,7.3c0,5-3.5,11.3-13.6,11.3h-10.6v-0.9c2.9,0,3.3-0.5,3.3-2.8V305.3z M248.7,319.2c0,2.2,0.3,2.5,2.5,2.5
				c4.1,0,6.2-0.9,7.8-2.5c2.1-2.1,2.7-5,2.7-7.4c0-2.5-0.5-5.2-2.6-7.3c-1.7-1.7-3.9-2.5-7.9-2.5c-0.6,0-1.6,0-2.5,0.1V319.2z"/>
			<path class="st2" d="M272.1,321.7c2.3,0,2.7-0.4,3.7-3.1l6.2-17l-0.3-0.9h3.8l6.7,17.8c1,2.7,1.3,3.1,3.5,3.1v0.9h-10.2v-0.9
				c2.7,0,3.5-0.3,3.5-1.3c0-0.3-0.1-0.9-0.5-1.8l-1.6-4.2h-7.8l-1.7,4.6c-0.2,0.7-0.3,1.1-0.3,1.4c0,1,0.7,1.4,3.4,1.3v0.9h-8.4
				V321.7z M286.3,312.7L283,304l-3.3,8.7H286.3z"/>
			<path class="st2" d="M322.7,322.7c-0.4-0.2-0.7-0.2-1.2-0.2c-1.5,0-3.9,0.8-6.8,0.8c-8,0-12.3-4.7-12.3-10.8
				c0-5.8,3.9-11.6,12.6-11.6c3.7,0,6.4,1.1,7.4,1.1c0.3,0,0.4-0.1,0.6-0.2h0.9l0.2,5.6h-1c-1.3-3.5-4-5.4-7.8-5.4
				c-5.1,0-8.6,3.8-8.6,9.6c0,6,3.9,10.4,9.2,10.4c3.4,0,6.3-1.8,8.2-5h1L322.7,322.7z"/>
			<path class="st2" d="M333.5,301.4h9.5v0.9c-2.3,0-2.9,0.5-2.9,2.9v13.3c0,2.6,0.5,3.3,2.9,3.2v0.9h-9.5v-0.9
				c2.7,0.1,2.8-1,2.8-2.9v-13.9c0-1.8-0.4-2.6-2.8-2.6V301.4z"/>
			<path class="st2" d="M364.8,300.8c7.4,0,12.5,4.4,12.5,10.8c0,6.2-4.9,11.6-12.6,11.6c-7.2,0-12.4-4.5-12.4-10.6
				C352.3,305.7,357.5,300.8,364.8,300.8z M365.2,322.1c4.8,0,7.9-3.9,7.9-9.6c0-6.2-3.6-10.6-8.6-10.6c-4.9,0-8.1,3.8-8.1,9.8
				C356.4,318.5,360.8,322.1,365.2,322.1z M362.5,299.1l1.6-5h3.8l-4.5,5H362.5z"/>
			<path class="st2" d="M391.1,305.2v13.1c0,2.7,0.3,3.5,3.4,3.4v0.9h-8.2v-0.9c2.5,0.1,2.9-0.7,2.9-2.9v-15.4
				c-0.8-0.7-1.6-1-2.9-1.1v-0.9h6.2l15.3,16.1v-12.3c0-2.6-0.4-3-3.4-2.9v-0.9h8.3v0.9c-2.3,0-3,0.4-3,3v17.6h-1.8L391.1,305.2z"/>
		</g>
	</g>
	<rect x="253.3" y="275.8" class="st2" width="7.6" height="2.4"/>
</g>
</svg>
