<?xml version="1.0" encoding="utf-8"?>
<!-- Generator: Adobe Illustrator 21.0.0, SVG Export Plug-In . SVG Version: 6.00 Build 0)  -->
<svg version="1.1" id="Capa_1" xmlns="http://www.w3.org/2000/svg" xmlns:xlink="http://www.w3.org/1999/xlink" x="0px" y="0px"
	 viewBox="0 0 484 189" style="enable-background:new 0 0 484 189;" xml:space="preserve">
<style type="text/css">
	.st0{fill:#FFFFFF;}
</style>
<g>
	<g>
		<g>
			<g>
				<g>
					<g>
						<path class="st0" d="M180.1,112.9L180.1,112.9c1,0,1.9,0.7,2.2,1.7c3.9,12.7,12.8,19.8,24.8,19.8c10.7,0,18.2-6.4,18.2-15.4
							c0-20.9-46.1-29.1-46.1-55.1c0-12.8,11.1-21.8,26.8-21.8c4.8,0,8.3,0.6,11.3,1.2c2.9,0.6,5.3,1.2,7.8,1.2
							c1.5,0,2.5-0.3,3.4-1.1c0.5-0.5,1.2-0.7,1.9-0.7h0c1.4,0,2.6,1.1,2.8,2.5l2.5,17.8c0.2,1.5-0.9,2.8-2.4,2.8l0,0
							c-1,0-1.8-0.6-2.2-1.5c-4.6-10.9-13.3-17.4-23.3-17.4c-9.4,0-14.3,5.7-14.3,12.2c0,20,46.3,26,46.3,54.8
							c0,15.4-12.7,25.8-31.5,25.8c-11,0-15.5-2.7-19.6-2.7c-1.4,0-2.4,0.3-3.3,1c-0.5,0.4-1.1,0.6-1.7,0.6l0,0
							c-1.4,0-2.6-1-2.8-2.4l-2.9-20.7C177.6,114.2,178.7,112.9,180.1,112.9z"/>
						<g>
							<path class="st0" d="M396.9,121.4c0,11.4,1.6,14.4,11.1,14.7c1.1,0,2,1,2,2.1l0,0c0,1.2-0.9,2.1-2,2.1h-37.3
								c-1.1,0-2-0.9-2-2.1v0c0-1.1,0.8-2,1.9-2.1c8-0.5,9.7-4.4,9.7-11.9v-64c0-7.8-2.5-10.7-9.6-11.1c-1.1-0.1-1.9-1-1.9-2.1v0
								c0-1.2,0.9-2.1,2.1-2.1h66.7c1.6,0,2.8,1.3,2.8,2.9v14.1c0,1.2-1,2.2-2.1,2.2l0,0c-1.1,0-2-0.8-2.1-1.9
								c-1-8.6-4.1-10.4-15.5-10.4h-23.6v33.9h23.6c8.4,0,10.9-1.3,11.9-8c0.2-1.1,1.1-1.8,2.1-1.8h0.1c1.2,0,2.1,1,2.1,2.2v23.9
								c0,1.2-1,2.2-2.1,2.2h-0.1c-1.1,0-1.9-0.8-2.1-1.9c-1.2-7.9-3.7-9.7-12.7-9.7h-22.9V121.4z"/>
						</g>
						<path class="st0" d="M362.6,135.6c-0.3-0.6-0.9-1-1.6-0.9c-6.1,0.4-12.8-0.3-19.4-2.4l-0.1,0c-4.7-1.5-9.1-3.6-13.1-6.4
							c-2.3-1.6-4.5-3.2-6.7-4.8c7.9-9.7,11.9-21.1,11.6-31.1c0-0.8-0.6-1.6-1.4-1.8c-5.6-1.3-11.1-1.8-16.3-1.3
							c-0.6,0.1-0.8,0.9-0.2,1.2c1.8,0.7,3.5,1.6,5.1,2.5c2.1,1.1,3.4,3.2,3.7,5.6c0.8,7.4-1.9,14.9-7.1,21.4
							c-15.8-12.4-29.9-26.8-41.9-42.8c-0.6-0.8-1.2-1.7-1.7-2.6c-4.2-8.2-0.8-18.3,7.7-22.6c8.4-4.3,18.7-1.3,22.9,6.9
							c1.5,2.9,2,6.1,1.7,9.2c-0.1,0.8,1.1,1.1,1.4,0.4c2.8-6.4,3.3-13.1,1-19.3c-0.1-0.3-0.2-0.5-0.3-0.8c-0.3-0.6-0.8-1.1-1.4-1.3
							c-9.9-3-21.2-2.1-30.8,1.7c-4.1,1.6-7.7,3.7-10.5,7.1c-2.6,3.1-4.2,6.9-4.7,10.8c-0.1,0.9-0.2,1.8-0.2,2.7
							c0,6.5,2.9,12.3,7.4,16.3c-11.2,7.4-20.9,20.2-17.9,34.4c1.7,8,7.7,13.9,15,17.3c8.1,3.7,17.3,4.4,26.1,2.9
							c4.3-0.7,8.6-2,12.7-3.6c2-0.8,3.9-1.7,5.7-2.7c0.6-0.3,5.5-3.7,5.7-3.5c3.5,2.4,7,4.7,10.6,7c9.2,5.7,22.4,7.3,35.8,3.5
							C362.5,137.9,363,136.6,362.6,135.6z M310.4,124.5c-0.7,0.6-1.4,1.1-2.2,1.7c-1.8,1.3-3.6,2.3-5.5,3.2
							c-0.5,0.2-0.9,0.4-1.4,0.6c-13.8,6.1-29.1,3.6-36.6-7.1c-6.2-8.9-5.3-21.1,1.4-31.2c0,0,0,0.1,0,0.1c1.2-1.7,2.6-3.4,4.2-5
							C282,100.8,295.7,113.6,310.4,124.5z"/>
					</g>
				</g>
			</g>
		</g>
	</g>
	<g>
		<path class="st0" d="M135.4,116.5c0.1,1.4,0.1,2.7,0.1,4.1c0,4.9-0.5,9.6-1.4,14.2c0.9-0.3,1.9-0.5,2.9-0.5c4.7,0,8.6,3.8,8.6,8.6
			h20.9L135.4,116.5z"/>
		<path class="st0" d="M90.8,104.1c-0.9-3.5-2-7-3.3-10.3c-0.3-0.7-0.6-1.3-0.9-2c-3.4-8.3-5.3-17.4-5.3-26.9
			c0-7.4,1.1-14.5,3.2-21.1h0l0,0c0.4-1.3,0.9-2.7,1.4-4H51.2c-0.5,1.3-1,2.6-1.4,4l0,0h0c-1.1,3.5-1.9,7.1-2.5,10.9
			c-0.5,3.4-0.8,6.8-0.8,10.3c0,9.7,2,19,5.5,27.4c0.1,0.3,0.3,0.6,0.4,1C56,101.7,58,111,58,120.7c0,5.2-0.6,10.3-1.7,15.1
			L90.8,104.1z"/>
		<path class="st0" d="M131.5,120.7c0-9.5-1.9-18.6-5.3-26.9c-0.3-0.7-0.6-1.3-0.9-2c-3.4-8.3-5.3-17.4-5.3-26.9
			c0-7.4,1.1-14.5,3.2-21.1h0l0,0c0.4-1.3,0.9-2.7,1.4-4l-34.7,0c-0.5,1.3-1,2.6-1.4,4h0c-1.1,3.5-1.9,7.1-2.5,10.9
			c-0.5,3.4-0.8,6.8-0.8,10.3c0,9.7,2,19,5.5,27.4c0.1,0.3,0.3,0.6,0.4,1c1.6,3.9,2.9,8,3.9,12.3l-40.6,37.4H76c0,0,0,0,0,0
			c0-4.7,3.8-8.6,8.6-8.6c4.7,0,8.6,3.8,8.6,8.6c0,0,0,0,0,0h0h34.8h0.1l0-0.1c1.3-3.8,2.2-7.8,2.8-11.9
			C131.3,127.6,131.5,124.2,131.5,120.7z"/>
		<path class="st0" d="M165,93.8c-0.3-0.7-0.6-1.3-0.9-2c-3.4-8.3-5.3-17.4-5.3-26.9c0-7.4,1.1-14.5,3.2-21.1h0l0,0
			c0.4-1.3,0.9-2.7,1.4-4l-34.7,0c-0.5,1.3-1,2.6-1.4,4h0c-1.1,3.5-1.9,7.1-2.5,10.9c-0.5,3.4-0.8,6.8-0.8,10.3c0,9.7,2,19,5.5,27.4
			c0.1,0.3,0.3,0.6,0.4,1c2.3,5.5,3.9,11.4,4.8,17.5l33.1,28.1c0.7-2.6,1.3-5.2,1.6-7.9c0.5-3.4,0.8-6.8,0.8-10.3
			C170.3,111.1,168.4,102.1,165,93.8z"/>
	</g>
</g>
</svg>
